G04 #@! TF.GenerationSoftware,KiCad,Pcbnew,(6.0.1)*
G04 #@! TF.CreationDate,2022-01-24T21:39:17-03:00*
G04 #@! TF.ProjectId,ice-adq,6963652d-6164-4712-9e6b-696361645f70,1.0*
G04 #@! TF.SameCoordinates,Original*
G04 #@! TF.FileFunction,Paste,Top*
G04 #@! TF.FilePolarity,Positive*
%FSLAX46Y46*%
G04 Gerber Fmt 4.6, Leading zero omitted, Abs format (unit mm)*
G04 Created by KiCad (PCBNEW (6.0.1)) date 2022-01-24 21:39:17*
%MOMM*%
%LPD*%
G01*
G04 APERTURE LIST*
G04 Aperture macros list*
%AMRoundRect*
0 Rectangle with rounded corners*
0 $1 Rounding radius*
0 $2 $3 $4 $5 $6 $7 $8 $9 X,Y pos of 4 corners*
0 Add a 4 corners polygon primitive as box body*
4,1,4,$2,$3,$4,$5,$6,$7,$8,$9,$2,$3,0*
0 Add four circle primitives for the rounded corners*
1,1,$1+$1,$2,$3*
1,1,$1+$1,$4,$5*
1,1,$1+$1,$6,$7*
1,1,$1+$1,$8,$9*
0 Add four rect primitives between the rounded corners*
20,1,$1+$1,$2,$3,$4,$5,0*
20,1,$1+$1,$4,$5,$6,$7,0*
20,1,$1+$1,$6,$7,$8,$9,0*
20,1,$1+$1,$8,$9,$2,$3,0*%
G04 Aperture macros list end*
%ADD10RoundRect,0.250000X0.450000X-0.325000X0.450000X0.325000X-0.450000X0.325000X-0.450000X-0.325000X0*%
%ADD11RoundRect,0.250000X-0.325000X-0.450000X0.325000X-0.450000X0.325000X0.450000X-0.325000X0.450000X0*%
%ADD12RoundRect,0.250000X-0.450000X0.325000X-0.450000X-0.325000X0.450000X-0.325000X0.450000X0.325000X0*%
%ADD13RoundRect,0.250000X0.325000X0.450000X-0.325000X0.450000X-0.325000X-0.450000X0.325000X-0.450000X0*%
%ADD14R,0.600000X1.550000*%
%ADD15R,1.550000X0.600000*%
%ADD16R,0.280000X1.400000*%
%ADD17R,1.925000X0.700000*%
%ADD18R,0.700000X1.925000*%
%ADD19R,4.600000X1.100000*%
%ADD20R,4.550000X5.250000*%
G04 APERTURE END LIST*
D10*
X94000000Y-122275000D03*
X94000000Y-120225000D03*
X72361208Y-120225000D03*
X72361208Y-122275000D03*
X83000000Y-120225000D03*
X83000000Y-122275000D03*
D11*
X118975000Y-122759266D03*
X121025000Y-122759266D03*
X125525000Y-122759266D03*
X123475000Y-122759266D03*
D12*
X122500000Y-140975000D03*
X122500000Y-143025000D03*
X120000000Y-140975000D03*
X120000000Y-143025000D03*
D11*
X112319021Y-137486867D03*
X110269021Y-137486867D03*
D10*
X99044021Y-140011867D03*
X99044021Y-137961867D03*
D13*
X105978722Y-122730894D03*
X108028722Y-122730894D03*
D10*
X140503722Y-126755894D03*
X140503722Y-124705894D03*
D11*
X135228722Y-133980894D03*
X137278722Y-133980894D03*
D13*
X97225000Y-151750000D03*
X99275000Y-151750000D03*
D12*
X129250000Y-165725000D03*
X129250000Y-167775000D03*
D10*
X110000000Y-126475000D03*
X110000000Y-128525000D03*
X120500000Y-118307149D03*
X120500000Y-120357149D03*
X123018488Y-120357149D03*
X123018488Y-118307149D03*
D12*
X125000000Y-140975000D03*
X125000000Y-143025000D03*
D13*
X112319021Y-139986867D03*
X110269021Y-139986867D03*
X108269021Y-142486867D03*
X110319021Y-142486867D03*
X105225000Y-132500000D03*
X107275000Y-132500000D03*
D12*
X108250000Y-120275000D03*
X108250000Y-118225000D03*
X105750000Y-118225000D03*
X105750000Y-120275000D03*
D13*
X137775000Y-120230894D03*
X135725000Y-120230894D03*
D10*
X132750000Y-131475000D03*
X132750000Y-133525000D03*
D13*
X137278722Y-131480894D03*
X135228722Y-131480894D03*
D14*
X100016208Y-120303661D03*
X98746208Y-120303661D03*
X97476208Y-120303661D03*
X96206208Y-120303661D03*
X96206208Y-125703661D03*
X97476208Y-125703661D03*
X98746208Y-125703661D03*
X100016208Y-125703661D03*
X89016208Y-125703661D03*
X87746208Y-125703661D03*
X86476208Y-125703661D03*
X85206208Y-125703661D03*
X85206208Y-120303661D03*
X86476208Y-120303661D03*
X87746208Y-120303661D03*
X89016208Y-120303661D03*
X78266208Y-120303661D03*
X76996208Y-120303661D03*
X75726208Y-120303661D03*
X74456208Y-120303661D03*
X74456208Y-125703661D03*
X75726208Y-125703661D03*
X76996208Y-125703661D03*
X78266208Y-125703661D03*
D15*
X102344021Y-140141867D03*
X102344021Y-138871867D03*
X102344021Y-137601867D03*
X102344021Y-136331867D03*
X107744021Y-136331867D03*
X107744021Y-137601867D03*
X107744021Y-138871867D03*
X107744021Y-140141867D03*
D16*
X107253722Y-129620894D03*
X106753722Y-129620894D03*
X106253722Y-129620894D03*
X105753722Y-129620894D03*
X105253722Y-129620894D03*
X105253722Y-125340894D03*
X105753722Y-125340894D03*
X106253722Y-125340894D03*
X106753722Y-125340894D03*
X107253722Y-125340894D03*
D14*
X138158722Y-123030894D03*
X136888722Y-123030894D03*
X135618722Y-123030894D03*
X134348722Y-123030894D03*
X134348722Y-128430894D03*
X135618722Y-128430894D03*
X136888722Y-128430894D03*
X138158722Y-128430894D03*
D17*
X125052500Y-133000000D03*
X125052500Y-131730000D03*
X125052500Y-130460000D03*
X125052500Y-134270000D03*
X125052500Y-135540000D03*
D18*
X123540000Y-128947500D03*
X122270000Y-128947500D03*
X121000000Y-128947500D03*
X119730000Y-128947500D03*
X118460000Y-128947500D03*
D17*
X116947500Y-130460000D03*
X116947500Y-131730000D03*
X116947500Y-133000000D03*
X116947500Y-134270000D03*
X116947500Y-135540000D03*
D18*
X118460000Y-137052500D03*
X119730000Y-137052500D03*
X121000000Y-137052500D03*
X122270000Y-137052500D03*
X123540000Y-137052500D03*
D11*
X123425000Y-157359203D03*
X125475000Y-157359203D03*
D13*
X129175000Y-147500000D03*
X131225000Y-147500000D03*
X129425000Y-157400000D03*
X127375000Y-157400000D03*
X129175000Y-149500000D03*
X131225000Y-149500000D03*
D15*
X129016403Y-155289202D03*
X129016403Y-154019202D03*
X129016403Y-152749202D03*
X129016403Y-151479202D03*
X123616403Y-151479202D03*
X123616403Y-152749202D03*
X123616403Y-154019202D03*
X123616403Y-155289202D03*
D10*
X129250000Y-172275000D03*
X129250000Y-170225000D03*
D19*
X124775000Y-171540000D03*
X124775000Y-169000000D03*
X124775000Y-166460000D03*
D20*
X113200000Y-166225000D03*
X118050000Y-171775000D03*
X113200000Y-171775000D03*
X118050000Y-166225000D03*
M02*
