G04 #@! TF.GenerationSoftware,KiCad,Pcbnew,(6.0.1)*
G04 #@! TF.CreationDate,2022-01-24T21:39:17-03:00*
G04 #@! TF.ProjectId,ice-adq,6963652d-6164-4712-9e6b-696361645f70,1.0*
G04 #@! TF.SameCoordinates,Original*
G04 #@! TF.FileFunction,Copper,L1,Top*
G04 #@! TF.FilePolarity,Positive*
%FSLAX46Y46*%
G04 Gerber Fmt 4.6, Leading zero omitted, Abs format (unit mm)*
G04 Created by KiCad (PCBNEW (6.0.1)) date 2022-01-24 21:39:17*
%MOMM*%
%LPD*%
G01*
G04 APERTURE LIST*
G04 Aperture macros list*
%AMRoundRect*
0 Rectangle with rounded corners*
0 $1 Rounding radius*
0 $2 $3 $4 $5 $6 $7 $8 $9 X,Y pos of 4 corners*
0 Add a 4 corners polygon primitive as box body*
4,1,4,$2,$3,$4,$5,$6,$7,$8,$9,$2,$3,0*
0 Add four circle primitives for the rounded corners*
1,1,$1+$1,$2,$3*
1,1,$1+$1,$4,$5*
1,1,$1+$1,$6,$7*
1,1,$1+$1,$8,$9*
0 Add four rect primitives between the rounded corners*
20,1,$1+$1,$2,$3,$4,$5,0*
20,1,$1+$1,$4,$5,$6,$7,0*
20,1,$1+$1,$6,$7,$8,$9,0*
20,1,$1+$1,$8,$9,$2,$3,0*%
G04 Aperture macros list end*
G04 #@! TA.AperFunction,ComponentPad*
%ADD10R,2.000000X1.524000*%
G04 #@! TD*
G04 #@! TA.AperFunction,ComponentPad*
%ADD11O,2.000000X1.524000*%
G04 #@! TD*
G04 #@! TA.AperFunction,SMDPad,CuDef*
%ADD12RoundRect,0.250000X0.450000X-0.325000X0.450000X0.325000X-0.450000X0.325000X-0.450000X-0.325000X0*%
G04 #@! TD*
G04 #@! TA.AperFunction,SMDPad,CuDef*
%ADD13RoundRect,0.250000X-0.325000X-0.450000X0.325000X-0.450000X0.325000X0.450000X-0.325000X0.450000X0*%
G04 #@! TD*
G04 #@! TA.AperFunction,SMDPad,CuDef*
%ADD14RoundRect,0.250000X-0.450000X0.325000X-0.450000X-0.325000X0.450000X-0.325000X0.450000X0.325000X0*%
G04 #@! TD*
G04 #@! TA.AperFunction,SMDPad,CuDef*
%ADD15RoundRect,0.250000X0.325000X0.450000X-0.325000X0.450000X-0.325000X-0.450000X0.325000X-0.450000X0*%
G04 #@! TD*
G04 #@! TA.AperFunction,ComponentPad*
%ADD16R,3.000000X3.000000*%
G04 #@! TD*
G04 #@! TA.AperFunction,ComponentPad*
%ADD17C,3.000000*%
G04 #@! TD*
G04 #@! TA.AperFunction,SMDPad,CuDef*
%ADD18R,0.600000X1.550000*%
G04 #@! TD*
G04 #@! TA.AperFunction,SMDPad,CuDef*
%ADD19R,1.550000X0.600000*%
G04 #@! TD*
G04 #@! TA.AperFunction,SMDPad,CuDef*
%ADD20R,0.280000X1.400000*%
G04 #@! TD*
G04 #@! TA.AperFunction,SMDPad,CuDef*
%ADD21R,1.925000X0.700000*%
G04 #@! TD*
G04 #@! TA.AperFunction,SMDPad,CuDef*
%ADD22R,0.700000X1.925000*%
G04 #@! TD*
G04 #@! TA.AperFunction,ComponentPad*
%ADD23R,1.700000X1.700000*%
G04 #@! TD*
G04 #@! TA.AperFunction,ComponentPad*
%ADD24O,1.700000X1.700000*%
G04 #@! TD*
G04 #@! TA.AperFunction,SMDPad,CuDef*
%ADD25R,4.600000X1.100000*%
G04 #@! TD*
G04 #@! TA.AperFunction,SMDPad,CuDef*
%ADD26R,9.400000X10.800000*%
G04 #@! TD*
G04 #@! TA.AperFunction,ViaPad*
%ADD27C,0.600000*%
G04 #@! TD*
G04 #@! TA.AperFunction,Conductor*
%ADD28C,0.381000*%
G04 #@! TD*
G04 #@! TA.AperFunction,Conductor*
%ADD29C,0.203200*%
G04 #@! TD*
G04 #@! TA.AperFunction,Conductor*
%ADD30C,0.508000*%
G04 #@! TD*
G04 #@! TA.AperFunction,Conductor*
%ADD31C,0.600000*%
G04 #@! TD*
G04 APERTURE END LIST*
D10*
X141715001Y-138095001D03*
D11*
X144255001Y-138095001D03*
X141715001Y-150795001D03*
X144255001Y-140635001D03*
X141715001Y-153335001D03*
X144255001Y-143175001D03*
X141715001Y-155875001D03*
X144255001Y-145715001D03*
X141715001Y-158415001D03*
X144255001Y-148255001D03*
X141715001Y-160955001D03*
X144255001Y-150795001D03*
X141715001Y-163495001D03*
X144255001Y-153335001D03*
X141715001Y-166035001D03*
X144255001Y-155875001D03*
X141715001Y-168575001D03*
X144255001Y-158415001D03*
X141715001Y-171115001D03*
X144255001Y-160955001D03*
X141715001Y-173655001D03*
X144255001Y-163495001D03*
X141715001Y-176195001D03*
X144255001Y-166035001D03*
X144255001Y-168575001D03*
X141715001Y-178735001D03*
X144255001Y-171115001D03*
X144255001Y-176195001D03*
X144255001Y-178735001D03*
X144255001Y-181275001D03*
X144255001Y-183815001D03*
X141715001Y-181275001D03*
X141715001Y-183815001D03*
X141715001Y-140635001D03*
X141715001Y-143175001D03*
X141715001Y-145715001D03*
X141715001Y-148255001D03*
X141715001Y-186355001D03*
X144255001Y-186355001D03*
X144255001Y-173655001D03*
D10*
X70595001Y-138095001D03*
D11*
X73135001Y-138095001D03*
X70595001Y-140635001D03*
X73135001Y-140635001D03*
X70595001Y-143175001D03*
X73135001Y-143175001D03*
X70595001Y-145715001D03*
X73135001Y-145715001D03*
X70595001Y-148255001D03*
X73135001Y-148255001D03*
X70595001Y-150795001D03*
X73135001Y-150795001D03*
X70595001Y-153335001D03*
X73135001Y-153335001D03*
X70595001Y-155875001D03*
X73135001Y-155875001D03*
X70595001Y-158415001D03*
X73135001Y-158415001D03*
X70595001Y-160955001D03*
X73135001Y-160955001D03*
X70595001Y-163495001D03*
X73135001Y-163495001D03*
X70595001Y-166035001D03*
X73135001Y-166035001D03*
X70595001Y-168575001D03*
X73135001Y-168575001D03*
X70595001Y-171115001D03*
X73135001Y-171115001D03*
X70595001Y-173655001D03*
X73135001Y-173655001D03*
X70595001Y-176195001D03*
X73135001Y-176195001D03*
X70595001Y-178735001D03*
X73135001Y-178735001D03*
X70595001Y-181275001D03*
X73135001Y-181275001D03*
X70595001Y-183815001D03*
X73135001Y-183815001D03*
X70595001Y-186355001D03*
X73135001Y-186355001D03*
D12*
X94000000Y-122275000D03*
X94000000Y-120225000D03*
X72361208Y-120225000D03*
X72361208Y-122275000D03*
X83000000Y-120225000D03*
X83000000Y-122275000D03*
D13*
X118975000Y-122759266D03*
X121025000Y-122759266D03*
X125525000Y-122759266D03*
X123475000Y-122759266D03*
D14*
X122500000Y-140975000D03*
X122500000Y-143025000D03*
X120000000Y-140975000D03*
X120000000Y-143025000D03*
D13*
X112319021Y-137486867D03*
X110269021Y-137486867D03*
D12*
X99044021Y-140011867D03*
X99044021Y-137961867D03*
D15*
X105978722Y-122730894D03*
X108028722Y-122730894D03*
D12*
X140503722Y-126755894D03*
X140503722Y-124705894D03*
D13*
X135228722Y-133980894D03*
X137278722Y-133980894D03*
D15*
X97225000Y-151750000D03*
X99275000Y-151750000D03*
D14*
X129250000Y-165725000D03*
X129250000Y-167775000D03*
D12*
X110000000Y-126475000D03*
X110000000Y-128525000D03*
D16*
X94500000Y-112753661D03*
D17*
X99580000Y-112753661D03*
X88580000Y-112753661D03*
D16*
X83500000Y-112753661D03*
D17*
X77580000Y-112750000D03*
D16*
X72500000Y-112750000D03*
X121750000Y-112750000D03*
D17*
X126830000Y-112750000D03*
D16*
X105503722Y-112750000D03*
D17*
X110583722Y-112750000D03*
X115663722Y-112750000D03*
X138080000Y-112750000D03*
D16*
X133000000Y-112750000D03*
X123800000Y-181200000D03*
D17*
X118720000Y-181200000D03*
D12*
X120500000Y-118307149D03*
X120500000Y-120357149D03*
X123018488Y-120357149D03*
X123018488Y-118307149D03*
D14*
X125000000Y-140975000D03*
X125000000Y-143025000D03*
D15*
X112319021Y-139986867D03*
X110269021Y-139986867D03*
X108269021Y-142486867D03*
X110319021Y-142486867D03*
X105225000Y-132500000D03*
X107275000Y-132500000D03*
D14*
X108250000Y-120275000D03*
X108250000Y-118225000D03*
X105750000Y-118225000D03*
X105750000Y-120275000D03*
D15*
X137775000Y-120230894D03*
X135725000Y-120230894D03*
D12*
X132750000Y-131475000D03*
X132750000Y-133525000D03*
D15*
X137278722Y-131480894D03*
X135228722Y-131480894D03*
D18*
X100016208Y-120303661D03*
X98746208Y-120303661D03*
X97476208Y-120303661D03*
X96206208Y-120303661D03*
X96206208Y-125703661D03*
X97476208Y-125703661D03*
X98746208Y-125703661D03*
X100016208Y-125703661D03*
X89016208Y-125703661D03*
X87746208Y-125703661D03*
X86476208Y-125703661D03*
X85206208Y-125703661D03*
X85206208Y-120303661D03*
X86476208Y-120303661D03*
X87746208Y-120303661D03*
X89016208Y-120303661D03*
X78266208Y-120303661D03*
X76996208Y-120303661D03*
X75726208Y-120303661D03*
X74456208Y-120303661D03*
X74456208Y-125703661D03*
X75726208Y-125703661D03*
X76996208Y-125703661D03*
X78266208Y-125703661D03*
D19*
X102344021Y-140141867D03*
X102344021Y-138871867D03*
X102344021Y-137601867D03*
X102344021Y-136331867D03*
X107744021Y-136331867D03*
X107744021Y-137601867D03*
X107744021Y-138871867D03*
X107744021Y-140141867D03*
D20*
X107253722Y-129620894D03*
X106753722Y-129620894D03*
X106253722Y-129620894D03*
X105753722Y-129620894D03*
X105253722Y-129620894D03*
X105253722Y-125340894D03*
X105753722Y-125340894D03*
X106253722Y-125340894D03*
X106753722Y-125340894D03*
X107253722Y-125340894D03*
D18*
X138158722Y-123030894D03*
X136888722Y-123030894D03*
X135618722Y-123030894D03*
X134348722Y-123030894D03*
X134348722Y-128430894D03*
X135618722Y-128430894D03*
X136888722Y-128430894D03*
X138158722Y-128430894D03*
D21*
X125052500Y-133000000D03*
X125052500Y-131730000D03*
X125052500Y-130460000D03*
X125052500Y-134270000D03*
X125052500Y-135540000D03*
D22*
X123540000Y-128947500D03*
X122270000Y-128947500D03*
X121000000Y-128947500D03*
X119730000Y-128947500D03*
X118460000Y-128947500D03*
D21*
X116947500Y-130460000D03*
X116947500Y-131730000D03*
X116947500Y-133000000D03*
X116947500Y-134270000D03*
X116947500Y-135540000D03*
D22*
X118460000Y-137052500D03*
X119730000Y-137052500D03*
X121000000Y-137052500D03*
X122270000Y-137052500D03*
X123540000Y-137052500D03*
D13*
X123425000Y-157359203D03*
X125475000Y-157359203D03*
D15*
X129175000Y-147500000D03*
X131225000Y-147500000D03*
X129425000Y-157400000D03*
X127375000Y-157400000D03*
X129175000Y-149500000D03*
X131225000Y-149500000D03*
D19*
X129016403Y-155289202D03*
X129016403Y-154019202D03*
X129016403Y-152749202D03*
X129016403Y-151479202D03*
X123616403Y-151479202D03*
X123616403Y-152749202D03*
X123616403Y-154019202D03*
X123616403Y-155289202D03*
D12*
X129250000Y-172275000D03*
X129250000Y-170225000D03*
D23*
X102000000Y-155500000D03*
D24*
X99460000Y-155500000D03*
X96920000Y-155500000D03*
X94380000Y-155500000D03*
X91840000Y-155500000D03*
X89300000Y-155500000D03*
D25*
X124775000Y-171540000D03*
X124775000Y-169000000D03*
X124775000Y-166460000D03*
D26*
X115625000Y-169000000D03*
D27*
X132750000Y-157500000D03*
X108250000Y-129000000D03*
X102250000Y-141500000D03*
X127000000Y-134250000D03*
X139750000Y-128430894D03*
X139250000Y-120250000D03*
X122000000Y-157400000D03*
X104250000Y-125340894D03*
X112500000Y-138750000D03*
X127000000Y-131710000D03*
X102250000Y-135000000D03*
X133000000Y-123000000D03*
X140500000Y-123250000D03*
X79500000Y-120250000D03*
X90250000Y-120303661D03*
X101250000Y-120303661D03*
X125500000Y-124500000D03*
X125475000Y-155400000D03*
X118500000Y-143000000D03*
X97250000Y-150250000D03*
X124750000Y-164850000D03*
X125500000Y-164850000D03*
X124000000Y-164850000D03*
X115500000Y-162500000D03*
X114500000Y-162500000D03*
X116500000Y-162500000D03*
X72361208Y-118750000D03*
X83000000Y-118750000D03*
X94000000Y-118750000D03*
X99275000Y-150250000D03*
X127000000Y-143000000D03*
X74500000Y-127500000D03*
X84000000Y-125750000D03*
X95250000Y-125750000D03*
X107500000Y-169500000D03*
D28*
X94000000Y-120225000D02*
X96127547Y-120225000D01*
X94000000Y-120225000D02*
X94000000Y-118750000D01*
D29*
X118500000Y-143000000D02*
X119975000Y-143000000D01*
X112500000Y-137667846D02*
X112319021Y-137486867D01*
X112500000Y-138750000D02*
X112500000Y-137667846D01*
X112500000Y-139805888D02*
X112319021Y-139986867D01*
X112500000Y-138750000D02*
X112500000Y-139805888D01*
D30*
X107744021Y-140141867D02*
X107744021Y-138871867D01*
X108269021Y-141474867D02*
X107744021Y-140949867D01*
X107744021Y-140949867D02*
X107744021Y-140141867D01*
X107744021Y-136331867D02*
X102344021Y-136331867D01*
D28*
X72361208Y-120225000D02*
X72361208Y-118750000D01*
D29*
X78319869Y-120250000D02*
X78266208Y-120303661D01*
X79500000Y-120250000D02*
X78319869Y-120250000D01*
D28*
X78266208Y-121459661D02*
X78266208Y-120303661D01*
X83000000Y-120225000D02*
X83000000Y-118750000D01*
X89016208Y-120303661D02*
X90250000Y-120303661D01*
X100016208Y-120303661D02*
X101250000Y-120303661D01*
X100016208Y-121459661D02*
X100016208Y-120303661D01*
D29*
X106753722Y-128253722D02*
X106753722Y-129620894D01*
D28*
X105750000Y-112996278D02*
X105750000Y-118225000D01*
X134317828Y-123000000D02*
X134348722Y-123030894D01*
X133000000Y-123000000D02*
X134317828Y-123000000D01*
D29*
X107253722Y-129620894D02*
X107253722Y-132478722D01*
X107253722Y-132478722D02*
X107275000Y-132500000D01*
X108725000Y-128525000D02*
X107629106Y-129620894D01*
X107629106Y-129620894D02*
X107253722Y-129620894D01*
X110000000Y-128525000D02*
X108725000Y-128525000D01*
D30*
X102250000Y-141500000D02*
X102250000Y-140235888D01*
X102250000Y-140235888D02*
X102344021Y-140141867D01*
D28*
X127000000Y-134250000D02*
X125072500Y-134250000D01*
X125072500Y-134250000D02*
X125052500Y-134270000D01*
D30*
X100569021Y-140011867D02*
X100699021Y-140141867D01*
X100699021Y-140141867D02*
X102344021Y-140141867D01*
X99044021Y-140011867D02*
X100569021Y-140011867D01*
D28*
X139250000Y-120250000D02*
X137794106Y-120250000D01*
X137794106Y-120250000D02*
X137775000Y-120230894D01*
X139750000Y-128430894D02*
X138158722Y-128430894D01*
X140503722Y-127746278D02*
X139819106Y-128430894D01*
X139819106Y-128430894D02*
X139750000Y-128430894D01*
X140503722Y-126755894D02*
X140503722Y-127746278D01*
X123425000Y-155480605D02*
X123616403Y-155289202D01*
X123425000Y-157359203D02*
X123425000Y-155480605D01*
X123400000Y-157384203D02*
X123425000Y-157359203D01*
X128515000Y-166460000D02*
X129250000Y-165725000D01*
X124775000Y-166460000D02*
X126500000Y-166460000D01*
D29*
X106500000Y-128000000D02*
X106753722Y-128253722D01*
X105253722Y-129620894D02*
X105253722Y-128000000D01*
X105253722Y-128000000D02*
X105253722Y-126750000D01*
X105253722Y-128000000D02*
X106500000Y-128000000D01*
X105253722Y-126750000D02*
X105253722Y-126250000D01*
X105478722Y-126475000D02*
X105478722Y-126525000D01*
X105478722Y-126525000D02*
X105253722Y-126750000D01*
X105253722Y-126250000D02*
X105253722Y-125340894D01*
X110000000Y-126475000D02*
X105478722Y-126475000D01*
X105478722Y-126475000D02*
X105253722Y-126250000D01*
X105253722Y-125340894D02*
X105753722Y-125340894D01*
D30*
X102250000Y-135000000D02*
X102250000Y-136237846D01*
X102250000Y-136237846D02*
X102344021Y-136331867D01*
X125500000Y-124500000D02*
X125500000Y-122784266D01*
X125500000Y-122784266D02*
X125525000Y-122759266D01*
X132750000Y-133525000D02*
X128815000Y-133525000D01*
X128815000Y-133525000D02*
X127000000Y-131710000D01*
D28*
X127000000Y-131710000D02*
X125072500Y-131710000D01*
X125072500Y-131710000D02*
X125052500Y-131730000D01*
D30*
X100929021Y-137601867D02*
X100569021Y-137961867D01*
X100569021Y-137961867D02*
X99044021Y-137961867D01*
X102344021Y-137601867D02*
X100929021Y-137601867D01*
X102344021Y-136331867D02*
X102344021Y-137601867D01*
D28*
X140503722Y-124705894D02*
X140503722Y-123253722D01*
X140503722Y-123253722D02*
X140500000Y-123250000D01*
X120000000Y-143025000D02*
X122500000Y-143025000D01*
X94000000Y-122275000D02*
X99200869Y-122275000D01*
X99200869Y-122275000D02*
X100016208Y-121459661D01*
X83000000Y-122275000D02*
X88200869Y-122275000D01*
X88200869Y-122275000D02*
X89016208Y-121459661D01*
X89016208Y-121459661D02*
X89016208Y-120303661D01*
X72361208Y-122275000D02*
X77450869Y-122275000D01*
X77450869Y-122275000D02*
X78266208Y-121459661D01*
X123616403Y-151479202D02*
X123616403Y-152749202D01*
X127860403Y-151479202D02*
X123616403Y-151479202D01*
X129016403Y-151479202D02*
X127860403Y-151479202D01*
X125475000Y-156559203D02*
X125475000Y-157359203D01*
X125475000Y-153451799D02*
X125475000Y-155400000D01*
X124772403Y-152749202D02*
X125475000Y-153451799D01*
X123616403Y-152749202D02*
X124772403Y-152749202D01*
X125475000Y-155400000D02*
X125475000Y-156559203D01*
X96920000Y-152305000D02*
X97225000Y-152000000D01*
X96920000Y-155500000D02*
X96920000Y-152305000D01*
X97250000Y-151975000D02*
X97225000Y-152000000D01*
X97250000Y-150250000D02*
X97250000Y-151725000D01*
X134348722Y-123030894D02*
X134348722Y-116348722D01*
X133000000Y-115000000D02*
X133000000Y-112750000D01*
X134348722Y-116348722D02*
X133000000Y-115000000D01*
X129175000Y-151320605D02*
X129016403Y-151479202D01*
X129175000Y-149500000D02*
X129175000Y-151320605D01*
X129175000Y-147500000D02*
X129175000Y-149500000D01*
X124775000Y-169000000D02*
X129250000Y-169000000D01*
X129250000Y-167775000D02*
X129250000Y-169000000D01*
X129250000Y-169000000D02*
X129250000Y-170225000D01*
X122094000Y-169000000D02*
X115625000Y-169000000D01*
X124775000Y-169000000D02*
X122094000Y-169000000D01*
X126500000Y-166460000D02*
X128515000Y-166460000D01*
X124000000Y-164850000D02*
X124750000Y-164850000D01*
X124750000Y-164850000D02*
X125500000Y-164850000D01*
X124750000Y-166435000D02*
X124775000Y-166460000D01*
X124750000Y-164850000D02*
X124750000Y-166435000D01*
X123384203Y-157400000D02*
X123425000Y-157359203D01*
X122000000Y-157400000D02*
X123384203Y-157400000D01*
X115500000Y-168875000D02*
X115625000Y-169000000D01*
X115500000Y-162500000D02*
X115500000Y-168875000D01*
X116500000Y-162500000D02*
X115500000Y-162500000D01*
X114500000Y-162500000D02*
X115500000Y-162500000D01*
D31*
X118720000Y-172095000D02*
X115625000Y-169000000D01*
X118720000Y-181200000D02*
X118720000Y-172095000D01*
D29*
X105253722Y-125340894D02*
X104250000Y-125340894D01*
D28*
X83000000Y-120225000D02*
X85127547Y-120225000D01*
X96127547Y-120225000D02*
X96206208Y-120303661D01*
X85127547Y-120225000D02*
X85206208Y-120303661D01*
X74456208Y-120303661D02*
X72439869Y-120303661D01*
X99460000Y-152185000D02*
X99275000Y-152000000D01*
X99460000Y-155500000D02*
X99460000Y-152185000D01*
X99275000Y-150250000D02*
X99275000Y-151750000D01*
X118975000Y-123975000D02*
X119730000Y-124730000D01*
X119730000Y-124730000D02*
X119730000Y-128947500D01*
X118975000Y-122759266D02*
X118975000Y-123975000D01*
X120500000Y-120357149D02*
X118975000Y-121882149D01*
X118975000Y-121882149D02*
X118975000Y-122759266D01*
X123475000Y-124025000D02*
X122270000Y-125230000D01*
X122270000Y-125230000D02*
X122270000Y-128947500D01*
X123475000Y-122759266D02*
X123475000Y-124025000D01*
X121025000Y-122759266D02*
X123475000Y-122759266D01*
X123475000Y-122759266D02*
X123475000Y-120813661D01*
X123475000Y-120813661D02*
X123018488Y-120357149D01*
X122270000Y-139270000D02*
X122500000Y-139500000D01*
X122500000Y-139500000D02*
X122500000Y-140975000D01*
X122270000Y-137052500D02*
X122270000Y-139270000D01*
X125000000Y-140975000D02*
X122500000Y-140975000D01*
X119730000Y-139230000D02*
X120000000Y-139500000D01*
X120000000Y-139500000D02*
X120000000Y-140975000D01*
X119730000Y-137052500D02*
X119730000Y-139230000D01*
X107744021Y-137601867D02*
X110154021Y-137601867D01*
X110154021Y-137601867D02*
X110269021Y-137486867D01*
X110269021Y-136686867D02*
X110269021Y-137486867D01*
X110269021Y-135730979D02*
X110269021Y-136686867D01*
X111730000Y-134270000D02*
X110269021Y-135730979D01*
X116947500Y-134270000D02*
X111730000Y-134270000D01*
D29*
X105978722Y-122730894D02*
X105978722Y-123530894D01*
X105978722Y-123530894D02*
X106753722Y-124305894D01*
X106753722Y-124305894D02*
X106753722Y-124437694D01*
X106753722Y-124437694D02*
X106753722Y-125340894D01*
D28*
X105978722Y-122730894D02*
X105978722Y-120503722D01*
X105978722Y-120503722D02*
X105750000Y-120275000D01*
D29*
X108028722Y-122730894D02*
X108028722Y-124909094D01*
X108028722Y-124909094D02*
X107596922Y-125340894D01*
X107596922Y-125340894D02*
X107253722Y-125340894D01*
D28*
X108028722Y-122730894D02*
X108028722Y-120496278D01*
X108028722Y-120496278D02*
X108250000Y-120275000D01*
X135228722Y-131480894D02*
X132755894Y-131480894D01*
X132755894Y-131480894D02*
X132750000Y-131475000D01*
X135228722Y-131480894D02*
X135228722Y-133980894D01*
X135618722Y-129881278D02*
X135228722Y-130271278D01*
X135228722Y-130271278D02*
X135228722Y-131480894D01*
X135618722Y-128430894D02*
X135618722Y-129881278D01*
D30*
X141715001Y-148255001D02*
X140207001Y-148255001D01*
X140207001Y-148255001D02*
X137278722Y-145326722D01*
X137278722Y-145326722D02*
X137278722Y-134780894D01*
X137278722Y-134780894D02*
X137278722Y-133980894D01*
D28*
X137278722Y-131480894D02*
X137278722Y-133980894D01*
X136888722Y-129638722D02*
X137278722Y-130028722D01*
X137278722Y-130028722D02*
X137278722Y-131480894D01*
X136888722Y-128430894D02*
X136888722Y-129638722D01*
D30*
X127000000Y-143000000D02*
X125025000Y-143000000D01*
X125025000Y-143000000D02*
X125000000Y-143025000D01*
D28*
X128515000Y-171540000D02*
X129250000Y-172275000D01*
X124775000Y-171540000D02*
X128515000Y-171540000D01*
X129525000Y-157500000D02*
X129425000Y-157400000D01*
X132750000Y-157500000D02*
X129525000Y-157500000D01*
X132750000Y-157500000D02*
X132750000Y-171000000D01*
X131475000Y-172275000D02*
X129250000Y-172275000D01*
X132750000Y-171000000D02*
X131475000Y-172275000D01*
D31*
X123800000Y-172515000D02*
X124775000Y-171540000D01*
X123800000Y-181200000D02*
X123800000Y-172515000D01*
D28*
X94500000Y-112753661D02*
X96381000Y-112753661D01*
X96381000Y-112753661D02*
X97476208Y-113848869D01*
X97476208Y-113848869D02*
X97476208Y-119147661D01*
X97476208Y-119147661D02*
X97476208Y-120303661D01*
X99580000Y-112753661D02*
X99580000Y-114874981D01*
X99580000Y-114874981D02*
X98746208Y-115708773D01*
X98746208Y-115708773D02*
X98746208Y-119147661D01*
X98746208Y-119147661D02*
X98746208Y-120303661D01*
X87746208Y-119147661D02*
X87746208Y-120303661D01*
X87746208Y-115708773D02*
X87746208Y-119147661D01*
X88580000Y-114874981D02*
X87746208Y-115708773D01*
X88580000Y-112753661D02*
X88580000Y-114874981D01*
X86476208Y-119147661D02*
X86476208Y-120303661D01*
X86476208Y-113848869D02*
X86476208Y-119147661D01*
X85381000Y-112753661D02*
X86476208Y-113848869D01*
X83500000Y-112753661D02*
X85381000Y-112753661D01*
X76996208Y-115455112D02*
X76996208Y-119147661D01*
X76996208Y-119147661D02*
X76996208Y-120303661D01*
X77580000Y-114871320D02*
X76996208Y-115455112D01*
X77580000Y-112750000D02*
X77580000Y-114871320D01*
X75726208Y-119147661D02*
X75726208Y-120303661D01*
X75726208Y-114095208D02*
X75726208Y-119147661D01*
X74381000Y-112750000D02*
X75726208Y-114095208D01*
X72500000Y-112750000D02*
X74381000Y-112750000D01*
X121750000Y-112750000D02*
X121750000Y-117057149D01*
X121750000Y-117057149D02*
X120500000Y-118307149D01*
X126830000Y-114871320D02*
X125701320Y-116000000D01*
X126830000Y-112750000D02*
X126830000Y-114871320D01*
X125701320Y-116000000D02*
X124200000Y-116000000D01*
X123018488Y-117181512D02*
X123018488Y-118307149D01*
X124200000Y-116000000D02*
X123018488Y-117181512D01*
X105750000Y-112996278D02*
X105503722Y-112750000D01*
X108250000Y-116750000D02*
X109500000Y-115500000D01*
X108250000Y-118225000D02*
X108250000Y-116750000D01*
X109500000Y-115500000D02*
X112913722Y-115500000D01*
X112913722Y-115500000D02*
X113413722Y-115000000D01*
X113413722Y-115000000D02*
X115663722Y-112750000D01*
X138080000Y-112750000D02*
X135725000Y-115105000D01*
X135725000Y-115105000D02*
X135725000Y-120230894D01*
X135975000Y-120230894D02*
X135618722Y-120587172D01*
X135618722Y-120587172D02*
X135618722Y-123030894D01*
X134000000Y-145500000D02*
X139295001Y-150795001D01*
X139295001Y-150795001D02*
X141715001Y-150795001D01*
D30*
X110269021Y-139986867D02*
X110269021Y-142436867D01*
X110269021Y-142436867D02*
X110319021Y-142486867D01*
D28*
X134000000Y-145500000D02*
X112000000Y-145500000D01*
X110319021Y-143819021D02*
X110319021Y-142486867D01*
X112000000Y-145500000D02*
X110319021Y-143819021D01*
D30*
X108269021Y-141474867D02*
X108269021Y-142486867D01*
D28*
X74516001Y-176195001D02*
X79000000Y-171711002D01*
X85500000Y-132500000D02*
X105225000Y-132500000D01*
X79000000Y-171711002D02*
X79000000Y-139000000D01*
X79000000Y-139000000D02*
X85500000Y-132500000D01*
X73135001Y-176195001D02*
X74516001Y-176195001D01*
D29*
X105753722Y-130746278D02*
X105225000Y-131275000D01*
X105225000Y-131275000D02*
X105225000Y-132500000D01*
X105753722Y-129620894D02*
X105753722Y-130746278D01*
D28*
X74456208Y-125703661D02*
X74456208Y-127456208D01*
X74456208Y-127456208D02*
X74500000Y-127500000D01*
X85206208Y-125703661D02*
X84046339Y-125703661D01*
X84046339Y-125703661D02*
X84000000Y-125750000D01*
X96206208Y-125703661D02*
X95296339Y-125703661D01*
X95296339Y-125703661D02*
X95250000Y-125750000D01*
X77750000Y-132760078D02*
X81869068Y-128641010D01*
X77750000Y-165341002D02*
X77750000Y-132760078D01*
X74516001Y-168575001D02*
X77750000Y-165341002D01*
X96108990Y-128641010D02*
X97476208Y-127273792D01*
X97476208Y-127273792D02*
X97476208Y-125703661D01*
X81869068Y-128641010D02*
X96108990Y-128641010D01*
X73135001Y-168575001D02*
X74516001Y-168575001D01*
X75000000Y-158000000D02*
X74584999Y-158415001D01*
X75000000Y-136250000D02*
X75000000Y-158000000D01*
X73455707Y-124368260D02*
X73455707Y-134705707D01*
X73455707Y-134705707D02*
X75000000Y-136250000D01*
X77000000Y-124000000D02*
X73823967Y-124000000D01*
X73823967Y-124000000D02*
X73455707Y-124368260D01*
X74584999Y-158415001D02*
X73135001Y-158415001D01*
X87750000Y-124000000D02*
X77000000Y-124000000D01*
X98198547Y-124000000D02*
X87750000Y-124000000D01*
X87746208Y-125703661D02*
X87746208Y-124003792D01*
X87746208Y-124003792D02*
X87750000Y-124000000D01*
X76996208Y-125703661D02*
X76996208Y-124003792D01*
X76996208Y-124003792D02*
X77000000Y-124000000D01*
X98746208Y-125703661D02*
X98746208Y-124547661D01*
X98746208Y-124547661D02*
X98198547Y-124000000D01*
X76782020Y-132467980D02*
X81500000Y-127750000D01*
X76782020Y-163768982D02*
X76782020Y-132467980D01*
X74516001Y-166035001D02*
X76782020Y-163768982D01*
X85585869Y-127750000D02*
X86476208Y-126859661D01*
X81500000Y-127750000D02*
X85585869Y-127750000D01*
X73135001Y-166035001D02*
X74516001Y-166035001D01*
X86476208Y-126859661D02*
X86476208Y-125703661D01*
X75891010Y-135880932D02*
X75891010Y-162108990D01*
X75726208Y-135716130D02*
X75891010Y-135880932D01*
X75726208Y-125703661D02*
X75726208Y-135716130D01*
X75891010Y-162108990D02*
X75250000Y-162750000D01*
X75250000Y-162750000D02*
X75250000Y-162761002D01*
X75250000Y-162761002D02*
X74516001Y-163495001D01*
X74516001Y-163495001D02*
X73135001Y-163495001D01*
X134348722Y-128430894D02*
X134348722Y-127274894D01*
X134348722Y-127274894D02*
X136888722Y-124734894D01*
X136888722Y-124734894D02*
X136888722Y-124186894D01*
X136888722Y-124186894D02*
X136888722Y-123030894D01*
X138158722Y-123030894D02*
X136888722Y-123030894D01*
X107500000Y-169075736D02*
X107500000Y-169500000D01*
X107500000Y-159769000D02*
X107500000Y-169075736D01*
X103231000Y-155500000D02*
X107500000Y-159769000D01*
X102000000Y-155500000D02*
X103231000Y-155500000D01*
X131225000Y-149500000D02*
X131225000Y-151775000D01*
X130250798Y-152749202D02*
X129016403Y-152749202D01*
X131225000Y-151775000D02*
X130250798Y-152749202D01*
X131225000Y-147500000D02*
X131225000Y-149500000D01*
X127375000Y-156600000D02*
X127375000Y-157400000D01*
X127375000Y-153234605D02*
X127375000Y-156600000D01*
X127860403Y-152749202D02*
X127375000Y-153234605D01*
X129016403Y-152749202D02*
X127860403Y-152749202D01*
X129016403Y-154019202D02*
X129016403Y-155289202D01*
X130980798Y-154019202D02*
X129016403Y-154019202D01*
X141715001Y-153335001D02*
X131664999Y-153335001D01*
X131664999Y-153335001D02*
X130980798Y-154019202D01*
M02*
