M48
INCH,TZ
T1C0.0157
T2C0.0394
T3C0.0400
T4C0.0598
%
G90
G05
T1
X28489Y-46752
X29331Y-50197
X31299Y-47343
X32677Y-46752
X33071Y-49508
X35531Y-47364
X37008Y-46752
X37500Y-49508
X38287Y-59154
X39085Y-59154
X39862Y-47364
X40256Y-53150
X40256Y-55709
X41043Y-49347
X42323Y-66732
X42618Y-50787
X44291Y-54626
X45079Y-63976
X45472Y-63976
X45866Y-63976
X46654Y-56299
X48031Y-61969
X48819Y-64902
X49114Y-64902
X49400Y-61181
X49409Y-49016
X49409Y-64902
X50000Y-51854
X50000Y-52854
X50000Y-56299
X52264Y-62008
X52362Y-48425
X54823Y-47343
X55020Y-50563
X55315Y-48524
T2
X35157Y-61220
X36157Y-61220
X37157Y-61220
X38157Y-61220
X39157Y-61220
X40157Y-61220
T3
X27793Y-54368
X27793Y-55368
X27793Y-56368
X27793Y-57368
X27793Y-58368
X27793Y-59368
X27793Y-60368
X27793Y-61368
X27793Y-62368
X27793Y-63368
X27793Y-64368
X27793Y-65368
X27793Y-66368
X27793Y-67368
X27793Y-68368
X27793Y-69368
X27793Y-70368
X27793Y-71368
X27793Y-72368
X27793Y-73368
X28793Y-54368
X28793Y-55368
X28793Y-56368
X28793Y-57368
X28793Y-58368
X28793Y-59368
X28793Y-60368
X28793Y-61368
X28793Y-62368
X28793Y-63368
X28793Y-64368
X28793Y-65368
X28793Y-66368
X28793Y-67368
X28793Y-68368
X28793Y-69368
X28793Y-70368
X28793Y-71368
X28793Y-72368
X28793Y-73368
X55793Y-54368
X55793Y-55368
X55793Y-56368
X55793Y-57368
X55793Y-58368
X55793Y-59368
X55793Y-60368
X55793Y-61368
X55793Y-62368
X55793Y-63368
X55793Y-64368
X55793Y-65368
X55793Y-66368
X55793Y-67368
X55793Y-68368
X55793Y-69368
X55793Y-70368
X55793Y-71368
X55793Y-72368
X55793Y-73368
X56793Y-54368
X56793Y-55368
X56793Y-56368
X56793Y-57368
X56793Y-58368
X56793Y-59368
X56793Y-60368
X56793Y-61368
X56793Y-62368
X56793Y-63368
X56793Y-64368
X56793Y-65368
X56793Y-66368
X56793Y-67368
X56793Y-68368
X56793Y-69368
X56793Y-70368
X56793Y-71368
X56793Y-72368
X56793Y-73368
T4
X28543Y-44390
X30543Y-44390
X32874Y-44391
X34874Y-44391
X37205Y-44391
X39205Y-44391
X41537Y-44390
X43537Y-44390
X45537Y-44390
X46740Y-71339
X47933Y-44390
X48740Y-71339
X49933Y-44390
X52362Y-44390
X54362Y-44390
T0
M30
