G04 #@! TF.GenerationSoftware,KiCad,Pcbnew,(6.0.1)*
G04 #@! TF.CreationDate,2022-01-24T21:39:17-03:00*
G04 #@! TF.ProjectId,ice-adq,6963652d-6164-4712-9e6b-696361645f70,1.0*
G04 #@! TF.SameCoordinates,Original*
G04 #@! TF.FileFunction,Soldermask,Bot*
G04 #@! TF.FilePolarity,Negative*
%FSLAX46Y46*%
G04 Gerber Fmt 4.6, Leading zero omitted, Abs format (unit mm)*
G04 Created by KiCad (PCBNEW (6.0.1)) date 2022-01-24 21:39:17*
%MOMM*%
%LPD*%
G01*
G04 APERTURE LIST*
%ADD10R,2.000000X1.524000*%
%ADD11O,2.000000X1.524000*%
%ADD12R,3.000000X3.000000*%
%ADD13C,3.000000*%
%ADD14R,1.700000X1.700000*%
%ADD15O,1.700000X1.700000*%
G04 APERTURE END LIST*
D10*
X141715001Y-138095001D03*
D11*
X144255001Y-138095001D03*
X141715001Y-150795001D03*
X144255001Y-140635001D03*
X141715001Y-153335001D03*
X144255001Y-143175001D03*
X141715001Y-155875001D03*
X144255001Y-145715001D03*
X141715001Y-158415001D03*
X144255001Y-148255001D03*
X141715001Y-160955001D03*
X144255001Y-150795001D03*
X141715001Y-163495001D03*
X144255001Y-153335001D03*
X141715001Y-166035001D03*
X144255001Y-155875001D03*
X141715001Y-168575001D03*
X144255001Y-158415001D03*
X141715001Y-171115001D03*
X144255001Y-160955001D03*
X141715001Y-173655001D03*
X144255001Y-163495001D03*
X141715001Y-176195001D03*
X144255001Y-166035001D03*
X144255001Y-168575001D03*
X141715001Y-178735001D03*
X144255001Y-171115001D03*
X144255001Y-176195001D03*
X144255001Y-178735001D03*
X144255001Y-181275001D03*
X144255001Y-183815001D03*
X141715001Y-181275001D03*
X141715001Y-183815001D03*
X141715001Y-140635001D03*
X141715001Y-143175001D03*
X141715001Y-145715001D03*
X141715001Y-148255001D03*
X141715001Y-186355001D03*
X144255001Y-186355001D03*
X144255001Y-173655001D03*
D10*
X70595001Y-138095001D03*
D11*
X73135001Y-138095001D03*
X70595001Y-140635001D03*
X73135001Y-140635001D03*
X70595001Y-143175001D03*
X73135001Y-143175001D03*
X70595001Y-145715001D03*
X73135001Y-145715001D03*
X70595001Y-148255001D03*
X73135001Y-148255001D03*
X70595001Y-150795001D03*
X73135001Y-150795001D03*
X70595001Y-153335001D03*
X73135001Y-153335001D03*
X70595001Y-155875001D03*
X73135001Y-155875001D03*
X70595001Y-158415001D03*
X73135001Y-158415001D03*
X70595001Y-160955001D03*
X73135001Y-160955001D03*
X70595001Y-163495001D03*
X73135001Y-163495001D03*
X70595001Y-166035001D03*
X73135001Y-166035001D03*
X70595001Y-168575001D03*
X73135001Y-168575001D03*
X70595001Y-171115001D03*
X73135001Y-171115001D03*
X70595001Y-173655001D03*
X73135001Y-173655001D03*
X70595001Y-176195001D03*
X73135001Y-176195001D03*
X70595001Y-178735001D03*
X73135001Y-178735001D03*
X70595001Y-181275001D03*
X73135001Y-181275001D03*
X70595001Y-183815001D03*
X73135001Y-183815001D03*
X70595001Y-186355001D03*
X73135001Y-186355001D03*
D12*
X94500000Y-112753661D03*
D13*
X99580000Y-112753661D03*
X88580000Y-112753661D03*
D12*
X83500000Y-112753661D03*
D13*
X77580000Y-112750000D03*
D12*
X72500000Y-112750000D03*
X121750000Y-112750000D03*
D13*
X126830000Y-112750000D03*
D12*
X105503722Y-112750000D03*
D13*
X110583722Y-112750000D03*
X115663722Y-112750000D03*
X138080000Y-112750000D03*
D12*
X133000000Y-112750000D03*
X123800000Y-181200000D03*
D13*
X118720000Y-181200000D03*
D14*
X102000000Y-155500000D03*
D15*
X99460000Y-155500000D03*
X96920000Y-155500000D03*
X94380000Y-155500000D03*
X91840000Y-155500000D03*
X89300000Y-155500000D03*
M02*
