G04 #@! TF.GenerationSoftware,KiCad,Pcbnew,(6.0.1)*
G04 #@! TF.CreationDate,2022-01-24T21:39:17-03:00*
G04 #@! TF.ProjectId,ice-adq,6963652d-6164-4712-9e6b-696361645f70,1.0*
G04 #@! TF.SameCoordinates,Original*
G04 #@! TF.FileFunction,Copper,L4,Bot*
G04 #@! TF.FilePolarity,Positive*
%FSLAX46Y46*%
G04 Gerber Fmt 4.6, Leading zero omitted, Abs format (unit mm)*
G04 Created by KiCad (PCBNEW (6.0.1)) date 2022-01-24 21:39:17*
%MOMM*%
%LPD*%
G01*
G04 APERTURE LIST*
G04 #@! TA.AperFunction,ComponentPad*
%ADD10R,2.000000X1.524000*%
G04 #@! TD*
G04 #@! TA.AperFunction,ComponentPad*
%ADD11O,2.000000X1.524000*%
G04 #@! TD*
G04 #@! TA.AperFunction,ComponentPad*
%ADD12R,3.000000X3.000000*%
G04 #@! TD*
G04 #@! TA.AperFunction,ComponentPad*
%ADD13C,3.000000*%
G04 #@! TD*
G04 #@! TA.AperFunction,ComponentPad*
%ADD14R,1.700000X1.700000*%
G04 #@! TD*
G04 #@! TA.AperFunction,ComponentPad*
%ADD15O,1.700000X1.700000*%
G04 #@! TD*
G04 #@! TA.AperFunction,ViaPad*
%ADD16C,0.600000*%
G04 #@! TD*
G04 #@! TA.AperFunction,Conductor*
%ADD17C,0.600000*%
G04 #@! TD*
G04 #@! TA.AperFunction,Conductor*
%ADD18C,0.381000*%
G04 #@! TD*
G04 APERTURE END LIST*
D10*
X141715001Y-138095001D03*
D11*
X144255001Y-138095001D03*
X141715001Y-150795001D03*
X144255001Y-140635001D03*
X141715001Y-153335001D03*
X144255001Y-143175001D03*
X141715001Y-155875001D03*
X144255001Y-145715001D03*
X141715001Y-158415001D03*
X144255001Y-148255001D03*
X141715001Y-160955001D03*
X144255001Y-150795001D03*
X141715001Y-163495001D03*
X144255001Y-153335001D03*
X141715001Y-166035001D03*
X144255001Y-155875001D03*
X141715001Y-168575001D03*
X144255001Y-158415001D03*
X141715001Y-171115001D03*
X144255001Y-160955001D03*
X141715001Y-173655001D03*
X144255001Y-163495001D03*
X141715001Y-176195001D03*
X144255001Y-166035001D03*
X144255001Y-168575001D03*
X141715001Y-178735001D03*
X144255001Y-171115001D03*
X144255001Y-176195001D03*
X144255001Y-178735001D03*
X144255001Y-181275001D03*
X144255001Y-183815001D03*
X141715001Y-181275001D03*
X141715001Y-183815001D03*
X141715001Y-140635001D03*
X141715001Y-143175001D03*
X141715001Y-145715001D03*
X141715001Y-148255001D03*
X141715001Y-186355001D03*
X144255001Y-186355001D03*
X144255001Y-173655001D03*
D10*
X70595001Y-138095001D03*
D11*
X73135001Y-138095001D03*
X70595001Y-140635001D03*
X73135001Y-140635001D03*
X70595001Y-143175001D03*
X73135001Y-143175001D03*
X70595001Y-145715001D03*
X73135001Y-145715001D03*
X70595001Y-148255001D03*
X73135001Y-148255001D03*
X70595001Y-150795001D03*
X73135001Y-150795001D03*
X70595001Y-153335001D03*
X73135001Y-153335001D03*
X70595001Y-155875001D03*
X73135001Y-155875001D03*
X70595001Y-158415001D03*
X73135001Y-158415001D03*
X70595001Y-160955001D03*
X73135001Y-160955001D03*
X70595001Y-163495001D03*
X73135001Y-163495001D03*
X70595001Y-166035001D03*
X73135001Y-166035001D03*
X70595001Y-168575001D03*
X73135001Y-168575001D03*
X70595001Y-171115001D03*
X73135001Y-171115001D03*
X70595001Y-173655001D03*
X73135001Y-173655001D03*
X70595001Y-176195001D03*
X73135001Y-176195001D03*
X70595001Y-178735001D03*
X73135001Y-178735001D03*
X70595001Y-181275001D03*
X73135001Y-181275001D03*
X70595001Y-183815001D03*
X73135001Y-183815001D03*
X70595001Y-186355001D03*
X73135001Y-186355001D03*
D12*
X94500000Y-112753661D03*
D13*
X99580000Y-112753661D03*
X88580000Y-112753661D03*
D12*
X83500000Y-112753661D03*
D13*
X77580000Y-112750000D03*
D12*
X72500000Y-112750000D03*
X121750000Y-112750000D03*
D13*
X126830000Y-112750000D03*
D12*
X105503722Y-112750000D03*
D13*
X110583722Y-112750000D03*
X115663722Y-112750000D03*
X138080000Y-112750000D03*
D12*
X133000000Y-112750000D03*
X123800000Y-181200000D03*
D13*
X118720000Y-181200000D03*
D14*
X102000000Y-155500000D03*
D15*
X99460000Y-155500000D03*
X96920000Y-155500000D03*
X94380000Y-155500000D03*
X91840000Y-155500000D03*
X89300000Y-155500000D03*
D16*
X132750000Y-157500000D03*
X108250000Y-129000000D03*
X102250000Y-141500000D03*
X127000000Y-134250000D03*
X139750000Y-128430894D03*
X139250000Y-120250000D03*
X122000000Y-157400000D03*
X104250000Y-125340894D03*
X112500000Y-138750000D03*
X127000000Y-131710000D03*
X102250000Y-135000000D03*
X133000000Y-123000000D03*
X140500000Y-123250000D03*
X79500000Y-120250000D03*
X90250000Y-120303661D03*
X101250000Y-120303661D03*
X125500000Y-124500000D03*
X125475000Y-155400000D03*
X118500000Y-143000000D03*
X97250000Y-150250000D03*
X124750000Y-164850000D03*
X125500000Y-164850000D03*
X124000000Y-164850000D03*
X115500000Y-162500000D03*
X114500000Y-162500000D03*
X116500000Y-162500000D03*
X72361208Y-118750000D03*
X83000000Y-118750000D03*
X94000000Y-118750000D03*
X99275000Y-150250000D03*
X127000000Y-143000000D03*
X74500000Y-127500000D03*
X84000000Y-125750000D03*
X95250000Y-125750000D03*
X107500000Y-169500000D03*
D17*
X94380000Y-157130000D02*
X94380000Y-155500000D01*
X141715001Y-166035001D02*
X103285001Y-166035001D01*
X103285001Y-166035001D02*
X94380000Y-157130000D01*
X91840000Y-157090000D02*
X91840000Y-155500000D01*
X103325001Y-168575001D02*
X91840000Y-157090000D01*
X141715001Y-168575001D02*
X103325001Y-168575001D01*
X141715001Y-171115001D02*
X109115001Y-171115001D01*
X109115001Y-171115001D02*
X107500000Y-169500000D01*
D18*
X71000000Y-118750000D02*
X70595001Y-119154999D01*
X70595001Y-119154999D02*
X70595001Y-138095001D01*
X72361208Y-118750000D02*
X71000000Y-118750000D01*
X83000000Y-118750000D02*
X72361208Y-118750000D01*
X94000000Y-118750000D02*
X83000000Y-118750000D01*
X99275000Y-123775000D02*
X99275000Y-150250000D01*
X94000000Y-118750000D02*
X99275000Y-124025000D01*
X127424264Y-143000000D02*
X127000000Y-143000000D01*
X129750000Y-143000000D02*
X127424264Y-143000000D01*
X132750000Y-157500000D02*
X132750000Y-146000000D01*
X132750000Y-146000000D02*
X129750000Y-143000000D01*
X74500000Y-135500000D02*
X75500000Y-136500000D01*
X74500000Y-127500000D02*
X74500000Y-135500000D01*
X75500000Y-136500000D02*
X75500000Y-160000000D01*
X75500000Y-160000000D02*
X74544999Y-160955001D01*
X74544999Y-160955001D02*
X73135001Y-160955001D01*
X84000000Y-125750000D02*
X76250000Y-125750000D01*
X76250000Y-125750000D02*
X74500000Y-127500000D01*
X95250000Y-125750000D02*
X94825736Y-125750000D01*
X94825736Y-125750000D02*
X84000000Y-125750000D01*
M02*
