G04 #@! TF.GenerationSoftware,KiCad,Pcbnew,(6.0.1)*
G04 #@! TF.CreationDate,2022-01-24T21:39:17-03:00*
G04 #@! TF.ProjectId,ice-adq,6963652d-6164-4712-9e6b-696361645f70,1.0*
G04 #@! TF.SameCoordinates,Original*
G04 #@! TF.FileFunction,Copper,L2,Inr*
G04 #@! TF.FilePolarity,Positive*
%FSLAX46Y46*%
G04 Gerber Fmt 4.6, Leading zero omitted, Abs format (unit mm)*
G04 Created by KiCad (PCBNEW (6.0.1)) date 2022-01-24 21:39:17*
%MOMM*%
%LPD*%
G01*
G04 APERTURE LIST*
G04 #@! TA.AperFunction,ComponentPad*
%ADD10R,2.000000X1.524000*%
G04 #@! TD*
G04 #@! TA.AperFunction,ComponentPad*
%ADD11O,2.000000X1.524000*%
G04 #@! TD*
G04 #@! TA.AperFunction,ComponentPad*
%ADD12R,3.000000X3.000000*%
G04 #@! TD*
G04 #@! TA.AperFunction,ComponentPad*
%ADD13C,3.000000*%
G04 #@! TD*
G04 #@! TA.AperFunction,ComponentPad*
%ADD14R,1.700000X1.700000*%
G04 #@! TD*
G04 #@! TA.AperFunction,ComponentPad*
%ADD15O,1.700000X1.700000*%
G04 #@! TD*
G04 #@! TA.AperFunction,ViaPad*
%ADD16C,0.600000*%
G04 #@! TD*
G04 APERTURE END LIST*
D10*
X141715001Y-138095001D03*
D11*
X144255001Y-138095001D03*
X141715001Y-150795001D03*
X144255001Y-140635001D03*
X141715001Y-153335001D03*
X144255001Y-143175001D03*
X141715001Y-155875001D03*
X144255001Y-145715001D03*
X141715001Y-158415001D03*
X144255001Y-148255001D03*
X141715001Y-160955001D03*
X144255001Y-150795001D03*
X141715001Y-163495001D03*
X144255001Y-153335001D03*
X141715001Y-166035001D03*
X144255001Y-155875001D03*
X141715001Y-168575001D03*
X144255001Y-158415001D03*
X141715001Y-171115001D03*
X144255001Y-160955001D03*
X141715001Y-173655001D03*
X144255001Y-163495001D03*
X141715001Y-176195001D03*
X144255001Y-166035001D03*
X144255001Y-168575001D03*
X141715001Y-178735001D03*
X144255001Y-171115001D03*
X144255001Y-176195001D03*
X144255001Y-178735001D03*
X144255001Y-181275001D03*
X144255001Y-183815001D03*
X141715001Y-181275001D03*
X141715001Y-183815001D03*
X141715001Y-140635001D03*
X141715001Y-143175001D03*
X141715001Y-145715001D03*
X141715001Y-148255001D03*
X141715001Y-186355001D03*
X144255001Y-186355001D03*
X144255001Y-173655001D03*
D10*
X70595001Y-138095001D03*
D11*
X73135001Y-138095001D03*
X70595001Y-140635001D03*
X73135001Y-140635001D03*
X70595001Y-143175001D03*
X73135001Y-143175001D03*
X70595001Y-145715001D03*
X73135001Y-145715001D03*
X70595001Y-148255001D03*
X73135001Y-148255001D03*
X70595001Y-150795001D03*
X73135001Y-150795001D03*
X70595001Y-153335001D03*
X73135001Y-153335001D03*
X70595001Y-155875001D03*
X73135001Y-155875001D03*
X70595001Y-158415001D03*
X73135001Y-158415001D03*
X70595001Y-160955001D03*
X73135001Y-160955001D03*
X70595001Y-163495001D03*
X73135001Y-163495001D03*
X70595001Y-166035001D03*
X73135001Y-166035001D03*
X70595001Y-168575001D03*
X73135001Y-168575001D03*
X70595001Y-171115001D03*
X73135001Y-171115001D03*
X70595001Y-173655001D03*
X73135001Y-173655001D03*
X70595001Y-176195001D03*
X73135001Y-176195001D03*
X70595001Y-178735001D03*
X73135001Y-178735001D03*
X70595001Y-181275001D03*
X73135001Y-181275001D03*
X70595001Y-183815001D03*
X73135001Y-183815001D03*
X70595001Y-186355001D03*
X73135001Y-186355001D03*
D12*
X94500000Y-112753661D03*
D13*
X99580000Y-112753661D03*
X88580000Y-112753661D03*
D12*
X83500000Y-112753661D03*
D13*
X77580000Y-112750000D03*
D12*
X72500000Y-112750000D03*
X121750000Y-112750000D03*
D13*
X126830000Y-112750000D03*
D12*
X105503722Y-112750000D03*
D13*
X110583722Y-112750000D03*
X115663722Y-112750000D03*
X138080000Y-112750000D03*
D12*
X133000000Y-112750000D03*
X123800000Y-181200000D03*
D13*
X118720000Y-181200000D03*
D14*
X102000000Y-155500000D03*
D15*
X99460000Y-155500000D03*
X96920000Y-155500000D03*
X94380000Y-155500000D03*
X91840000Y-155500000D03*
X89300000Y-155500000D03*
D16*
X132750000Y-157500000D03*
X108250000Y-129000000D03*
X102250000Y-141500000D03*
X127000000Y-134250000D03*
X139750000Y-128430894D03*
X139250000Y-120250000D03*
X122000000Y-157400000D03*
X104250000Y-125340894D03*
X112500000Y-138750000D03*
X127000000Y-131710000D03*
X102250000Y-135000000D03*
X133000000Y-123000000D03*
X140500000Y-123250000D03*
X79500000Y-120250000D03*
X90250000Y-120303661D03*
X101250000Y-120303661D03*
X125500000Y-124500000D03*
X125475000Y-155400000D03*
X118500000Y-143000000D03*
X97250000Y-150250000D03*
X124750000Y-164850000D03*
X125500000Y-164850000D03*
X124000000Y-164850000D03*
X115500000Y-162500000D03*
X114500000Y-162500000D03*
X116500000Y-162500000D03*
X72361208Y-118750000D03*
X83000000Y-118750000D03*
X94000000Y-118750000D03*
X99275000Y-150250000D03*
X127000000Y-143000000D03*
X74500000Y-127500000D03*
X84000000Y-125750000D03*
X95250000Y-125750000D03*
X107500000Y-169500000D03*
G04 #@! TA.AperFunction,Conductor*
G36*
X149434121Y-106528002D02*
G01*
X149480614Y-106581658D01*
X149492000Y-106634000D01*
X149492000Y-189366000D01*
X149471998Y-189434121D01*
X149418342Y-189480614D01*
X149366000Y-189492000D01*
X104126000Y-189492000D01*
X104057879Y-189471998D01*
X104011386Y-189418342D01*
X104000000Y-189366000D01*
X104000000Y-186395070D01*
X140201995Y-186395070D01*
X140229242Y-186620220D01*
X140230892Y-186625582D01*
X140230892Y-186625584D01*
X140231363Y-186627116D01*
X140295928Y-186836988D01*
X140399947Y-187038520D01*
X140538010Y-187218448D01*
X140628851Y-187301107D01*
X140701606Y-187367309D01*
X140701609Y-187367311D01*
X140705753Y-187371082D01*
X140710504Y-187374063D01*
X140710505Y-187374063D01*
X140893119Y-187488617D01*
X140893123Y-187488619D01*
X140897875Y-187491600D01*
X141108302Y-187576191D01*
X141330383Y-187622182D01*
X141334994Y-187622448D01*
X141334995Y-187622448D01*
X141386122Y-187625396D01*
X141386126Y-187625396D01*
X141387945Y-187625501D01*
X142010536Y-187625501D01*
X142013323Y-187625252D01*
X142013329Y-187625252D01*
X142083507Y-187618988D01*
X142178896Y-187610475D01*
X142397652Y-187550631D01*
X142402710Y-187548219D01*
X142402714Y-187548217D01*
X142597285Y-187455411D01*
X142597286Y-187455410D01*
X142602352Y-187452994D01*
X142607505Y-187449291D01*
X142781967Y-187323927D01*
X142781969Y-187323925D01*
X142786527Y-187320650D01*
X142892123Y-187211684D01*
X142953894Y-187176684D01*
X143024780Y-187180636D01*
X143075359Y-187214087D01*
X143082525Y-187221880D01*
X143241911Y-187366910D01*
X143250811Y-187373665D01*
X143433344Y-187488167D01*
X143443314Y-187493248D01*
X143643241Y-187573618D01*
X143653941Y-187576849D01*
X143865917Y-187620746D01*
X143875054Y-187621949D01*
X143926161Y-187624896D01*
X143929807Y-187625001D01*
X143982886Y-187625001D01*
X143998125Y-187620526D01*
X143999330Y-187619136D01*
X144001001Y-187611453D01*
X144001001Y-187606886D01*
X144509001Y-187606886D01*
X144513476Y-187622125D01*
X144514866Y-187623330D01*
X144522549Y-187625001D01*
X144547712Y-187625001D01*
X144553307Y-187624752D01*
X144713213Y-187610480D01*
X144724227Y-187608498D01*
X144932066Y-187551640D01*
X144942539Y-187547746D01*
X145137038Y-187454975D01*
X145146649Y-187449291D01*
X145321645Y-187323542D01*
X145330101Y-187316243D01*
X145480057Y-187161501D01*
X145487099Y-187152804D01*
X145607277Y-186973961D01*
X145612666Y-186964158D01*
X145699275Y-186766858D01*
X145702841Y-186756263D01*
X145733967Y-186626616D01*
X145733262Y-186612531D01*
X145724383Y-186609001D01*
X144527116Y-186609001D01*
X144511877Y-186613476D01*
X144510672Y-186614866D01*
X144509001Y-186622549D01*
X144509001Y-187606886D01*
X144001001Y-187606886D01*
X144001001Y-186082886D01*
X144509001Y-186082886D01*
X144513476Y-186098125D01*
X144514866Y-186099330D01*
X144522549Y-186101001D01*
X145723499Y-186101001D01*
X145737481Y-186096895D01*
X145739071Y-186086649D01*
X145738620Y-186084526D01*
X145675258Y-185878566D01*
X145671037Y-185868221D01*
X145572203Y-185676734D01*
X145566218Y-185667303D01*
X145435033Y-185496338D01*
X145427480Y-185488125D01*
X145268091Y-185343092D01*
X145259191Y-185336337D01*
X145076658Y-185221835D01*
X145066694Y-185216757D01*
X145027854Y-185201144D01*
X144972110Y-185157177D01*
X144948984Y-185090053D01*
X144965820Y-185021081D01*
X145020606Y-184970510D01*
X145137038Y-184914975D01*
X145146649Y-184909291D01*
X145321645Y-184783542D01*
X145330101Y-184776243D01*
X145480057Y-184621501D01*
X145487099Y-184612804D01*
X145607277Y-184433961D01*
X145612666Y-184424158D01*
X145699275Y-184226858D01*
X145702841Y-184216263D01*
X145733967Y-184086616D01*
X145733262Y-184072531D01*
X145724383Y-184069001D01*
X144527116Y-184069001D01*
X144511877Y-184073476D01*
X144510672Y-184074866D01*
X144509001Y-184082549D01*
X144509001Y-186082886D01*
X144001001Y-186082886D01*
X144001001Y-183687001D01*
X144021003Y-183618880D01*
X144074659Y-183572387D01*
X144127001Y-183561001D01*
X145723499Y-183561001D01*
X145737481Y-183556895D01*
X145739071Y-183546649D01*
X145738620Y-183544526D01*
X145675258Y-183338566D01*
X145671037Y-183328221D01*
X145572203Y-183136734D01*
X145566218Y-183127303D01*
X145435033Y-182956338D01*
X145427480Y-182948125D01*
X145268091Y-182803092D01*
X145259191Y-182796337D01*
X145076658Y-182681835D01*
X145066688Y-182676754D01*
X145028484Y-182661396D01*
X144972740Y-182617429D01*
X144949615Y-182550304D01*
X144966452Y-182481333D01*
X145021237Y-182430763D01*
X145137285Y-182375411D01*
X145137286Y-182375410D01*
X145142352Y-182372994D01*
X145146914Y-182369716D01*
X145321967Y-182243927D01*
X145321969Y-182243925D01*
X145326527Y-182240650D01*
X145484356Y-182077784D01*
X145528071Y-182012728D01*
X145607722Y-181894196D01*
X145607725Y-181894191D01*
X145610848Y-181889543D01*
X145656411Y-181785750D01*
X145671390Y-181751627D01*
X145702008Y-181681877D01*
X145710111Y-181648123D01*
X145753641Y-181466809D01*
X145753642Y-181466803D01*
X145754951Y-181461350D01*
X145768007Y-181234932D01*
X145740760Y-181009782D01*
X145674074Y-180793014D01*
X145608308Y-180665595D01*
X145572627Y-180596465D01*
X145572627Y-180596464D01*
X145570055Y-180591482D01*
X145431992Y-180411554D01*
X145316072Y-180306075D01*
X145268396Y-180262693D01*
X145268393Y-180262691D01*
X145264249Y-180258920D01*
X145138896Y-180180286D01*
X145076883Y-180141385D01*
X145076879Y-180141383D01*
X145072127Y-180138402D01*
X145029095Y-180121103D01*
X144973352Y-180077137D01*
X144950227Y-180010012D01*
X144967064Y-179941041D01*
X145021849Y-179890471D01*
X145137285Y-179835411D01*
X145137286Y-179835410D01*
X145142352Y-179832994D01*
X145146914Y-179829716D01*
X145321967Y-179703927D01*
X145321969Y-179703925D01*
X145326527Y-179700650D01*
X145434061Y-179589684D01*
X145480453Y-179541812D01*
X145480455Y-179541809D01*
X145484356Y-179537784D01*
X145573585Y-179404997D01*
X145607722Y-179354196D01*
X145607725Y-179354191D01*
X145610848Y-179349543D01*
X145633419Y-179298127D01*
X145676042Y-179201029D01*
X145702008Y-179141877D01*
X145734729Y-179005584D01*
X145753641Y-178926809D01*
X145753642Y-178926803D01*
X145754951Y-178921350D01*
X145768007Y-178694932D01*
X145740760Y-178469782D01*
X145674074Y-178253014D01*
X145570055Y-178051482D01*
X145431992Y-177871554D01*
X145316072Y-177766075D01*
X145268396Y-177722693D01*
X145268393Y-177722691D01*
X145264249Y-177718920D01*
X145138896Y-177640286D01*
X145076883Y-177601385D01*
X145076879Y-177601383D01*
X145072127Y-177598402D01*
X145028464Y-177580850D01*
X144972722Y-177536885D01*
X144949597Y-177469760D01*
X144966434Y-177400789D01*
X145021218Y-177350218D01*
X145137042Y-177294973D01*
X145146649Y-177289291D01*
X145321645Y-177163542D01*
X145330101Y-177156243D01*
X145480057Y-177001501D01*
X145487099Y-176992804D01*
X145607277Y-176813961D01*
X145612666Y-176804158D01*
X145699275Y-176606858D01*
X145702841Y-176596263D01*
X145733967Y-176466616D01*
X145733262Y-176452531D01*
X145724383Y-176449001D01*
X144127001Y-176449001D01*
X144058880Y-176428999D01*
X144012387Y-176375343D01*
X144001001Y-176323001D01*
X144001001Y-175922886D01*
X144509001Y-175922886D01*
X144513476Y-175938125D01*
X144514866Y-175939330D01*
X144522549Y-175941001D01*
X145723499Y-175941001D01*
X145737481Y-175936895D01*
X145739071Y-175926649D01*
X145738620Y-175924526D01*
X145675258Y-175718566D01*
X145671037Y-175708221D01*
X145572203Y-175516734D01*
X145566218Y-175507303D01*
X145435033Y-175336338D01*
X145427480Y-175328125D01*
X145268091Y-175183092D01*
X145259191Y-175176337D01*
X145076658Y-175061835D01*
X145066694Y-175056757D01*
X145027854Y-175041144D01*
X144972110Y-174997177D01*
X144948984Y-174930053D01*
X144965820Y-174861081D01*
X145020606Y-174810510D01*
X145137038Y-174754975D01*
X145146649Y-174749291D01*
X145321645Y-174623542D01*
X145330101Y-174616243D01*
X145480057Y-174461501D01*
X145487099Y-174452804D01*
X145607277Y-174273961D01*
X145612666Y-174264158D01*
X145699275Y-174066858D01*
X145702841Y-174056263D01*
X145733967Y-173926616D01*
X145733262Y-173912531D01*
X145724383Y-173909001D01*
X144527116Y-173909001D01*
X144511877Y-173913476D01*
X144510672Y-173914866D01*
X144509001Y-173922549D01*
X144509001Y-175922886D01*
X144001001Y-175922886D01*
X144001001Y-173382886D01*
X144509001Y-173382886D01*
X144513476Y-173398125D01*
X144514866Y-173399330D01*
X144522549Y-173401001D01*
X145723499Y-173401001D01*
X145737481Y-173396895D01*
X145739071Y-173386649D01*
X145738620Y-173384526D01*
X145675258Y-173178566D01*
X145671037Y-173168221D01*
X145572203Y-172976734D01*
X145566218Y-172967303D01*
X145435033Y-172796338D01*
X145427480Y-172788125D01*
X145268091Y-172643092D01*
X145259191Y-172636337D01*
X145076658Y-172521835D01*
X145066694Y-172516757D01*
X145027854Y-172501144D01*
X144972110Y-172457177D01*
X144948984Y-172390053D01*
X144965820Y-172321081D01*
X145020606Y-172270510D01*
X145137038Y-172214975D01*
X145146649Y-172209291D01*
X145321645Y-172083542D01*
X145330101Y-172076243D01*
X145480057Y-171921501D01*
X145487099Y-171912804D01*
X145607277Y-171733961D01*
X145612666Y-171724158D01*
X145699275Y-171526858D01*
X145702841Y-171516263D01*
X145733967Y-171386616D01*
X145733262Y-171372531D01*
X145724383Y-171369001D01*
X144527116Y-171369001D01*
X144511877Y-171373476D01*
X144510672Y-171374866D01*
X144509001Y-171382549D01*
X144509001Y-173382886D01*
X144001001Y-173382886D01*
X144001001Y-170842886D01*
X144509001Y-170842886D01*
X144513476Y-170858125D01*
X144514866Y-170859330D01*
X144522549Y-170861001D01*
X145723499Y-170861001D01*
X145737481Y-170856895D01*
X145739071Y-170846649D01*
X145738620Y-170844526D01*
X145675258Y-170638566D01*
X145671037Y-170628221D01*
X145572203Y-170436734D01*
X145566218Y-170427303D01*
X145435033Y-170256338D01*
X145427480Y-170248125D01*
X145268091Y-170103092D01*
X145259191Y-170096337D01*
X145076658Y-169981835D01*
X145066694Y-169976757D01*
X145027854Y-169961144D01*
X144972110Y-169917177D01*
X144948984Y-169850053D01*
X144965820Y-169781081D01*
X145020606Y-169730510D01*
X145137038Y-169674975D01*
X145146649Y-169669291D01*
X145321645Y-169543542D01*
X145330101Y-169536243D01*
X145480057Y-169381501D01*
X145487099Y-169372804D01*
X145607277Y-169193961D01*
X145612666Y-169184158D01*
X145699275Y-168986858D01*
X145702841Y-168976263D01*
X145733967Y-168846616D01*
X145733262Y-168832531D01*
X145724383Y-168829001D01*
X144527116Y-168829001D01*
X144511877Y-168833476D01*
X144510672Y-168834866D01*
X144509001Y-168842549D01*
X144509001Y-170842886D01*
X144001001Y-170842886D01*
X144001001Y-168302886D01*
X144509001Y-168302886D01*
X144513476Y-168318125D01*
X144514866Y-168319330D01*
X144522549Y-168321001D01*
X145723499Y-168321001D01*
X145737481Y-168316895D01*
X145739071Y-168306649D01*
X145738620Y-168304526D01*
X145675258Y-168098566D01*
X145671037Y-168088221D01*
X145572203Y-167896734D01*
X145566218Y-167887303D01*
X145435033Y-167716338D01*
X145427480Y-167708125D01*
X145268091Y-167563092D01*
X145259191Y-167556337D01*
X145076658Y-167441835D01*
X145066694Y-167436757D01*
X145027854Y-167421144D01*
X144972110Y-167377177D01*
X144948984Y-167310053D01*
X144965820Y-167241081D01*
X145020606Y-167190510D01*
X145137038Y-167134975D01*
X145146649Y-167129291D01*
X145321645Y-167003542D01*
X145330101Y-166996243D01*
X145480057Y-166841501D01*
X145487099Y-166832804D01*
X145607277Y-166653961D01*
X145612666Y-166644158D01*
X145699275Y-166446858D01*
X145702841Y-166436263D01*
X145733967Y-166306616D01*
X145733262Y-166292531D01*
X145724383Y-166289001D01*
X144527116Y-166289001D01*
X144511877Y-166293476D01*
X144510672Y-166294866D01*
X144509001Y-166302549D01*
X144509001Y-168302886D01*
X144001001Y-168302886D01*
X144001001Y-165762886D01*
X144509001Y-165762886D01*
X144513476Y-165778125D01*
X144514866Y-165779330D01*
X144522549Y-165781001D01*
X145723499Y-165781001D01*
X145737481Y-165776895D01*
X145739071Y-165766649D01*
X145738620Y-165764526D01*
X145675258Y-165558566D01*
X145671037Y-165548221D01*
X145572203Y-165356734D01*
X145566218Y-165347303D01*
X145435033Y-165176338D01*
X145427480Y-165168125D01*
X145268091Y-165023092D01*
X145259191Y-165016337D01*
X145076658Y-164901835D01*
X145066694Y-164896757D01*
X145027854Y-164881144D01*
X144972110Y-164837177D01*
X144948984Y-164770053D01*
X144965820Y-164701081D01*
X145020606Y-164650510D01*
X145137038Y-164594975D01*
X145146649Y-164589291D01*
X145321645Y-164463542D01*
X145330101Y-164456243D01*
X145480057Y-164301501D01*
X145487099Y-164292804D01*
X145607277Y-164113961D01*
X145612666Y-164104158D01*
X145699275Y-163906858D01*
X145702841Y-163896263D01*
X145733967Y-163766616D01*
X145733262Y-163752531D01*
X145724383Y-163749001D01*
X144527116Y-163749001D01*
X144511877Y-163753476D01*
X144510672Y-163754866D01*
X144509001Y-163762549D01*
X144509001Y-165762886D01*
X144001001Y-165762886D01*
X144001001Y-163222886D01*
X144509001Y-163222886D01*
X144513476Y-163238125D01*
X144514866Y-163239330D01*
X144522549Y-163241001D01*
X145723499Y-163241001D01*
X145737481Y-163236895D01*
X145739071Y-163226649D01*
X145738620Y-163224526D01*
X145675258Y-163018566D01*
X145671037Y-163008221D01*
X145572203Y-162816734D01*
X145566218Y-162807303D01*
X145435033Y-162636338D01*
X145427480Y-162628125D01*
X145268091Y-162483092D01*
X145259191Y-162476337D01*
X145076658Y-162361835D01*
X145066694Y-162356757D01*
X145027854Y-162341144D01*
X144972110Y-162297177D01*
X144948984Y-162230053D01*
X144965820Y-162161081D01*
X145020606Y-162110510D01*
X145137038Y-162054975D01*
X145146649Y-162049291D01*
X145321645Y-161923542D01*
X145330101Y-161916243D01*
X145480057Y-161761501D01*
X145487099Y-161752804D01*
X145607277Y-161573961D01*
X145612666Y-161564158D01*
X145699275Y-161366858D01*
X145702841Y-161356263D01*
X145733967Y-161226616D01*
X145733262Y-161212531D01*
X145724383Y-161209001D01*
X144527116Y-161209001D01*
X144511877Y-161213476D01*
X144510672Y-161214866D01*
X144509001Y-161222549D01*
X144509001Y-163222886D01*
X144001001Y-163222886D01*
X144001001Y-160682886D01*
X144509001Y-160682886D01*
X144513476Y-160698125D01*
X144514866Y-160699330D01*
X144522549Y-160701001D01*
X145723499Y-160701001D01*
X145737481Y-160696895D01*
X145739071Y-160686649D01*
X145738620Y-160684526D01*
X145675258Y-160478566D01*
X145671037Y-160468221D01*
X145572203Y-160276734D01*
X145566218Y-160267303D01*
X145435033Y-160096338D01*
X145427480Y-160088125D01*
X145268091Y-159943092D01*
X145259191Y-159936337D01*
X145076658Y-159821835D01*
X145066694Y-159816757D01*
X145027854Y-159801144D01*
X144972110Y-159757177D01*
X144948984Y-159690053D01*
X144965820Y-159621081D01*
X145020606Y-159570510D01*
X145137038Y-159514975D01*
X145146649Y-159509291D01*
X145321645Y-159383542D01*
X145330101Y-159376243D01*
X145480057Y-159221501D01*
X145487099Y-159212804D01*
X145607277Y-159033961D01*
X145612666Y-159024158D01*
X145699275Y-158826858D01*
X145702841Y-158816263D01*
X145733967Y-158686616D01*
X145733262Y-158672531D01*
X145724383Y-158669001D01*
X144527116Y-158669001D01*
X144511877Y-158673476D01*
X144510672Y-158674866D01*
X144509001Y-158682549D01*
X144509001Y-160682886D01*
X144001001Y-160682886D01*
X144001001Y-158142886D01*
X144509001Y-158142886D01*
X144513476Y-158158125D01*
X144514866Y-158159330D01*
X144522549Y-158161001D01*
X145723499Y-158161001D01*
X145737481Y-158156895D01*
X145739071Y-158146649D01*
X145738620Y-158144526D01*
X145675258Y-157938566D01*
X145671037Y-157928221D01*
X145572203Y-157736734D01*
X145566218Y-157727303D01*
X145435033Y-157556338D01*
X145427480Y-157548125D01*
X145268091Y-157403092D01*
X145259191Y-157396337D01*
X145076658Y-157281835D01*
X145066694Y-157276757D01*
X145027854Y-157261144D01*
X144972110Y-157217177D01*
X144948984Y-157150053D01*
X144965820Y-157081081D01*
X145020606Y-157030510D01*
X145137038Y-156974975D01*
X145146649Y-156969291D01*
X145321645Y-156843542D01*
X145330101Y-156836243D01*
X145480057Y-156681501D01*
X145487099Y-156672804D01*
X145607277Y-156493961D01*
X145612666Y-156484158D01*
X145699275Y-156286858D01*
X145702841Y-156276263D01*
X145733967Y-156146616D01*
X145733262Y-156132531D01*
X145724383Y-156129001D01*
X144527116Y-156129001D01*
X144511877Y-156133476D01*
X144510672Y-156134866D01*
X144509001Y-156142549D01*
X144509001Y-158142886D01*
X144001001Y-158142886D01*
X144001001Y-155602886D01*
X144509001Y-155602886D01*
X144513476Y-155618125D01*
X144514866Y-155619330D01*
X144522549Y-155621001D01*
X145723499Y-155621001D01*
X145737481Y-155616895D01*
X145739071Y-155606649D01*
X145738620Y-155604526D01*
X145675258Y-155398566D01*
X145671037Y-155388221D01*
X145572203Y-155196734D01*
X145566218Y-155187303D01*
X145435033Y-155016338D01*
X145427480Y-155008125D01*
X145268091Y-154863092D01*
X145259191Y-154856337D01*
X145076658Y-154741835D01*
X145066694Y-154736757D01*
X145027854Y-154721144D01*
X144972110Y-154677177D01*
X144948984Y-154610053D01*
X144965820Y-154541081D01*
X145020606Y-154490510D01*
X145137038Y-154434975D01*
X145146649Y-154429291D01*
X145321645Y-154303542D01*
X145330101Y-154296243D01*
X145480057Y-154141501D01*
X145487099Y-154132804D01*
X145607277Y-153953961D01*
X145612666Y-153944158D01*
X145699275Y-153746858D01*
X145702841Y-153736263D01*
X145733967Y-153606616D01*
X145733262Y-153592531D01*
X145724383Y-153589001D01*
X144527116Y-153589001D01*
X144511877Y-153593476D01*
X144510672Y-153594866D01*
X144509001Y-153602549D01*
X144509001Y-155602886D01*
X144001001Y-155602886D01*
X144001001Y-153062886D01*
X144509001Y-153062886D01*
X144513476Y-153078125D01*
X144514866Y-153079330D01*
X144522549Y-153081001D01*
X145723499Y-153081001D01*
X145737481Y-153076895D01*
X145739071Y-153066649D01*
X145738620Y-153064526D01*
X145675258Y-152858566D01*
X145671037Y-152848221D01*
X145572203Y-152656734D01*
X145566218Y-152647303D01*
X145435033Y-152476338D01*
X145427480Y-152468125D01*
X145268091Y-152323092D01*
X145259191Y-152316337D01*
X145076658Y-152201835D01*
X145066694Y-152196757D01*
X145027854Y-152181144D01*
X144972110Y-152137177D01*
X144948984Y-152070053D01*
X144965820Y-152001081D01*
X145020606Y-151950510D01*
X145137038Y-151894975D01*
X145146649Y-151889291D01*
X145321645Y-151763542D01*
X145330101Y-151756243D01*
X145480057Y-151601501D01*
X145487099Y-151592804D01*
X145607277Y-151413961D01*
X145612666Y-151404158D01*
X145699275Y-151206858D01*
X145702841Y-151196263D01*
X145733967Y-151066616D01*
X145733262Y-151052531D01*
X145724383Y-151049001D01*
X144527116Y-151049001D01*
X144511877Y-151053476D01*
X144510672Y-151054866D01*
X144509001Y-151062549D01*
X144509001Y-153062886D01*
X144001001Y-153062886D01*
X144001001Y-150522886D01*
X144509001Y-150522886D01*
X144513476Y-150538125D01*
X144514866Y-150539330D01*
X144522549Y-150541001D01*
X145723499Y-150541001D01*
X145737481Y-150536895D01*
X145739071Y-150526649D01*
X145738620Y-150524526D01*
X145675258Y-150318566D01*
X145671037Y-150308221D01*
X145572203Y-150116734D01*
X145566218Y-150107303D01*
X145435033Y-149936338D01*
X145427480Y-149928125D01*
X145268091Y-149783092D01*
X145259191Y-149776337D01*
X145076658Y-149661835D01*
X145066694Y-149656757D01*
X145027854Y-149641144D01*
X144972110Y-149597177D01*
X144948984Y-149530053D01*
X144965820Y-149461081D01*
X145020606Y-149410510D01*
X145137038Y-149354975D01*
X145146649Y-149349291D01*
X145321645Y-149223542D01*
X145330101Y-149216243D01*
X145480057Y-149061501D01*
X145487099Y-149052804D01*
X145607277Y-148873961D01*
X145612666Y-148864158D01*
X145699275Y-148666858D01*
X145702841Y-148656263D01*
X145733967Y-148526616D01*
X145733262Y-148512531D01*
X145724383Y-148509001D01*
X144527116Y-148509001D01*
X144511877Y-148513476D01*
X144510672Y-148514866D01*
X144509001Y-148522549D01*
X144509001Y-150522886D01*
X144001001Y-150522886D01*
X144001001Y-147982886D01*
X144509001Y-147982886D01*
X144513476Y-147998125D01*
X144514866Y-147999330D01*
X144522549Y-148001001D01*
X145723499Y-148001001D01*
X145737481Y-147996895D01*
X145739071Y-147986649D01*
X145738620Y-147984526D01*
X145675258Y-147778566D01*
X145671037Y-147768221D01*
X145572203Y-147576734D01*
X145566218Y-147567303D01*
X145435033Y-147396338D01*
X145427480Y-147388125D01*
X145268091Y-147243092D01*
X145259191Y-147236337D01*
X145076658Y-147121835D01*
X145066694Y-147116757D01*
X145027854Y-147101144D01*
X144972110Y-147057177D01*
X144948984Y-146990053D01*
X144965820Y-146921081D01*
X145020606Y-146870510D01*
X145137038Y-146814975D01*
X145146649Y-146809291D01*
X145321645Y-146683542D01*
X145330101Y-146676243D01*
X145480057Y-146521501D01*
X145487099Y-146512804D01*
X145607277Y-146333961D01*
X145612666Y-146324158D01*
X145699275Y-146126858D01*
X145702841Y-146116263D01*
X145733967Y-145986616D01*
X145733262Y-145972531D01*
X145724383Y-145969001D01*
X144527116Y-145969001D01*
X144511877Y-145973476D01*
X144510672Y-145974866D01*
X144509001Y-145982549D01*
X144509001Y-147982886D01*
X144001001Y-147982886D01*
X144001001Y-145987116D01*
X143996526Y-145971877D01*
X143995136Y-145970672D01*
X143987453Y-145969001D01*
X140246503Y-145969001D01*
X140232521Y-145973107D01*
X140230931Y-145983353D01*
X140231382Y-145985476D01*
X140294744Y-146191436D01*
X140298965Y-146201781D01*
X140397799Y-146393268D01*
X140403784Y-146402699D01*
X140534969Y-146573664D01*
X140542522Y-146581877D01*
X140701911Y-146726910D01*
X140710811Y-146733665D01*
X140893344Y-146848167D01*
X140903314Y-146853248D01*
X140941518Y-146868606D01*
X140997262Y-146912573D01*
X141020387Y-146979698D01*
X141003550Y-147048669D01*
X140948765Y-147099239D01*
X140901392Y-147121835D01*
X140827650Y-147157008D01*
X140823089Y-147160285D01*
X140823088Y-147160286D01*
X140717253Y-147236337D01*
X140643475Y-147289352D01*
X140570447Y-147364711D01*
X140503954Y-147433326D01*
X140485646Y-147452218D01*
X140482519Y-147456872D01*
X140362280Y-147635806D01*
X140362277Y-147635811D01*
X140359154Y-147640459D01*
X140267994Y-147848125D01*
X140266684Y-147853582D01*
X140216361Y-148063193D01*
X140216360Y-148063199D01*
X140215051Y-148068652D01*
X140201995Y-148295070D01*
X140229242Y-148520220D01*
X140230892Y-148525582D01*
X140230892Y-148525584D01*
X140256683Y-148609418D01*
X140295928Y-148736988D01*
X140399947Y-148938520D01*
X140538010Y-149118448D01*
X140628851Y-149201107D01*
X140701606Y-149267309D01*
X140701609Y-149267311D01*
X140705753Y-149271082D01*
X140710504Y-149274063D01*
X140710505Y-149274063D01*
X140893119Y-149388617D01*
X140893123Y-149388619D01*
X140897875Y-149391600D01*
X140940907Y-149408899D01*
X140996650Y-149452865D01*
X141019775Y-149519990D01*
X141002938Y-149588961D01*
X140948153Y-149639531D01*
X140827650Y-149697008D01*
X140823089Y-149700285D01*
X140823088Y-149700286D01*
X140717253Y-149776337D01*
X140643475Y-149829352D01*
X140592153Y-149882312D01*
X140503954Y-149973326D01*
X140485646Y-149992218D01*
X140482519Y-149996872D01*
X140362280Y-150175806D01*
X140362277Y-150175811D01*
X140359154Y-150180459D01*
X140356901Y-150185591D01*
X140356899Y-150185595D01*
X140330356Y-150246062D01*
X140267994Y-150388125D01*
X140266684Y-150393582D01*
X140216361Y-150603193D01*
X140216360Y-150603199D01*
X140215051Y-150608652D01*
X140201995Y-150835070D01*
X140229242Y-151060220D01*
X140230892Y-151065582D01*
X140230892Y-151065584D01*
X140231363Y-151067116D01*
X140295928Y-151276988D01*
X140399947Y-151478520D01*
X140538010Y-151658448D01*
X140628851Y-151741107D01*
X140701606Y-151807309D01*
X140701609Y-151807311D01*
X140705753Y-151811082D01*
X140710504Y-151814063D01*
X140710505Y-151814063D01*
X140893119Y-151928617D01*
X140893123Y-151928619D01*
X140897875Y-151931600D01*
X140940907Y-151948899D01*
X140996650Y-151992865D01*
X141019775Y-152059990D01*
X141002938Y-152128961D01*
X140948153Y-152179531D01*
X140827650Y-152237008D01*
X140823089Y-152240285D01*
X140823088Y-152240286D01*
X140717253Y-152316337D01*
X140643475Y-152369352D01*
X140570447Y-152444711D01*
X140503954Y-152513326D01*
X140485646Y-152532218D01*
X140482519Y-152536872D01*
X140362280Y-152715806D01*
X140362277Y-152715811D01*
X140359154Y-152720459D01*
X140267994Y-152928125D01*
X140266684Y-152933582D01*
X140216361Y-153143193D01*
X140216360Y-153143199D01*
X140215051Y-153148652D01*
X140201995Y-153375070D01*
X140229242Y-153600220D01*
X140230892Y-153605582D01*
X140230892Y-153605584D01*
X140256683Y-153689418D01*
X140295928Y-153816988D01*
X140399947Y-154018520D01*
X140538010Y-154198448D01*
X140628851Y-154281107D01*
X140701606Y-154347309D01*
X140701609Y-154347311D01*
X140705753Y-154351082D01*
X140710504Y-154354063D01*
X140710505Y-154354063D01*
X140893119Y-154468617D01*
X140893123Y-154468619D01*
X140897875Y-154471600D01*
X140940907Y-154488899D01*
X140996650Y-154532865D01*
X141019775Y-154599990D01*
X141002938Y-154668961D01*
X140948153Y-154719531D01*
X140827650Y-154777008D01*
X140823089Y-154780285D01*
X140823088Y-154780286D01*
X140717253Y-154856337D01*
X140643475Y-154909352D01*
X140570447Y-154984711D01*
X140503954Y-155053326D01*
X140485646Y-155072218D01*
X140482519Y-155076872D01*
X140362280Y-155255806D01*
X140362277Y-155255811D01*
X140359154Y-155260459D01*
X140267994Y-155468125D01*
X140266684Y-155473582D01*
X140216361Y-155683193D01*
X140216360Y-155683199D01*
X140215051Y-155688652D01*
X140201995Y-155915070D01*
X140229242Y-156140220D01*
X140230892Y-156145582D01*
X140230892Y-156145584D01*
X140256683Y-156229418D01*
X140295928Y-156356988D01*
X140399947Y-156558520D01*
X140538010Y-156738448D01*
X140628851Y-156821107D01*
X140701606Y-156887309D01*
X140701609Y-156887311D01*
X140705753Y-156891082D01*
X140710504Y-156894063D01*
X140710505Y-156894063D01*
X140893119Y-157008617D01*
X140893123Y-157008619D01*
X140897875Y-157011600D01*
X140940907Y-157028899D01*
X140996650Y-157072865D01*
X141019775Y-157139990D01*
X141002938Y-157208961D01*
X140948153Y-157259531D01*
X140944855Y-157261104D01*
X140845100Y-157308685D01*
X140827650Y-157317008D01*
X140823089Y-157320285D01*
X140823088Y-157320286D01*
X140717253Y-157396337D01*
X140643475Y-157449352D01*
X140590554Y-157503962D01*
X140501977Y-157595366D01*
X140485646Y-157612218D01*
X140482519Y-157616872D01*
X140362280Y-157795806D01*
X140362277Y-157795811D01*
X140359154Y-157800459D01*
X140356901Y-157805591D01*
X140356899Y-157805595D01*
X140338593Y-157847297D01*
X140267994Y-158008125D01*
X140266684Y-158013582D01*
X140216361Y-158223193D01*
X140216360Y-158223199D01*
X140215051Y-158228652D01*
X140201995Y-158455070D01*
X140229242Y-158680220D01*
X140230892Y-158685582D01*
X140230892Y-158685584D01*
X140231363Y-158687116D01*
X140295928Y-158896988D01*
X140399947Y-159098520D01*
X140538010Y-159278448D01*
X140628851Y-159361107D01*
X140701606Y-159427309D01*
X140701609Y-159427311D01*
X140705753Y-159431082D01*
X140710504Y-159434063D01*
X140710505Y-159434063D01*
X140893119Y-159548617D01*
X140893123Y-159548619D01*
X140897875Y-159551600D01*
X140940907Y-159568899D01*
X140996650Y-159612865D01*
X141019775Y-159679990D01*
X141002938Y-159748961D01*
X140948153Y-159799531D01*
X140827650Y-159857008D01*
X140823089Y-159860285D01*
X140823088Y-159860286D01*
X140717253Y-159936337D01*
X140643475Y-159989352D01*
X140570447Y-160064711D01*
X140503954Y-160133326D01*
X140485646Y-160152218D01*
X140482519Y-160156872D01*
X140362280Y-160335806D01*
X140362277Y-160335811D01*
X140359154Y-160340459D01*
X140267994Y-160548125D01*
X140266684Y-160553582D01*
X140216361Y-160763193D01*
X140216360Y-160763199D01*
X140215051Y-160768652D01*
X140201995Y-160995070D01*
X140229242Y-161220220D01*
X140230892Y-161225582D01*
X140230892Y-161225584D01*
X140256683Y-161309418D01*
X140295928Y-161436988D01*
X140399947Y-161638520D01*
X140538010Y-161818448D01*
X140628851Y-161901107D01*
X140701606Y-161967309D01*
X140701609Y-161967311D01*
X140705753Y-161971082D01*
X140710504Y-161974063D01*
X140710505Y-161974063D01*
X140893119Y-162088617D01*
X140893123Y-162088619D01*
X140897875Y-162091600D01*
X140940907Y-162108899D01*
X140996650Y-162152865D01*
X141019775Y-162219990D01*
X141002938Y-162288961D01*
X140948153Y-162339531D01*
X140827650Y-162397008D01*
X140823089Y-162400285D01*
X140823088Y-162400286D01*
X140717253Y-162476337D01*
X140643475Y-162529352D01*
X140570447Y-162604711D01*
X140503954Y-162673326D01*
X140485646Y-162692218D01*
X140482519Y-162696872D01*
X140362280Y-162875806D01*
X140362277Y-162875811D01*
X140359154Y-162880459D01*
X140267994Y-163088125D01*
X140266684Y-163093582D01*
X140216361Y-163303193D01*
X140216360Y-163303199D01*
X140215051Y-163308652D01*
X140201995Y-163535070D01*
X140229242Y-163760220D01*
X140230892Y-163765582D01*
X140230892Y-163765584D01*
X140256683Y-163849418D01*
X140295928Y-163976988D01*
X140399947Y-164178520D01*
X140538010Y-164358448D01*
X140628851Y-164441107D01*
X140701606Y-164507309D01*
X140701609Y-164507311D01*
X140705753Y-164511082D01*
X140710504Y-164514063D01*
X140710505Y-164514063D01*
X140893119Y-164628617D01*
X140893123Y-164628619D01*
X140897875Y-164631600D01*
X140940907Y-164648899D01*
X140996650Y-164692865D01*
X141019775Y-164759990D01*
X141002938Y-164828961D01*
X140948153Y-164879531D01*
X140827650Y-164937008D01*
X140823089Y-164940285D01*
X140823088Y-164940286D01*
X140657993Y-165058920D01*
X140643475Y-165069352D01*
X140570447Y-165144711D01*
X140489954Y-165227773D01*
X140485646Y-165232218D01*
X140482519Y-165236872D01*
X140362280Y-165415806D01*
X140362277Y-165415811D01*
X140359154Y-165420459D01*
X140356901Y-165425591D01*
X140356899Y-165425595D01*
X140334377Y-165476902D01*
X140267994Y-165628125D01*
X140266684Y-165633582D01*
X140216361Y-165843193D01*
X140216360Y-165843199D01*
X140215051Y-165848652D01*
X140201995Y-166075070D01*
X140229242Y-166300220D01*
X140230892Y-166305582D01*
X140230892Y-166305584D01*
X140256683Y-166389418D01*
X140295928Y-166516988D01*
X140399947Y-166718520D01*
X140538010Y-166898448D01*
X140628851Y-166981107D01*
X140701606Y-167047309D01*
X140701609Y-167047311D01*
X140705753Y-167051082D01*
X140710504Y-167054063D01*
X140710505Y-167054063D01*
X140893119Y-167168617D01*
X140893123Y-167168619D01*
X140897875Y-167171600D01*
X140940907Y-167188899D01*
X140996650Y-167232865D01*
X141019775Y-167299990D01*
X141002938Y-167368961D01*
X140948153Y-167419531D01*
X140827650Y-167477008D01*
X140823089Y-167480285D01*
X140823088Y-167480286D01*
X140717253Y-167556337D01*
X140643475Y-167609352D01*
X140570447Y-167684711D01*
X140503954Y-167753326D01*
X140485646Y-167772218D01*
X140482519Y-167776872D01*
X140362280Y-167955806D01*
X140362277Y-167955811D01*
X140359154Y-167960459D01*
X140267994Y-168168125D01*
X140266684Y-168173582D01*
X140216361Y-168383193D01*
X140216360Y-168383199D01*
X140215051Y-168388652D01*
X140201995Y-168615070D01*
X140229242Y-168840220D01*
X140230892Y-168845582D01*
X140230892Y-168845584D01*
X140237148Y-168865918D01*
X140295928Y-169056988D01*
X140399947Y-169258520D01*
X140538010Y-169438448D01*
X140600878Y-169495653D01*
X140701606Y-169587309D01*
X140701609Y-169587311D01*
X140705753Y-169591082D01*
X140710504Y-169594063D01*
X140710505Y-169594063D01*
X140893119Y-169708617D01*
X140893123Y-169708619D01*
X140897875Y-169711600D01*
X140940907Y-169728899D01*
X140996650Y-169772865D01*
X141019775Y-169839990D01*
X141002938Y-169908961D01*
X140948153Y-169959531D01*
X140827650Y-170017008D01*
X140823089Y-170020285D01*
X140823088Y-170020286D01*
X140717253Y-170096337D01*
X140643475Y-170149352D01*
X140572721Y-170222364D01*
X140503954Y-170293326D01*
X140485646Y-170312218D01*
X140482519Y-170316872D01*
X140362280Y-170495806D01*
X140362277Y-170495811D01*
X140359154Y-170500459D01*
X140267994Y-170708125D01*
X140266684Y-170713582D01*
X140216361Y-170923193D01*
X140216360Y-170923199D01*
X140215051Y-170928652D01*
X140201995Y-171155070D01*
X140229242Y-171380220D01*
X140230892Y-171385582D01*
X140230892Y-171385584D01*
X140256683Y-171469418D01*
X140295928Y-171596988D01*
X140399947Y-171798520D01*
X140538010Y-171978448D01*
X140628851Y-172061107D01*
X140701606Y-172127309D01*
X140701609Y-172127311D01*
X140705753Y-172131082D01*
X140710504Y-172134063D01*
X140710505Y-172134063D01*
X140893119Y-172248617D01*
X140893123Y-172248619D01*
X140897875Y-172251600D01*
X140940907Y-172268899D01*
X140996650Y-172312865D01*
X141019775Y-172379990D01*
X141002938Y-172448961D01*
X140948153Y-172499531D01*
X140827650Y-172557008D01*
X140823089Y-172560285D01*
X140823088Y-172560286D01*
X140717253Y-172636337D01*
X140643475Y-172689352D01*
X140570447Y-172764711D01*
X140503954Y-172833326D01*
X140485646Y-172852218D01*
X140482519Y-172856872D01*
X140362280Y-173035806D01*
X140362277Y-173035811D01*
X140359154Y-173040459D01*
X140267994Y-173248125D01*
X140266684Y-173253582D01*
X140216361Y-173463193D01*
X140216360Y-173463199D01*
X140215051Y-173468652D01*
X140201995Y-173695070D01*
X140229242Y-173920220D01*
X140230892Y-173925582D01*
X140230892Y-173925584D01*
X140256683Y-174009418D01*
X140295928Y-174136988D01*
X140399947Y-174338520D01*
X140538010Y-174518448D01*
X140628851Y-174601107D01*
X140701606Y-174667309D01*
X140701609Y-174667311D01*
X140705753Y-174671082D01*
X140710504Y-174674063D01*
X140710505Y-174674063D01*
X140893119Y-174788617D01*
X140893123Y-174788619D01*
X140897875Y-174791600D01*
X140940907Y-174808899D01*
X140996650Y-174852865D01*
X141019775Y-174919990D01*
X141002938Y-174988961D01*
X140948153Y-175039531D01*
X140827650Y-175097008D01*
X140823089Y-175100285D01*
X140823088Y-175100286D01*
X140717253Y-175176337D01*
X140643475Y-175229352D01*
X140570447Y-175304711D01*
X140503954Y-175373326D01*
X140485646Y-175392218D01*
X140482519Y-175396872D01*
X140362280Y-175575806D01*
X140362277Y-175575811D01*
X140359154Y-175580459D01*
X140267994Y-175788125D01*
X140266684Y-175793582D01*
X140216361Y-176003193D01*
X140216360Y-176003199D01*
X140215051Y-176008652D01*
X140201995Y-176235070D01*
X140229242Y-176460220D01*
X140230892Y-176465582D01*
X140230892Y-176465584D01*
X140256683Y-176549418D01*
X140295928Y-176676988D01*
X140399947Y-176878520D01*
X140538010Y-177058448D01*
X140628851Y-177141107D01*
X140701606Y-177207309D01*
X140701609Y-177207311D01*
X140705753Y-177211082D01*
X140710504Y-177214063D01*
X140710505Y-177214063D01*
X140893119Y-177328617D01*
X140893123Y-177328619D01*
X140897875Y-177331600D01*
X140940907Y-177348899D01*
X140996650Y-177392865D01*
X141019775Y-177459990D01*
X141002938Y-177528961D01*
X140948153Y-177579531D01*
X140827650Y-177637008D01*
X140823089Y-177640285D01*
X140823088Y-177640286D01*
X140717807Y-177715939D01*
X140643475Y-177769352D01*
X140485646Y-177932218D01*
X140482519Y-177936872D01*
X140362280Y-178115806D01*
X140362277Y-178115811D01*
X140359154Y-178120459D01*
X140267994Y-178328125D01*
X140266684Y-178333582D01*
X140216361Y-178543193D01*
X140216360Y-178543199D01*
X140215051Y-178548652D01*
X140201995Y-178775070D01*
X140229242Y-179000220D01*
X140295928Y-179216988D01*
X140399947Y-179418520D01*
X140538010Y-179598448D01*
X140565839Y-179623770D01*
X140701606Y-179747309D01*
X140701609Y-179747311D01*
X140705753Y-179751082D01*
X140710504Y-179754063D01*
X140710505Y-179754063D01*
X140893119Y-179868617D01*
X140893123Y-179868619D01*
X140897875Y-179871600D01*
X140940907Y-179888899D01*
X140996650Y-179932865D01*
X141019775Y-179999990D01*
X141002938Y-180068961D01*
X140948153Y-180119531D01*
X140827650Y-180177008D01*
X140823089Y-180180285D01*
X140823088Y-180180286D01*
X140717807Y-180255939D01*
X140643475Y-180309352D01*
X140485646Y-180472218D01*
X140482519Y-180476872D01*
X140362280Y-180655806D01*
X140362277Y-180655811D01*
X140359154Y-180660459D01*
X140267994Y-180868125D01*
X140266684Y-180873582D01*
X140216361Y-181083193D01*
X140216360Y-181083199D01*
X140215051Y-181088652D01*
X140201995Y-181315070D01*
X140229242Y-181540220D01*
X140295928Y-181756988D01*
X140399947Y-181958520D01*
X140538010Y-182138448D01*
X140628418Y-182220713D01*
X140701606Y-182287309D01*
X140701609Y-182287311D01*
X140705753Y-182291082D01*
X140710504Y-182294063D01*
X140710505Y-182294063D01*
X140893119Y-182408617D01*
X140893123Y-182408619D01*
X140897875Y-182411600D01*
X140940907Y-182428899D01*
X140996650Y-182472865D01*
X141019775Y-182539990D01*
X141002938Y-182608961D01*
X140948153Y-182659531D01*
X140827650Y-182717008D01*
X140823089Y-182720285D01*
X140823088Y-182720286D01*
X140708732Y-182802460D01*
X140643475Y-182849352D01*
X140570447Y-182924711D01*
X140496878Y-183000628D01*
X140485646Y-183012218D01*
X140451347Y-183063261D01*
X140362280Y-183195806D01*
X140362277Y-183195811D01*
X140359154Y-183200459D01*
X140267994Y-183408125D01*
X140266684Y-183413582D01*
X140216361Y-183623193D01*
X140216360Y-183623199D01*
X140215051Y-183628652D01*
X140201995Y-183855070D01*
X140229242Y-184080220D01*
X140230892Y-184085582D01*
X140230892Y-184085584D01*
X140231363Y-184087116D01*
X140295928Y-184296988D01*
X140399947Y-184498520D01*
X140538010Y-184678448D01*
X140628851Y-184761107D01*
X140701606Y-184827309D01*
X140701609Y-184827311D01*
X140705753Y-184831082D01*
X140710504Y-184834063D01*
X140710505Y-184834063D01*
X140893119Y-184948617D01*
X140893123Y-184948619D01*
X140897875Y-184951600D01*
X140940907Y-184968899D01*
X140996650Y-185012865D01*
X141019775Y-185079990D01*
X141002938Y-185148961D01*
X140948153Y-185199531D01*
X140827650Y-185257008D01*
X140823089Y-185260285D01*
X140823088Y-185260286D01*
X140717253Y-185336337D01*
X140643475Y-185389352D01*
X140570447Y-185464711D01*
X140503954Y-185533326D01*
X140485646Y-185552218D01*
X140482519Y-185556872D01*
X140362280Y-185735806D01*
X140362277Y-185735811D01*
X140359154Y-185740459D01*
X140267994Y-185948125D01*
X140266684Y-185953582D01*
X140216361Y-186163193D01*
X140216360Y-186163199D01*
X140215051Y-186168652D01*
X140201995Y-186395070D01*
X104000000Y-186395070D01*
X104000000Y-182789654D01*
X117495618Y-182789654D01*
X117502673Y-182799627D01*
X117533679Y-182825551D01*
X117540598Y-182830579D01*
X117765272Y-182971515D01*
X117772807Y-182975556D01*
X118014520Y-183084694D01*
X118022551Y-183087680D01*
X118276832Y-183163002D01*
X118285184Y-183164869D01*
X118547340Y-183204984D01*
X118555874Y-183205700D01*
X118821045Y-183209867D01*
X118829596Y-183209418D01*
X119092883Y-183177557D01*
X119101284Y-183175955D01*
X119357824Y-183108653D01*
X119365926Y-183105926D01*
X119610949Y-183004434D01*
X119618617Y-183000628D01*
X119847598Y-182866822D01*
X119854679Y-182862009D01*
X119934655Y-182799301D01*
X119943125Y-182787442D01*
X119936608Y-182775818D01*
X119908924Y-182748134D01*
X121791500Y-182748134D01*
X121798255Y-182810316D01*
X121849385Y-182946705D01*
X121936739Y-183063261D01*
X122053295Y-183150615D01*
X122189684Y-183201745D01*
X122251866Y-183208500D01*
X125348134Y-183208500D01*
X125410316Y-183201745D01*
X125546705Y-183150615D01*
X125663261Y-183063261D01*
X125750615Y-182946705D01*
X125801745Y-182810316D01*
X125808500Y-182748134D01*
X125808500Y-179651866D01*
X125801745Y-179589684D01*
X125750615Y-179453295D01*
X125663261Y-179336739D01*
X125546705Y-179249385D01*
X125410316Y-179198255D01*
X125348134Y-179191500D01*
X122251866Y-179191500D01*
X122189684Y-179198255D01*
X122053295Y-179249385D01*
X121936739Y-179336739D01*
X121849385Y-179453295D01*
X121798255Y-179589684D01*
X121791500Y-179651866D01*
X121791500Y-182748134D01*
X119908924Y-182748134D01*
X118732812Y-181572022D01*
X118718868Y-181564408D01*
X118717035Y-181564539D01*
X118710420Y-181568790D01*
X117502910Y-182776300D01*
X117495618Y-182789654D01*
X104000000Y-182789654D01*
X104000000Y-181183204D01*
X116707665Y-181183204D01*
X116722932Y-181447969D01*
X116724005Y-181456470D01*
X116775065Y-181716722D01*
X116777276Y-181724974D01*
X116863184Y-181975894D01*
X116866499Y-181983779D01*
X116985664Y-182220713D01*
X116990020Y-182228079D01*
X117119347Y-182416250D01*
X117129601Y-182424594D01*
X117143342Y-182417448D01*
X118347978Y-181212812D01*
X118354356Y-181201132D01*
X119084408Y-181201132D01*
X119084539Y-181202965D01*
X119088790Y-181209580D01*
X120295730Y-182416520D01*
X120307939Y-182423187D01*
X120319439Y-182414497D01*
X120416831Y-182281913D01*
X120421418Y-182274685D01*
X120547962Y-182041621D01*
X120551530Y-182033827D01*
X120645271Y-181785750D01*
X120647748Y-181777544D01*
X120706954Y-181519038D01*
X120708294Y-181510577D01*
X120732031Y-181244616D01*
X120732277Y-181239677D01*
X120732666Y-181202485D01*
X120732523Y-181197519D01*
X120714362Y-180931123D01*
X120713201Y-180922649D01*
X120659419Y-180662944D01*
X120657120Y-180654709D01*
X120568588Y-180404705D01*
X120565191Y-180396854D01*
X120443550Y-180161178D01*
X120439122Y-180153866D01*
X120320031Y-179984417D01*
X120309509Y-179976037D01*
X120296121Y-179983089D01*
X119092022Y-181187188D01*
X119084408Y-181201132D01*
X118354356Y-181201132D01*
X118355592Y-181198868D01*
X118355461Y-181197035D01*
X118351210Y-181190420D01*
X117143814Y-179983024D01*
X117131804Y-179976466D01*
X117120064Y-179985434D01*
X117011935Y-180135911D01*
X117007418Y-180143196D01*
X116883325Y-180377567D01*
X116879839Y-180385395D01*
X116788700Y-180634446D01*
X116786311Y-180642670D01*
X116729812Y-180901795D01*
X116728563Y-180910250D01*
X116707754Y-181174653D01*
X116707665Y-181183204D01*
X104000000Y-181183204D01*
X104000000Y-179612500D01*
X117496584Y-179612500D01*
X117502980Y-179623770D01*
X118707188Y-180827978D01*
X118721132Y-180835592D01*
X118722965Y-180835461D01*
X118729580Y-180831210D01*
X119936604Y-179624186D01*
X119943795Y-179611017D01*
X119936473Y-179600780D01*
X119889233Y-179562115D01*
X119882261Y-179557160D01*
X119656122Y-179418582D01*
X119648552Y-179414624D01*
X119405704Y-179308022D01*
X119397644Y-179305120D01*
X119142592Y-179232467D01*
X119134214Y-179230685D01*
X118871656Y-179193318D01*
X118863111Y-179192691D01*
X118597908Y-179191302D01*
X118589374Y-179191839D01*
X118326433Y-179226456D01*
X118318035Y-179228149D01*
X118062238Y-179298127D01*
X118054143Y-179300946D01*
X117810199Y-179404997D01*
X117802577Y-179408881D01*
X117575013Y-179545075D01*
X117567981Y-179549962D01*
X117505053Y-179600377D01*
X117496584Y-179612500D01*
X104000000Y-179612500D01*
X104000000Y-169488640D01*
X106686463Y-169488640D01*
X106704163Y-169669160D01*
X106761418Y-169841273D01*
X106765065Y-169847295D01*
X106765066Y-169847297D01*
X106846545Y-169981835D01*
X106855380Y-169996424D01*
X106981382Y-170126902D01*
X107133159Y-170226222D01*
X107139763Y-170228678D01*
X107139765Y-170228679D01*
X107296558Y-170286990D01*
X107296560Y-170286990D01*
X107303168Y-170289448D01*
X107386995Y-170300633D01*
X107475980Y-170312507D01*
X107475984Y-170312507D01*
X107482961Y-170313438D01*
X107489972Y-170312800D01*
X107489976Y-170312800D01*
X107632459Y-170299832D01*
X107663600Y-170296998D01*
X107670302Y-170294820D01*
X107670304Y-170294820D01*
X107829409Y-170243124D01*
X107829412Y-170243123D01*
X107836108Y-170240947D01*
X107982367Y-170153759D01*
X107985860Y-170151677D01*
X107985862Y-170151676D01*
X107991912Y-170148069D01*
X108123266Y-170022982D01*
X108223643Y-169871902D01*
X108265423Y-169761917D01*
X108285555Y-169708920D01*
X108285556Y-169708918D01*
X108288055Y-169702338D01*
X108289035Y-169695366D01*
X108312748Y-169526639D01*
X108312748Y-169526636D01*
X108313299Y-169522717D01*
X108313616Y-169500000D01*
X108293397Y-169319745D01*
X108291080Y-169313091D01*
X108236064Y-169155106D01*
X108236062Y-169155103D01*
X108233745Y-169148448D01*
X108137626Y-168994624D01*
X108119393Y-168976263D01*
X108014778Y-168870915D01*
X108014774Y-168870912D01*
X108009815Y-168865918D01*
X107998697Y-168858862D01*
X107950538Y-168828300D01*
X107856666Y-168768727D01*
X107820205Y-168755744D01*
X107692425Y-168710243D01*
X107692420Y-168710242D01*
X107685790Y-168707881D01*
X107678802Y-168707048D01*
X107678799Y-168707047D01*
X107555698Y-168692368D01*
X107505680Y-168686404D01*
X107498677Y-168687140D01*
X107498676Y-168687140D01*
X107332288Y-168704628D01*
X107332286Y-168704629D01*
X107325288Y-168705364D01*
X107153579Y-168763818D01*
X107147575Y-168767512D01*
X107005095Y-168855166D01*
X107005092Y-168855168D01*
X106999088Y-168858862D01*
X106994053Y-168863793D01*
X106994050Y-168863795D01*
X106879202Y-168976263D01*
X106869493Y-168985771D01*
X106771235Y-169138238D01*
X106768826Y-169144858D01*
X106768824Y-169144861D01*
X106725837Y-169262968D01*
X106709197Y-169308685D01*
X106686463Y-169488640D01*
X104000000Y-169488640D01*
X104000000Y-164838640D01*
X123186463Y-164838640D01*
X123204163Y-165019160D01*
X123261418Y-165191273D01*
X123265065Y-165197295D01*
X123265066Y-165197297D01*
X123289034Y-165236872D01*
X123355380Y-165346424D01*
X123360269Y-165351487D01*
X123360270Y-165351488D01*
X123365336Y-165356734D01*
X123481382Y-165476902D01*
X123487278Y-165480760D01*
X123622505Y-165569250D01*
X123633159Y-165576222D01*
X123639763Y-165578678D01*
X123639765Y-165578679D01*
X123796558Y-165636990D01*
X123796560Y-165636990D01*
X123803168Y-165639448D01*
X123886995Y-165650633D01*
X123975980Y-165662507D01*
X123975984Y-165662507D01*
X123982961Y-165663438D01*
X123989972Y-165662800D01*
X123989976Y-165662800D01*
X124132459Y-165649832D01*
X124163600Y-165646998D01*
X124170302Y-165644820D01*
X124170304Y-165644820D01*
X124336108Y-165590947D01*
X124336743Y-165592901D01*
X124397110Y-165584382D01*
X124422768Y-165590952D01*
X124553168Y-165639448D01*
X124636995Y-165650633D01*
X124725980Y-165662507D01*
X124725984Y-165662507D01*
X124732961Y-165663438D01*
X124739972Y-165662800D01*
X124739976Y-165662800D01*
X124882459Y-165649832D01*
X124913600Y-165646998D01*
X124920302Y-165644820D01*
X124920304Y-165644820D01*
X125086108Y-165590947D01*
X125086743Y-165592901D01*
X125147110Y-165584382D01*
X125172768Y-165590952D01*
X125303168Y-165639448D01*
X125386995Y-165650633D01*
X125475980Y-165662507D01*
X125475984Y-165662507D01*
X125482961Y-165663438D01*
X125489972Y-165662800D01*
X125489976Y-165662800D01*
X125632459Y-165649832D01*
X125663600Y-165646998D01*
X125670302Y-165644820D01*
X125670304Y-165644820D01*
X125829409Y-165593124D01*
X125829412Y-165593123D01*
X125836108Y-165590947D01*
X125991912Y-165498069D01*
X126123266Y-165372982D01*
X126223643Y-165221902D01*
X126281592Y-165069352D01*
X126285555Y-165058920D01*
X126285556Y-165058918D01*
X126288055Y-165052338D01*
X126289035Y-165045366D01*
X126312748Y-164876639D01*
X126312748Y-164876636D01*
X126313299Y-164872717D01*
X126313616Y-164850000D01*
X126293397Y-164669745D01*
X126291080Y-164663091D01*
X126236064Y-164505106D01*
X126236062Y-164505103D01*
X126233745Y-164498448D01*
X126137626Y-164344624D01*
X126123941Y-164330843D01*
X126014778Y-164220915D01*
X126014774Y-164220912D01*
X126009815Y-164215918D01*
X125998697Y-164208862D01*
X125875830Y-164130889D01*
X125856666Y-164118727D01*
X125816451Y-164104407D01*
X125692425Y-164060243D01*
X125692420Y-164060242D01*
X125685790Y-164057881D01*
X125678802Y-164057048D01*
X125678799Y-164057047D01*
X125555698Y-164042368D01*
X125505680Y-164036404D01*
X125498677Y-164037140D01*
X125498676Y-164037140D01*
X125332288Y-164054628D01*
X125332286Y-164054629D01*
X125325288Y-164055364D01*
X125210933Y-164094293D01*
X125164083Y-164110242D01*
X125093151Y-164113260D01*
X125081211Y-164109663D01*
X124942425Y-164060243D01*
X124942420Y-164060242D01*
X124935790Y-164057881D01*
X124928802Y-164057048D01*
X124928799Y-164057047D01*
X124805698Y-164042368D01*
X124755680Y-164036404D01*
X124748677Y-164037140D01*
X124748676Y-164037140D01*
X124582288Y-164054628D01*
X124582286Y-164054629D01*
X124575288Y-164055364D01*
X124460933Y-164094293D01*
X124414083Y-164110242D01*
X124343151Y-164113260D01*
X124331211Y-164109663D01*
X124192425Y-164060243D01*
X124192420Y-164060242D01*
X124185790Y-164057881D01*
X124178802Y-164057048D01*
X124178799Y-164057047D01*
X124055698Y-164042368D01*
X124005680Y-164036404D01*
X123998677Y-164037140D01*
X123998676Y-164037140D01*
X123832288Y-164054628D01*
X123832286Y-164054629D01*
X123825288Y-164055364D01*
X123681955Y-164104158D01*
X123664084Y-164110242D01*
X123653579Y-164113818D01*
X123647575Y-164117512D01*
X123505095Y-164205166D01*
X123505092Y-164205168D01*
X123499088Y-164208862D01*
X123494053Y-164213793D01*
X123494050Y-164213795D01*
X123374525Y-164330843D01*
X123369493Y-164335771D01*
X123271235Y-164488238D01*
X123268826Y-164494858D01*
X123268824Y-164494861D01*
X123232227Y-164595411D01*
X123209197Y-164658685D01*
X123186463Y-164838640D01*
X104000000Y-164838640D01*
X104000000Y-157388640D01*
X121186463Y-157388640D01*
X121204163Y-157569160D01*
X121261418Y-157741273D01*
X121265065Y-157747295D01*
X121265066Y-157747297D01*
X121344085Y-157877773D01*
X121355380Y-157896424D01*
X121481382Y-158026902D01*
X121633159Y-158126222D01*
X121639763Y-158128678D01*
X121639765Y-158128679D01*
X121796558Y-158186990D01*
X121796560Y-158186990D01*
X121803168Y-158189448D01*
X121886995Y-158200633D01*
X121975980Y-158212507D01*
X121975984Y-158212507D01*
X121982961Y-158213438D01*
X121989972Y-158212800D01*
X121989976Y-158212800D01*
X122132459Y-158199832D01*
X122163600Y-158196998D01*
X122170302Y-158194820D01*
X122170304Y-158194820D01*
X122329409Y-158143124D01*
X122329412Y-158143123D01*
X122336108Y-158140947D01*
X122491912Y-158048069D01*
X122623266Y-157922982D01*
X122723643Y-157771902D01*
X122788055Y-157602338D01*
X122789878Y-157589366D01*
X122804034Y-157488640D01*
X131936463Y-157488640D01*
X131954163Y-157669160D01*
X132011418Y-157841273D01*
X132015065Y-157847295D01*
X132015066Y-157847297D01*
X132070225Y-157938375D01*
X132105380Y-157996424D01*
X132110269Y-158001487D01*
X132110270Y-158001488D01*
X132187121Y-158081068D01*
X132231382Y-158126902D01*
X132279096Y-158158125D01*
X132339477Y-158197637D01*
X132383159Y-158226222D01*
X132389763Y-158228678D01*
X132389765Y-158228679D01*
X132546558Y-158286990D01*
X132546560Y-158286990D01*
X132553168Y-158289448D01*
X132636995Y-158300633D01*
X132725980Y-158312507D01*
X132725984Y-158312507D01*
X132732961Y-158313438D01*
X132739972Y-158312800D01*
X132739976Y-158312800D01*
X132882459Y-158299832D01*
X132913600Y-158296998D01*
X132920302Y-158294820D01*
X132920304Y-158294820D01*
X133079409Y-158243124D01*
X133079412Y-158243123D01*
X133086108Y-158240947D01*
X133186665Y-158181003D01*
X133235860Y-158151677D01*
X133235862Y-158151676D01*
X133241912Y-158148069D01*
X133373266Y-158022982D01*
X133473643Y-157871902D01*
X133515423Y-157761917D01*
X133535555Y-157708920D01*
X133535556Y-157708918D01*
X133538055Y-157702338D01*
X133539035Y-157695366D01*
X133562748Y-157526639D01*
X133562748Y-157526636D01*
X133563299Y-157522717D01*
X133563616Y-157500000D01*
X133543397Y-157319745D01*
X133541080Y-157313091D01*
X133486064Y-157155106D01*
X133486062Y-157155103D01*
X133483745Y-157148448D01*
X133410050Y-157030510D01*
X133391359Y-157000598D01*
X133387626Y-156994624D01*
X133368114Y-156974975D01*
X133264778Y-156870915D01*
X133264774Y-156870912D01*
X133259815Y-156865918D01*
X133248697Y-156858862D01*
X133200538Y-156828300D01*
X133106666Y-156768727D01*
X133068582Y-156755166D01*
X132942425Y-156710243D01*
X132942420Y-156710242D01*
X132935790Y-156707881D01*
X132928802Y-156707048D01*
X132928799Y-156707047D01*
X132805698Y-156692368D01*
X132755680Y-156686404D01*
X132748677Y-156687140D01*
X132748676Y-156687140D01*
X132582288Y-156704628D01*
X132582286Y-156704629D01*
X132575288Y-156705364D01*
X132403579Y-156763818D01*
X132397575Y-156767512D01*
X132255095Y-156855166D01*
X132255092Y-156855168D01*
X132249088Y-156858862D01*
X132244053Y-156863793D01*
X132244050Y-156863795D01*
X132132540Y-156972994D01*
X132119493Y-156985771D01*
X132021235Y-157138238D01*
X132018826Y-157144858D01*
X132018824Y-157144861D01*
X131961606Y-157302066D01*
X131959197Y-157308685D01*
X131936463Y-157488640D01*
X122804034Y-157488640D01*
X122812748Y-157426639D01*
X122812748Y-157426636D01*
X122813299Y-157422717D01*
X122813616Y-157400000D01*
X122793397Y-157219745D01*
X122791080Y-157213091D01*
X122736064Y-157055106D01*
X122736062Y-157055103D01*
X122733745Y-157048448D01*
X122637626Y-156894624D01*
X122609120Y-156865918D01*
X122514778Y-156770915D01*
X122514774Y-156770912D01*
X122509815Y-156765918D01*
X122502928Y-156761547D01*
X122413237Y-156704628D01*
X122356666Y-156668727D01*
X122327463Y-156658328D01*
X122192425Y-156610243D01*
X122192420Y-156610242D01*
X122185790Y-156607881D01*
X122178802Y-156607048D01*
X122178799Y-156607047D01*
X122055698Y-156592368D01*
X122005680Y-156586404D01*
X121998677Y-156587140D01*
X121998676Y-156587140D01*
X121832288Y-156604628D01*
X121832286Y-156604629D01*
X121825288Y-156605364D01*
X121653579Y-156663818D01*
X121616866Y-156686404D01*
X121505095Y-156755166D01*
X121505092Y-156755168D01*
X121499088Y-156758862D01*
X121494053Y-156763793D01*
X121494050Y-156763795D01*
X121393621Y-156862143D01*
X121369493Y-156885771D01*
X121271235Y-157038238D01*
X121268826Y-157044858D01*
X121268824Y-157044861D01*
X121230552Y-157150012D01*
X121209197Y-157208685D01*
X121186463Y-157388640D01*
X104000000Y-157388640D01*
X104000000Y-153000000D01*
X87000000Y-153000000D01*
X87000000Y-189366000D01*
X86979998Y-189434121D01*
X86926342Y-189480614D01*
X86874000Y-189492000D01*
X64634000Y-189492000D01*
X64565879Y-189471998D01*
X64519386Y-189418342D01*
X64508000Y-189366000D01*
X64508000Y-186623353D01*
X69110931Y-186623353D01*
X69111382Y-186625476D01*
X69174744Y-186831436D01*
X69178965Y-186841781D01*
X69277799Y-187033268D01*
X69283784Y-187042699D01*
X69414969Y-187213664D01*
X69422522Y-187221877D01*
X69581911Y-187366910D01*
X69590811Y-187373665D01*
X69773344Y-187488167D01*
X69783314Y-187493248D01*
X69983241Y-187573618D01*
X69993941Y-187576849D01*
X70205917Y-187620746D01*
X70215054Y-187621949D01*
X70266161Y-187624896D01*
X70269807Y-187625001D01*
X70322886Y-187625001D01*
X70338125Y-187620526D01*
X70339330Y-187619136D01*
X70341001Y-187611453D01*
X70341001Y-186627116D01*
X70336526Y-186611877D01*
X70335136Y-186610672D01*
X70327453Y-186609001D01*
X69126503Y-186609001D01*
X69112521Y-186613107D01*
X69110931Y-186623353D01*
X64508000Y-186623353D01*
X64508000Y-184083353D01*
X69110931Y-184083353D01*
X69111382Y-184085476D01*
X69174744Y-184291436D01*
X69178965Y-184301781D01*
X69277799Y-184493268D01*
X69283784Y-184502699D01*
X69414969Y-184673664D01*
X69422522Y-184681877D01*
X69581911Y-184826910D01*
X69590811Y-184833665D01*
X69773344Y-184948167D01*
X69783308Y-184953245D01*
X69822148Y-184968858D01*
X69877892Y-185012825D01*
X69901018Y-185079949D01*
X69884182Y-185148921D01*
X69829396Y-185199492D01*
X69712964Y-185255027D01*
X69703353Y-185260711D01*
X69528357Y-185386460D01*
X69519901Y-185393759D01*
X69369945Y-185548501D01*
X69362903Y-185557198D01*
X69242725Y-185736041D01*
X69237336Y-185745844D01*
X69150727Y-185943144D01*
X69147161Y-185953739D01*
X69116035Y-186083386D01*
X69116740Y-186097471D01*
X69125619Y-186101001D01*
X70322886Y-186101001D01*
X70338125Y-186096526D01*
X70339330Y-186095136D01*
X70341001Y-186087453D01*
X70341001Y-184087116D01*
X70336526Y-184071877D01*
X70335136Y-184070672D01*
X70327453Y-184069001D01*
X69126503Y-184069001D01*
X69112521Y-184073107D01*
X69110931Y-184083353D01*
X64508000Y-184083353D01*
X64508000Y-181315070D01*
X69081995Y-181315070D01*
X69109242Y-181540220D01*
X69175928Y-181756988D01*
X69279947Y-181958520D01*
X69418010Y-182138448D01*
X69508418Y-182220713D01*
X69581606Y-182287309D01*
X69581609Y-182287311D01*
X69585753Y-182291082D01*
X69590504Y-182294063D01*
X69590505Y-182294063D01*
X69773119Y-182408617D01*
X69773123Y-182408619D01*
X69777875Y-182411600D01*
X69821538Y-182429152D01*
X69877280Y-182473117D01*
X69900405Y-182540242D01*
X69883568Y-182609213D01*
X69828784Y-182659784D01*
X69712960Y-182715029D01*
X69703353Y-182720711D01*
X69528357Y-182846460D01*
X69519901Y-182853759D01*
X69369945Y-183008501D01*
X69362903Y-183017198D01*
X69242725Y-183196041D01*
X69237336Y-183205844D01*
X69150727Y-183403144D01*
X69147161Y-183413739D01*
X69116035Y-183543386D01*
X69116740Y-183557471D01*
X69125619Y-183561001D01*
X70723001Y-183561001D01*
X70791122Y-183581003D01*
X70837615Y-183634659D01*
X70849001Y-183687001D01*
X70849001Y-187606886D01*
X70853476Y-187622125D01*
X70854866Y-187623330D01*
X70862549Y-187625001D01*
X70887712Y-187625001D01*
X70893307Y-187624752D01*
X71053213Y-187610480D01*
X71064227Y-187608498D01*
X71272066Y-187551640D01*
X71282539Y-187547746D01*
X71477038Y-187454975D01*
X71486649Y-187449291D01*
X71661645Y-187323542D01*
X71670101Y-187316243D01*
X71771434Y-187211676D01*
X71833204Y-187176676D01*
X71904091Y-187180628D01*
X71954641Y-187214058D01*
X71958010Y-187218448D01*
X71962163Y-187222227D01*
X72121606Y-187367309D01*
X72121609Y-187367311D01*
X72125753Y-187371082D01*
X72130504Y-187374063D01*
X72130505Y-187374063D01*
X72313119Y-187488617D01*
X72313123Y-187488619D01*
X72317875Y-187491600D01*
X72528302Y-187576191D01*
X72750383Y-187622182D01*
X72754994Y-187622448D01*
X72754995Y-187622448D01*
X72806122Y-187625396D01*
X72806126Y-187625396D01*
X72807945Y-187625501D01*
X73430536Y-187625501D01*
X73433323Y-187625252D01*
X73433329Y-187625252D01*
X73503507Y-187618988D01*
X73598896Y-187610475D01*
X73817652Y-187550631D01*
X73822710Y-187548219D01*
X73822714Y-187548217D01*
X74017285Y-187455411D01*
X74017286Y-187455410D01*
X74022352Y-187452994D01*
X74027505Y-187449291D01*
X74201967Y-187323927D01*
X74201969Y-187323925D01*
X74206527Y-187320650D01*
X74346041Y-187176684D01*
X74360453Y-187161812D01*
X74360455Y-187161809D01*
X74364356Y-187157784D01*
X74441509Y-187042968D01*
X74487722Y-186974196D01*
X74487725Y-186974191D01*
X74490848Y-186969543D01*
X74582008Y-186761877D01*
X74614729Y-186625584D01*
X74633641Y-186546809D01*
X74633642Y-186546803D01*
X74634951Y-186541350D01*
X74648007Y-186314932D01*
X74620760Y-186089782D01*
X74618793Y-186083386D01*
X74555723Y-185878375D01*
X74554074Y-185873014D01*
X74450055Y-185671482D01*
X74311992Y-185491554D01*
X74221151Y-185408895D01*
X74148396Y-185342693D01*
X74148393Y-185342691D01*
X74144249Y-185338920D01*
X74139497Y-185335939D01*
X73956883Y-185221385D01*
X73956879Y-185221383D01*
X73952127Y-185218402D01*
X73909095Y-185201103D01*
X73853352Y-185157137D01*
X73830227Y-185090012D01*
X73847064Y-185021041D01*
X73901849Y-184970471D01*
X74017285Y-184915411D01*
X74017286Y-184915410D01*
X74022352Y-184912994D01*
X74027505Y-184909291D01*
X74201967Y-184783927D01*
X74201969Y-184783925D01*
X74206527Y-184780650D01*
X74346041Y-184636684D01*
X74360453Y-184621812D01*
X74360455Y-184621809D01*
X74364356Y-184617784D01*
X74441509Y-184502968D01*
X74487722Y-184434196D01*
X74487725Y-184434191D01*
X74490848Y-184429543D01*
X74582008Y-184221877D01*
X74614729Y-184085584D01*
X74633641Y-184006809D01*
X74633642Y-184006803D01*
X74634951Y-184001350D01*
X74648007Y-183774932D01*
X74620760Y-183549782D01*
X74618793Y-183543386D01*
X74555723Y-183338375D01*
X74554074Y-183333014D01*
X74450055Y-183131482D01*
X74311992Y-182951554D01*
X74213583Y-182862009D01*
X74148396Y-182802693D01*
X74148393Y-182802691D01*
X74144249Y-182798920D01*
X74108190Y-182776300D01*
X73956883Y-182681385D01*
X73956879Y-182681383D01*
X73952127Y-182678402D01*
X73909095Y-182661103D01*
X73853352Y-182617137D01*
X73830227Y-182550012D01*
X73847064Y-182481041D01*
X73901849Y-182430471D01*
X74017285Y-182375411D01*
X74017286Y-182375410D01*
X74022352Y-182372994D01*
X74026914Y-182369716D01*
X74201967Y-182243927D01*
X74201969Y-182243925D01*
X74206527Y-182240650D01*
X74364356Y-182077784D01*
X74408071Y-182012728D01*
X74487722Y-181894196D01*
X74487725Y-181894191D01*
X74490848Y-181889543D01*
X74536411Y-181785750D01*
X74551390Y-181751627D01*
X74582008Y-181681877D01*
X74590111Y-181648123D01*
X74633641Y-181466809D01*
X74633642Y-181466803D01*
X74634951Y-181461350D01*
X74648007Y-181234932D01*
X74620760Y-181009782D01*
X74554074Y-180793014D01*
X74488308Y-180665595D01*
X74452627Y-180596465D01*
X74452627Y-180596464D01*
X74450055Y-180591482D01*
X74311992Y-180411554D01*
X74196072Y-180306075D01*
X74148396Y-180262693D01*
X74148393Y-180262691D01*
X74144249Y-180258920D01*
X74018896Y-180180286D01*
X73956883Y-180141385D01*
X73956879Y-180141383D01*
X73952127Y-180138402D01*
X73909095Y-180121103D01*
X73853352Y-180077137D01*
X73830227Y-180010012D01*
X73847064Y-179941041D01*
X73901849Y-179890471D01*
X74017285Y-179835411D01*
X74017286Y-179835410D01*
X74022352Y-179832994D01*
X74026914Y-179829716D01*
X74201967Y-179703927D01*
X74201969Y-179703925D01*
X74206527Y-179700650D01*
X74314061Y-179589684D01*
X74360453Y-179541812D01*
X74360455Y-179541809D01*
X74364356Y-179537784D01*
X74453585Y-179404997D01*
X74487722Y-179354196D01*
X74487725Y-179354191D01*
X74490848Y-179349543D01*
X74513419Y-179298127D01*
X74556042Y-179201029D01*
X74582008Y-179141877D01*
X74614729Y-179005584D01*
X74633641Y-178926809D01*
X74633642Y-178926803D01*
X74634951Y-178921350D01*
X74648007Y-178694932D01*
X74620760Y-178469782D01*
X74554074Y-178253014D01*
X74450055Y-178051482D01*
X74311992Y-177871554D01*
X74196072Y-177766075D01*
X74148396Y-177722693D01*
X74148393Y-177722691D01*
X74144249Y-177718920D01*
X74018896Y-177640286D01*
X73956883Y-177601385D01*
X73956879Y-177601383D01*
X73952127Y-177598402D01*
X73909095Y-177581103D01*
X73853352Y-177537137D01*
X73830227Y-177470012D01*
X73847064Y-177401041D01*
X73901849Y-177350471D01*
X73902380Y-177350218D01*
X74022352Y-177292994D01*
X74027505Y-177289291D01*
X74201967Y-177163927D01*
X74201969Y-177163925D01*
X74206527Y-177160650D01*
X74364356Y-176997784D01*
X74447846Y-176873537D01*
X74487722Y-176814196D01*
X74487725Y-176814191D01*
X74490848Y-176809543D01*
X74582008Y-176601877D01*
X74614729Y-176465584D01*
X74633641Y-176386809D01*
X74633642Y-176386803D01*
X74634951Y-176381350D01*
X74648007Y-176154932D01*
X74620760Y-175929782D01*
X74554074Y-175713014D01*
X74450055Y-175511482D01*
X74311992Y-175331554D01*
X74221151Y-175248895D01*
X74148396Y-175182693D01*
X74148393Y-175182691D01*
X74144249Y-175178920D01*
X74139497Y-175175939D01*
X73956883Y-175061385D01*
X73956879Y-175061383D01*
X73952127Y-175058402D01*
X73909095Y-175041103D01*
X73853352Y-174997137D01*
X73830227Y-174930012D01*
X73847064Y-174861041D01*
X73901849Y-174810471D01*
X74017285Y-174755411D01*
X74017286Y-174755410D01*
X74022352Y-174752994D01*
X74027505Y-174749291D01*
X74201967Y-174623927D01*
X74201969Y-174623925D01*
X74206527Y-174620650D01*
X74364356Y-174457784D01*
X74447846Y-174333537D01*
X74487722Y-174274196D01*
X74487725Y-174274191D01*
X74490848Y-174269543D01*
X74582008Y-174061877D01*
X74615457Y-173922549D01*
X74633641Y-173846809D01*
X74633642Y-173846803D01*
X74634951Y-173841350D01*
X74648007Y-173614932D01*
X74620760Y-173389782D01*
X74554074Y-173173014D01*
X74450055Y-172971482D01*
X74311992Y-172791554D01*
X74221151Y-172708895D01*
X74148396Y-172642693D01*
X74148393Y-172642691D01*
X74144249Y-172638920D01*
X74139497Y-172635939D01*
X73956883Y-172521385D01*
X73956879Y-172521383D01*
X73952127Y-172518402D01*
X73909095Y-172501103D01*
X73853352Y-172457137D01*
X73830227Y-172390012D01*
X73847064Y-172321041D01*
X73901849Y-172270471D01*
X73902380Y-172270218D01*
X74022352Y-172212994D01*
X74027505Y-172209291D01*
X74201967Y-172083927D01*
X74201969Y-172083925D01*
X74206527Y-172080650D01*
X74346041Y-171936684D01*
X74360453Y-171921812D01*
X74360455Y-171921809D01*
X74364356Y-171917784D01*
X74441509Y-171802968D01*
X74487722Y-171734196D01*
X74487725Y-171734191D01*
X74490848Y-171729543D01*
X74582008Y-171521877D01*
X74614729Y-171385584D01*
X74633641Y-171306809D01*
X74633642Y-171306803D01*
X74634951Y-171301350D01*
X74648007Y-171074932D01*
X74620760Y-170849782D01*
X74618793Y-170843386D01*
X74555723Y-170638375D01*
X74554074Y-170633014D01*
X74450055Y-170431482D01*
X74311992Y-170251554D01*
X74221151Y-170168895D01*
X74148396Y-170102693D01*
X74148393Y-170102691D01*
X74144249Y-170098920D01*
X74139497Y-170095939D01*
X73956883Y-169981385D01*
X73956879Y-169981383D01*
X73952127Y-169978402D01*
X73909095Y-169961103D01*
X73853352Y-169917137D01*
X73830227Y-169850012D01*
X73847064Y-169781041D01*
X73901849Y-169730471D01*
X74017285Y-169675411D01*
X74017286Y-169675410D01*
X74022352Y-169672994D01*
X74037442Y-169662151D01*
X74201967Y-169543927D01*
X74201969Y-169543925D01*
X74206527Y-169540650D01*
X74346041Y-169396684D01*
X74360453Y-169381812D01*
X74360455Y-169381809D01*
X74364356Y-169377784D01*
X74441509Y-169262968D01*
X74487722Y-169194196D01*
X74487725Y-169194191D01*
X74490848Y-169189543D01*
X74510463Y-169144861D01*
X74579751Y-168987018D01*
X74582008Y-168981877D01*
X74614729Y-168845584D01*
X74633641Y-168766809D01*
X74633642Y-168766803D01*
X74634951Y-168761350D01*
X74648007Y-168534932D01*
X74620760Y-168309782D01*
X74618793Y-168303386D01*
X74555723Y-168098375D01*
X74554074Y-168093014D01*
X74450055Y-167891482D01*
X74311992Y-167711554D01*
X74221151Y-167628895D01*
X74148396Y-167562693D01*
X74148393Y-167562691D01*
X74144249Y-167558920D01*
X74139497Y-167555939D01*
X73956883Y-167441385D01*
X73956879Y-167441383D01*
X73952127Y-167438402D01*
X73909095Y-167421103D01*
X73853352Y-167377137D01*
X73830227Y-167310012D01*
X73847064Y-167241041D01*
X73901849Y-167190471D01*
X74017285Y-167135411D01*
X74017286Y-167135410D01*
X74022352Y-167132994D01*
X74027505Y-167129291D01*
X74201967Y-167003927D01*
X74201969Y-167003925D01*
X74206527Y-167000650D01*
X74364356Y-166837784D01*
X74447846Y-166713537D01*
X74487722Y-166654196D01*
X74487725Y-166654191D01*
X74490848Y-166649543D01*
X74582008Y-166441877D01*
X74615457Y-166302549D01*
X74633641Y-166226809D01*
X74633642Y-166226803D01*
X74634951Y-166221350D01*
X74648007Y-165994932D01*
X74620760Y-165769782D01*
X74554074Y-165553014D01*
X74450055Y-165351482D01*
X74311992Y-165171554D01*
X74221151Y-165088895D01*
X74148396Y-165022693D01*
X74148393Y-165022691D01*
X74144249Y-165018920D01*
X74133458Y-165012151D01*
X73956883Y-164901385D01*
X73956879Y-164901383D01*
X73952127Y-164898402D01*
X73909095Y-164881103D01*
X73853352Y-164837137D01*
X73830227Y-164770012D01*
X73847064Y-164701041D01*
X73901849Y-164650471D01*
X74017285Y-164595411D01*
X74017286Y-164595410D01*
X74022352Y-164592994D01*
X74027505Y-164589291D01*
X74201967Y-164463927D01*
X74201969Y-164463925D01*
X74206527Y-164460650D01*
X74312123Y-164351684D01*
X74360453Y-164301812D01*
X74360455Y-164301809D01*
X74364356Y-164297784D01*
X74424109Y-164208862D01*
X74487722Y-164114196D01*
X74487725Y-164114191D01*
X74490848Y-164109543D01*
X74512490Y-164060243D01*
X74579751Y-163907018D01*
X74582008Y-163901877D01*
X74615457Y-163762549D01*
X74633641Y-163686809D01*
X74633642Y-163686803D01*
X74634951Y-163681350D01*
X74648007Y-163454932D01*
X74620760Y-163229782D01*
X74554074Y-163013014D01*
X74450055Y-162811482D01*
X74311992Y-162631554D01*
X74221151Y-162548895D01*
X74148396Y-162482693D01*
X74148393Y-162482691D01*
X74144249Y-162478920D01*
X74139497Y-162475939D01*
X73956883Y-162361385D01*
X73956879Y-162361383D01*
X73952127Y-162358402D01*
X73909095Y-162341103D01*
X73853352Y-162297137D01*
X73830227Y-162230012D01*
X73847064Y-162161041D01*
X73901849Y-162110471D01*
X73902380Y-162110218D01*
X74022352Y-162052994D01*
X74027505Y-162049291D01*
X74201967Y-161923927D01*
X74201969Y-161923925D01*
X74206527Y-161920650D01*
X74346041Y-161776684D01*
X74360453Y-161761812D01*
X74360455Y-161761809D01*
X74364356Y-161757784D01*
X74441509Y-161642968D01*
X74487722Y-161574196D01*
X74487725Y-161574191D01*
X74490848Y-161569543D01*
X74582008Y-161361877D01*
X74614729Y-161225584D01*
X74633641Y-161146809D01*
X74633642Y-161146803D01*
X74634951Y-161141350D01*
X74648007Y-160914932D01*
X74620760Y-160689782D01*
X74618793Y-160683386D01*
X74555723Y-160478375D01*
X74554074Y-160473014D01*
X74450055Y-160271482D01*
X74311992Y-160091554D01*
X74221151Y-160008895D01*
X74148396Y-159942693D01*
X74148393Y-159942691D01*
X74144249Y-159938920D01*
X74139497Y-159935939D01*
X73956883Y-159821385D01*
X73956879Y-159821383D01*
X73952127Y-159818402D01*
X73909095Y-159801103D01*
X73853352Y-159757137D01*
X73830227Y-159690012D01*
X73847064Y-159621041D01*
X73901849Y-159570471D01*
X74017285Y-159515411D01*
X74017286Y-159515410D01*
X74022352Y-159512994D01*
X74027505Y-159509291D01*
X74201967Y-159383927D01*
X74201969Y-159383925D01*
X74206527Y-159380650D01*
X74346041Y-159236684D01*
X74360453Y-159221812D01*
X74360455Y-159221809D01*
X74364356Y-159217784D01*
X74441509Y-159102968D01*
X74487722Y-159034196D01*
X74487725Y-159034191D01*
X74490848Y-159029543D01*
X74582008Y-158821877D01*
X74614729Y-158685584D01*
X74633641Y-158606809D01*
X74633642Y-158606803D01*
X74634951Y-158601350D01*
X74648007Y-158374932D01*
X74620760Y-158149782D01*
X74618793Y-158143386D01*
X74582957Y-158026902D01*
X74554074Y-157933014D01*
X74450055Y-157731482D01*
X74311992Y-157551554D01*
X74221151Y-157468895D01*
X74148396Y-157402693D01*
X74148393Y-157402691D01*
X74144249Y-157398920D01*
X74029191Y-157326744D01*
X73956883Y-157281385D01*
X73956879Y-157281383D01*
X73952127Y-157278402D01*
X73909095Y-157261103D01*
X73853352Y-157217137D01*
X73830227Y-157150012D01*
X73847064Y-157081041D01*
X73901849Y-157030471D01*
X74017285Y-156975411D01*
X74017286Y-156975410D01*
X74022352Y-156972994D01*
X74131415Y-156894624D01*
X74201967Y-156843927D01*
X74201969Y-156843925D01*
X74206527Y-156840650D01*
X74337629Y-156705364D01*
X74360453Y-156681812D01*
X74360455Y-156681809D01*
X74364356Y-156677784D01*
X74425266Y-156587140D01*
X74487722Y-156494196D01*
X74487725Y-156494191D01*
X74490848Y-156489543D01*
X74582008Y-156281877D01*
X74615457Y-156142549D01*
X74633641Y-156066809D01*
X74633642Y-156066803D01*
X74634951Y-156061350D01*
X74648007Y-155834932D01*
X74620760Y-155609782D01*
X74554074Y-155393014D01*
X74450055Y-155191482D01*
X74311992Y-155011554D01*
X74221151Y-154928895D01*
X74148396Y-154862693D01*
X74148393Y-154862691D01*
X74144249Y-154858920D01*
X74139497Y-154855939D01*
X73956883Y-154741385D01*
X73956879Y-154741383D01*
X73952127Y-154738402D01*
X73909095Y-154721103D01*
X73853352Y-154677137D01*
X73830227Y-154610012D01*
X73847064Y-154541041D01*
X73901849Y-154490471D01*
X73902380Y-154490218D01*
X74022352Y-154432994D01*
X74027505Y-154429291D01*
X74201967Y-154303927D01*
X74201969Y-154303925D01*
X74206527Y-154300650D01*
X74346041Y-154156684D01*
X74360453Y-154141812D01*
X74360455Y-154141809D01*
X74364356Y-154137784D01*
X74441509Y-154022968D01*
X74487722Y-153954196D01*
X74487725Y-153954191D01*
X74490848Y-153949543D01*
X74582008Y-153741877D01*
X74614729Y-153605584D01*
X74633641Y-153526809D01*
X74633642Y-153526803D01*
X74634951Y-153521350D01*
X74648007Y-153294932D01*
X74620760Y-153069782D01*
X74618793Y-153063386D01*
X74555723Y-152858375D01*
X74554074Y-152853014D01*
X74450055Y-152651482D01*
X74311992Y-152471554D01*
X74221151Y-152388895D01*
X74148396Y-152322693D01*
X74148393Y-152322691D01*
X74144249Y-152318920D01*
X74139497Y-152315939D01*
X73956883Y-152201385D01*
X73956879Y-152201383D01*
X73952127Y-152198402D01*
X73909095Y-152181103D01*
X73853352Y-152137137D01*
X73830227Y-152070012D01*
X73847064Y-152001041D01*
X73901849Y-151950471D01*
X74017285Y-151895411D01*
X74017286Y-151895410D01*
X74022352Y-151892994D01*
X74027505Y-151889291D01*
X74201967Y-151763927D01*
X74201969Y-151763925D01*
X74206527Y-151760650D01*
X74346041Y-151616684D01*
X74360453Y-151601812D01*
X74360455Y-151601809D01*
X74364356Y-151597784D01*
X74441509Y-151482968D01*
X74487722Y-151414196D01*
X74487725Y-151414191D01*
X74490848Y-151409543D01*
X74582008Y-151201877D01*
X74614729Y-151065584D01*
X74633641Y-150986809D01*
X74633642Y-150986803D01*
X74634951Y-150981350D01*
X74648007Y-150754932D01*
X74620760Y-150529782D01*
X74618793Y-150523386D01*
X74588785Y-150425844D01*
X74554074Y-150313014D01*
X74515687Y-150238640D01*
X98461463Y-150238640D01*
X98479163Y-150419160D01*
X98536418Y-150591273D01*
X98540065Y-150597295D01*
X98540066Y-150597297D01*
X98550978Y-150615314D01*
X98630380Y-150746424D01*
X98756382Y-150876902D01*
X98908159Y-150976222D01*
X98914763Y-150978678D01*
X98914765Y-150978679D01*
X99071558Y-151036990D01*
X99071560Y-151036990D01*
X99078168Y-151039448D01*
X99149763Y-151049001D01*
X99250980Y-151062507D01*
X99250984Y-151062507D01*
X99257961Y-151063438D01*
X99264972Y-151062800D01*
X99264976Y-151062800D01*
X99416591Y-151049001D01*
X99438600Y-151046998D01*
X99445302Y-151044820D01*
X99445304Y-151044820D01*
X99604409Y-150993124D01*
X99604412Y-150993123D01*
X99611108Y-150990947D01*
X99766912Y-150898069D01*
X99898266Y-150772982D01*
X99998643Y-150621902D01*
X100063055Y-150452338D01*
X100064035Y-150445366D01*
X100087748Y-150276639D01*
X100087748Y-150276636D01*
X100088299Y-150272717D01*
X100088616Y-150250000D01*
X100068397Y-150069745D01*
X100066080Y-150063091D01*
X100011064Y-149905106D01*
X100011062Y-149905103D01*
X100008745Y-149898448D01*
X99912626Y-149744624D01*
X99898941Y-149730843D01*
X99789778Y-149620915D01*
X99789774Y-149620912D01*
X99784815Y-149615918D01*
X99773697Y-149608862D01*
X99718465Y-149573811D01*
X99631666Y-149518727D01*
X99602463Y-149508328D01*
X99467425Y-149460243D01*
X99467420Y-149460242D01*
X99460790Y-149457881D01*
X99453802Y-149457048D01*
X99453799Y-149457047D01*
X99330698Y-149442368D01*
X99280680Y-149436404D01*
X99273677Y-149437140D01*
X99273676Y-149437140D01*
X99107288Y-149454628D01*
X99107286Y-149454629D01*
X99100288Y-149455364D01*
X98928579Y-149513818D01*
X98902256Y-149530012D01*
X98780095Y-149605166D01*
X98780092Y-149605168D01*
X98774088Y-149608862D01*
X98769053Y-149613793D01*
X98769050Y-149613795D01*
X98686099Y-149695027D01*
X98644493Y-149735771D01*
X98546235Y-149888238D01*
X98543826Y-149894858D01*
X98543824Y-149894861D01*
X98486606Y-150052066D01*
X98484197Y-150058685D01*
X98461463Y-150238640D01*
X74515687Y-150238640D01*
X74450055Y-150111482D01*
X74311992Y-149931554D01*
X74221151Y-149848895D01*
X74148396Y-149782693D01*
X74148393Y-149782691D01*
X74144249Y-149778920D01*
X74067608Y-149730843D01*
X73956883Y-149661385D01*
X73956879Y-149661383D01*
X73952127Y-149658402D01*
X73909095Y-149641103D01*
X73853352Y-149597137D01*
X73830227Y-149530012D01*
X73847064Y-149461041D01*
X73901849Y-149410471D01*
X74017285Y-149355411D01*
X74017286Y-149355410D01*
X74022352Y-149352994D01*
X74027505Y-149349291D01*
X74201967Y-149223927D01*
X74201969Y-149223925D01*
X74206527Y-149220650D01*
X74364356Y-149057784D01*
X74447846Y-148933537D01*
X74487722Y-148874196D01*
X74487725Y-148874191D01*
X74490848Y-148869543D01*
X74582008Y-148661877D01*
X74615457Y-148522549D01*
X74633641Y-148446809D01*
X74633642Y-148446803D01*
X74634951Y-148441350D01*
X74648007Y-148214932D01*
X74620760Y-147989782D01*
X74554074Y-147773014D01*
X74450055Y-147571482D01*
X74311992Y-147391554D01*
X74221151Y-147308895D01*
X74148396Y-147242693D01*
X74148393Y-147242691D01*
X74144249Y-147238920D01*
X74139497Y-147235939D01*
X73956883Y-147121385D01*
X73956879Y-147121383D01*
X73952127Y-147118402D01*
X73909095Y-147101103D01*
X73853352Y-147057137D01*
X73830227Y-146990012D01*
X73847064Y-146921041D01*
X73901849Y-146870471D01*
X73902380Y-146870218D01*
X74022352Y-146812994D01*
X74027505Y-146809291D01*
X74201967Y-146683927D01*
X74201969Y-146683925D01*
X74206527Y-146680650D01*
X74342219Y-146540628D01*
X74360453Y-146521812D01*
X74360455Y-146521809D01*
X74364356Y-146517784D01*
X74408071Y-146452728D01*
X74487722Y-146334196D01*
X74487725Y-146334191D01*
X74490848Y-146329543D01*
X74582008Y-146121877D01*
X74614481Y-145986616D01*
X74633641Y-145906809D01*
X74633642Y-145906803D01*
X74634951Y-145901350D01*
X74648007Y-145674932D01*
X74620760Y-145449782D01*
X74618793Y-145443386D01*
X74555723Y-145238375D01*
X74554074Y-145233014D01*
X74450055Y-145031482D01*
X74311992Y-144851554D01*
X74221151Y-144768895D01*
X74148396Y-144702693D01*
X74148393Y-144702691D01*
X74144249Y-144698920D01*
X74139497Y-144695939D01*
X73956883Y-144581385D01*
X73956879Y-144581383D01*
X73952127Y-144578402D01*
X73909095Y-144561103D01*
X73853352Y-144517137D01*
X73830227Y-144450012D01*
X73847064Y-144381041D01*
X73901849Y-144330471D01*
X74017285Y-144275411D01*
X74017286Y-144275410D01*
X74022352Y-144272994D01*
X74027505Y-144269291D01*
X74201967Y-144143927D01*
X74201969Y-144143925D01*
X74206527Y-144140650D01*
X74345691Y-143997045D01*
X74360453Y-143981812D01*
X74360455Y-143981809D01*
X74364356Y-143977784D01*
X74441509Y-143862968D01*
X74487722Y-143794196D01*
X74487725Y-143794191D01*
X74490848Y-143789543D01*
X74512181Y-143740947D01*
X74579751Y-143587018D01*
X74582008Y-143581877D01*
X74597557Y-143517111D01*
X74633641Y-143366809D01*
X74633642Y-143366803D01*
X74634951Y-143361350D01*
X74646033Y-143169160D01*
X74647684Y-143140538D01*
X74647684Y-143140535D01*
X74648007Y-143134932D01*
X74630303Y-142988640D01*
X126186463Y-142988640D01*
X126204163Y-143169160D01*
X126261418Y-143341273D01*
X126265065Y-143347295D01*
X126265066Y-143347297D01*
X126315560Y-143430672D01*
X126355380Y-143496424D01*
X126481382Y-143626902D01*
X126633159Y-143726222D01*
X126639763Y-143728678D01*
X126639765Y-143728679D01*
X126796558Y-143786990D01*
X126796560Y-143786990D01*
X126803168Y-143789448D01*
X126886995Y-143800633D01*
X126975980Y-143812507D01*
X126975984Y-143812507D01*
X126982961Y-143813438D01*
X126989972Y-143812800D01*
X126989976Y-143812800D01*
X127132459Y-143799832D01*
X127163600Y-143796998D01*
X127170302Y-143794820D01*
X127170304Y-143794820D01*
X127329409Y-143743124D01*
X127329412Y-143743123D01*
X127336108Y-143740947D01*
X127432513Y-143683478D01*
X127485860Y-143651677D01*
X127485862Y-143651676D01*
X127491912Y-143648069D01*
X127623266Y-143522982D01*
X127723643Y-143371902D01*
X127783219Y-143215070D01*
X140201995Y-143215070D01*
X140229242Y-143440220D01*
X140230892Y-143445582D01*
X140230892Y-143445584D01*
X140246532Y-143496424D01*
X140295928Y-143656988D01*
X140399947Y-143858520D01*
X140538010Y-144038448D01*
X140628851Y-144121107D01*
X140701606Y-144187309D01*
X140701609Y-144187311D01*
X140705753Y-144191082D01*
X140710504Y-144194063D01*
X140710505Y-144194063D01*
X140893119Y-144308617D01*
X140893123Y-144308619D01*
X140897875Y-144311600D01*
X140941538Y-144329152D01*
X140997280Y-144373117D01*
X141020405Y-144440242D01*
X141003568Y-144509213D01*
X140948784Y-144559784D01*
X140832960Y-144615029D01*
X140823353Y-144620711D01*
X140648357Y-144746460D01*
X140639901Y-144753759D01*
X140489945Y-144908501D01*
X140482903Y-144917198D01*
X140362725Y-145096041D01*
X140357336Y-145105844D01*
X140270727Y-145303144D01*
X140267161Y-145313739D01*
X140236035Y-145443386D01*
X140236740Y-145457471D01*
X140245619Y-145461001D01*
X145723499Y-145461001D01*
X145737481Y-145456895D01*
X145739071Y-145446649D01*
X145738620Y-145444526D01*
X145675258Y-145238566D01*
X145671037Y-145228221D01*
X145572203Y-145036734D01*
X145566218Y-145027303D01*
X145435033Y-144856338D01*
X145427480Y-144848125D01*
X145268091Y-144703092D01*
X145259191Y-144696337D01*
X145076658Y-144581835D01*
X145066688Y-144576754D01*
X145028484Y-144561396D01*
X144972740Y-144517429D01*
X144949615Y-144450304D01*
X144966452Y-144381333D01*
X145021237Y-144330763D01*
X145137285Y-144275411D01*
X145137286Y-144275410D01*
X145142352Y-144272994D01*
X145147505Y-144269291D01*
X145321967Y-144143927D01*
X145321969Y-144143925D01*
X145326527Y-144140650D01*
X145465691Y-143997045D01*
X145480453Y-143981812D01*
X145480455Y-143981809D01*
X145484356Y-143977784D01*
X145561509Y-143862968D01*
X145607722Y-143794196D01*
X145607725Y-143794191D01*
X145610848Y-143789543D01*
X145632181Y-143740947D01*
X145699751Y-143587018D01*
X145702008Y-143581877D01*
X145717557Y-143517111D01*
X145753641Y-143366809D01*
X145753642Y-143366803D01*
X145754951Y-143361350D01*
X145766033Y-143169160D01*
X145767684Y-143140538D01*
X145767684Y-143140535D01*
X145768007Y-143134932D01*
X145740760Y-142909782D01*
X145738793Y-142903386D01*
X145709659Y-142808685D01*
X145674074Y-142693014D01*
X145570055Y-142491482D01*
X145431992Y-142311554D01*
X145333973Y-142222364D01*
X145268396Y-142162693D01*
X145268393Y-142162691D01*
X145264249Y-142158920D01*
X145205129Y-142121834D01*
X145076883Y-142041385D01*
X145076879Y-142041383D01*
X145072127Y-142038402D01*
X145028464Y-142020850D01*
X144972722Y-141976885D01*
X144949597Y-141909760D01*
X144966434Y-141840789D01*
X145021218Y-141790218D01*
X145137042Y-141734973D01*
X145146649Y-141729291D01*
X145321645Y-141603542D01*
X145330101Y-141596243D01*
X145480057Y-141441501D01*
X145487099Y-141432804D01*
X145607277Y-141253961D01*
X145612666Y-141244158D01*
X145699275Y-141046858D01*
X145702841Y-141036263D01*
X145733967Y-140906616D01*
X145733262Y-140892531D01*
X145724383Y-140889001D01*
X144127001Y-140889001D01*
X144058880Y-140868999D01*
X144012387Y-140815343D01*
X144001001Y-140763001D01*
X144001001Y-140507001D01*
X144021003Y-140438880D01*
X144074659Y-140392387D01*
X144127001Y-140381001D01*
X145723499Y-140381001D01*
X145737481Y-140376895D01*
X145739071Y-140366649D01*
X145738620Y-140364526D01*
X145675258Y-140158566D01*
X145671037Y-140148221D01*
X145572203Y-139956734D01*
X145566218Y-139947303D01*
X145435033Y-139776338D01*
X145427480Y-139768125D01*
X145268091Y-139623092D01*
X145259191Y-139616337D01*
X145076658Y-139501835D01*
X145066688Y-139496754D01*
X145028484Y-139481396D01*
X144972740Y-139437429D01*
X144949615Y-139370304D01*
X144966452Y-139301333D01*
X145021237Y-139250763D01*
X145137285Y-139195411D01*
X145137286Y-139195410D01*
X145142352Y-139192994D01*
X145146914Y-139189716D01*
X145321967Y-139063927D01*
X145321969Y-139063925D01*
X145326527Y-139060650D01*
X145409803Y-138974716D01*
X145480453Y-138901812D01*
X145480455Y-138901809D01*
X145484356Y-138897784D01*
X145528071Y-138832728D01*
X145607722Y-138714196D01*
X145607725Y-138714191D01*
X145610848Y-138709543D01*
X145702008Y-138501877D01*
X145710111Y-138468123D01*
X145753641Y-138286809D01*
X145753642Y-138286803D01*
X145754951Y-138281350D01*
X145768007Y-138054932D01*
X145740760Y-137829782D01*
X145674074Y-137613014D01*
X145570055Y-137411482D01*
X145431992Y-137231554D01*
X145319673Y-137129352D01*
X145268396Y-137082693D01*
X145268393Y-137082691D01*
X145264249Y-137078920D01*
X145259497Y-137075939D01*
X145076883Y-136961385D01*
X145076879Y-136961383D01*
X145072127Y-136958402D01*
X144861700Y-136873811D01*
X144639619Y-136827820D01*
X144635008Y-136827554D01*
X144635007Y-136827554D01*
X144583880Y-136824606D01*
X144583876Y-136824606D01*
X144582057Y-136824501D01*
X143959466Y-136824501D01*
X143956679Y-136824750D01*
X143956673Y-136824750D01*
X143886495Y-136831014D01*
X143791106Y-136839527D01*
X143572350Y-136899371D01*
X143567292Y-136901783D01*
X143567288Y-136901785D01*
X143424818Y-136969740D01*
X143367650Y-136997008D01*
X143293127Y-137050558D01*
X143226139Y-137074065D01*
X143157073Y-137057624D01*
X143118778Y-137023800D01*
X143083644Y-136976921D01*
X143083643Y-136976920D01*
X143078262Y-136969740D01*
X142961706Y-136882386D01*
X142825317Y-136831256D01*
X142763135Y-136824501D01*
X140666867Y-136824501D01*
X140604685Y-136831256D01*
X140468296Y-136882386D01*
X140351740Y-136969740D01*
X140264386Y-137086296D01*
X140213256Y-137222685D01*
X140206501Y-137284867D01*
X140206501Y-138905135D01*
X140213256Y-138967317D01*
X140264386Y-139103706D01*
X140351740Y-139220262D01*
X140468296Y-139307616D01*
X140604685Y-139358746D01*
X140666867Y-139365501D01*
X140675058Y-139365501D01*
X140743179Y-139385503D01*
X140789672Y-139439159D01*
X140799776Y-139509433D01*
X140770282Y-139574013D01*
X140748588Y-139593820D01*
X140643475Y-139669352D01*
X140570447Y-139744711D01*
X140503954Y-139813326D01*
X140485646Y-139832218D01*
X140482519Y-139836872D01*
X140362280Y-140015806D01*
X140362277Y-140015811D01*
X140359154Y-140020459D01*
X140267994Y-140228125D01*
X140266684Y-140233582D01*
X140216361Y-140443193D01*
X140216360Y-140443199D01*
X140215051Y-140448652D01*
X140201995Y-140675070D01*
X140229242Y-140900220D01*
X140230892Y-140905582D01*
X140230892Y-140905584D01*
X140231363Y-140907116D01*
X140295928Y-141116988D01*
X140399947Y-141318520D01*
X140538010Y-141498448D01*
X140568992Y-141526639D01*
X140701606Y-141647309D01*
X140701609Y-141647311D01*
X140705753Y-141651082D01*
X140710504Y-141654063D01*
X140710505Y-141654063D01*
X140893119Y-141768617D01*
X140893123Y-141768619D01*
X140897875Y-141771600D01*
X140940907Y-141788899D01*
X140996650Y-141832865D01*
X141019775Y-141899990D01*
X141002938Y-141968961D01*
X140948153Y-142019531D01*
X140827650Y-142077008D01*
X140823089Y-142080285D01*
X140823088Y-142080286D01*
X140649025Y-142205364D01*
X140643475Y-142209352D01*
X140588228Y-142266362D01*
X140502171Y-142355166D01*
X140485646Y-142372218D01*
X140482519Y-142376872D01*
X140362280Y-142555806D01*
X140362277Y-142555811D01*
X140359154Y-142560459D01*
X140267994Y-142768125D01*
X140266684Y-142773582D01*
X140216361Y-142983193D01*
X140216360Y-142983199D01*
X140215051Y-142988652D01*
X140214624Y-142996062D01*
X140202350Y-143208920D01*
X140201995Y-143215070D01*
X127783219Y-143215070D01*
X127788055Y-143202338D01*
X127789035Y-143195366D01*
X127812748Y-143026639D01*
X127812748Y-143026636D01*
X127813299Y-143022717D01*
X127813616Y-143000000D01*
X127793397Y-142819745D01*
X127791080Y-142813091D01*
X127736064Y-142655106D01*
X127736062Y-142655103D01*
X127733745Y-142648448D01*
X127637626Y-142494624D01*
X127623941Y-142480843D01*
X127514778Y-142370915D01*
X127514774Y-142370912D01*
X127509815Y-142365918D01*
X127498697Y-142358862D01*
X127431155Y-142315999D01*
X127356666Y-142268727D01*
X127327463Y-142258328D01*
X127192425Y-142210243D01*
X127192420Y-142210242D01*
X127185790Y-142207881D01*
X127178802Y-142207048D01*
X127178799Y-142207047D01*
X127055698Y-142192368D01*
X127005680Y-142186404D01*
X126998677Y-142187140D01*
X126998676Y-142187140D01*
X126832288Y-142204628D01*
X126832286Y-142204629D01*
X126825288Y-142205364D01*
X126653579Y-142263818D01*
X126647575Y-142267512D01*
X126505095Y-142355166D01*
X126505092Y-142355168D01*
X126499088Y-142358862D01*
X126494053Y-142363793D01*
X126494050Y-142363795D01*
X126423649Y-142432737D01*
X126369493Y-142485771D01*
X126271235Y-142638238D01*
X126268826Y-142644858D01*
X126268824Y-142644861D01*
X126221916Y-142773739D01*
X126209197Y-142808685D01*
X126186463Y-142988640D01*
X74630303Y-142988640D01*
X74620760Y-142909782D01*
X74618793Y-142903386D01*
X74589659Y-142808685D01*
X74554074Y-142693014D01*
X74450055Y-142491482D01*
X74311992Y-142311554D01*
X74213973Y-142222364D01*
X74148396Y-142162693D01*
X74148393Y-142162691D01*
X74144249Y-142158920D01*
X74085129Y-142121834D01*
X73956883Y-142041385D01*
X73956879Y-142041383D01*
X73952127Y-142038402D01*
X73909095Y-142021103D01*
X73853352Y-141977137D01*
X73830227Y-141910012D01*
X73847064Y-141841041D01*
X73901849Y-141790471D01*
X73902380Y-141790218D01*
X74022352Y-141732994D01*
X74027505Y-141729291D01*
X74201967Y-141603927D01*
X74201969Y-141603925D01*
X74206527Y-141600650D01*
X74305568Y-141498448D01*
X74315073Y-141488640D01*
X101436463Y-141488640D01*
X101454163Y-141669160D01*
X101511418Y-141841273D01*
X101515065Y-141847295D01*
X101515066Y-141847297D01*
X101593724Y-141977177D01*
X101605380Y-141996424D01*
X101610269Y-142001487D01*
X101610270Y-142001488D01*
X101681287Y-142075027D01*
X101731382Y-142126902D01*
X101786686Y-142163092D01*
X101864114Y-142213759D01*
X101883159Y-142226222D01*
X101889763Y-142228678D01*
X101889765Y-142228679D01*
X102046558Y-142286990D01*
X102046560Y-142286990D01*
X102053168Y-142289448D01*
X102136995Y-142300633D01*
X102225980Y-142312507D01*
X102225984Y-142312507D01*
X102232961Y-142313438D01*
X102239972Y-142312800D01*
X102239976Y-142312800D01*
X102382459Y-142299832D01*
X102413600Y-142296998D01*
X102420302Y-142294820D01*
X102420304Y-142294820D01*
X102579409Y-142243124D01*
X102579412Y-142243123D01*
X102586108Y-142240947D01*
X102717380Y-142162693D01*
X102735860Y-142151677D01*
X102735862Y-142151676D01*
X102741912Y-142148069D01*
X102873266Y-142022982D01*
X102973643Y-141871902D01*
X103027655Y-141729716D01*
X103035555Y-141708920D01*
X103035556Y-141708918D01*
X103038055Y-141702338D01*
X103039035Y-141695366D01*
X103062748Y-141526639D01*
X103062748Y-141526636D01*
X103063299Y-141522717D01*
X103063616Y-141500000D01*
X103043397Y-141319745D01*
X103041080Y-141313091D01*
X102986064Y-141155106D01*
X102986062Y-141155103D01*
X102983745Y-141148448D01*
X102973662Y-141132312D01*
X102891359Y-141000598D01*
X102887626Y-140994624D01*
X102800727Y-140907116D01*
X102764778Y-140870915D01*
X102764774Y-140870912D01*
X102759815Y-140865918D01*
X102748697Y-140858862D01*
X102680121Y-140815343D01*
X102606666Y-140768727D01*
X102577463Y-140758328D01*
X102442425Y-140710243D01*
X102442420Y-140710242D01*
X102435790Y-140707881D01*
X102428802Y-140707048D01*
X102428799Y-140707047D01*
X102305698Y-140692368D01*
X102255680Y-140686404D01*
X102248677Y-140687140D01*
X102248676Y-140687140D01*
X102082288Y-140704628D01*
X102082286Y-140704629D01*
X102075288Y-140705364D01*
X101903579Y-140763818D01*
X101897575Y-140767512D01*
X101755095Y-140855166D01*
X101755092Y-140855168D01*
X101749088Y-140858862D01*
X101744053Y-140863793D01*
X101744050Y-140863795D01*
X101624525Y-140980843D01*
X101619493Y-140985771D01*
X101521235Y-141138238D01*
X101518826Y-141144858D01*
X101518824Y-141144861D01*
X101482683Y-141244158D01*
X101459197Y-141308685D01*
X101436463Y-141488640D01*
X74315073Y-141488640D01*
X74360453Y-141441812D01*
X74360455Y-141441809D01*
X74364356Y-141437784D01*
X74408071Y-141372728D01*
X74487722Y-141254196D01*
X74487725Y-141254191D01*
X74490848Y-141249543D01*
X74532304Y-141155106D01*
X74579751Y-141047018D01*
X74582008Y-141041877D01*
X74614729Y-140905584D01*
X74633641Y-140826809D01*
X74633642Y-140826803D01*
X74634951Y-140821350D01*
X74648007Y-140594932D01*
X74620760Y-140369782D01*
X74618793Y-140363386D01*
X74555723Y-140158375D01*
X74554074Y-140153014D01*
X74450055Y-139951482D01*
X74311992Y-139771554D01*
X74221151Y-139688895D01*
X74148396Y-139622693D01*
X74148393Y-139622691D01*
X74144249Y-139618920D01*
X74026562Y-139545095D01*
X73956883Y-139501385D01*
X73956879Y-139501383D01*
X73952127Y-139498402D01*
X73909095Y-139481103D01*
X73853352Y-139437137D01*
X73830227Y-139370012D01*
X73847064Y-139301041D01*
X73901849Y-139250471D01*
X74017285Y-139195411D01*
X74017286Y-139195410D01*
X74022352Y-139192994D01*
X74026914Y-139189716D01*
X74201967Y-139063927D01*
X74201969Y-139063925D01*
X74206527Y-139060650D01*
X74289803Y-138974716D01*
X74360453Y-138901812D01*
X74360455Y-138901809D01*
X74364356Y-138897784D01*
X74408071Y-138832728D01*
X74487722Y-138714196D01*
X74487725Y-138714191D01*
X74490848Y-138709543D01*
X74582008Y-138501877D01*
X74590111Y-138468123D01*
X74633641Y-138286809D01*
X74633642Y-138286803D01*
X74634951Y-138281350D01*
X74648007Y-138054932D01*
X74620760Y-137829782D01*
X74554074Y-137613014D01*
X74450055Y-137411482D01*
X74311992Y-137231554D01*
X74199673Y-137129352D01*
X74148396Y-137082693D01*
X74148393Y-137082691D01*
X74144249Y-137078920D01*
X74139497Y-137075939D01*
X73956883Y-136961385D01*
X73956879Y-136961383D01*
X73952127Y-136958402D01*
X73741700Y-136873811D01*
X73519619Y-136827820D01*
X73515008Y-136827554D01*
X73515007Y-136827554D01*
X73463880Y-136824606D01*
X73463876Y-136824606D01*
X73462057Y-136824501D01*
X72839466Y-136824501D01*
X72836679Y-136824750D01*
X72836673Y-136824750D01*
X72766495Y-136831014D01*
X72671106Y-136839527D01*
X72452350Y-136899371D01*
X72447292Y-136901783D01*
X72447288Y-136901785D01*
X72304818Y-136969740D01*
X72247650Y-136997008D01*
X72173127Y-137050558D01*
X72106139Y-137074065D01*
X72037073Y-137057624D01*
X71998778Y-137023800D01*
X71963644Y-136976921D01*
X71963643Y-136976920D01*
X71958262Y-136969740D01*
X71841706Y-136882386D01*
X71705317Y-136831256D01*
X71643135Y-136824501D01*
X69546867Y-136824501D01*
X69484685Y-136831256D01*
X69348296Y-136882386D01*
X69231740Y-136969740D01*
X69144386Y-137086296D01*
X69093256Y-137222685D01*
X69086501Y-137284867D01*
X69086501Y-138905135D01*
X69093256Y-138967317D01*
X69144386Y-139103706D01*
X69231740Y-139220262D01*
X69348296Y-139307616D01*
X69484685Y-139358746D01*
X69546867Y-139365501D01*
X69555914Y-139365501D01*
X69624035Y-139385503D01*
X69670528Y-139439159D01*
X69680632Y-139509433D01*
X69651138Y-139574013D01*
X69629440Y-139593823D01*
X69528361Y-139666456D01*
X69519901Y-139673759D01*
X69369945Y-139828501D01*
X69362903Y-139837198D01*
X69242725Y-140016041D01*
X69237336Y-140025844D01*
X69150727Y-140223144D01*
X69147161Y-140233739D01*
X69116035Y-140363386D01*
X69116740Y-140377471D01*
X69125619Y-140381001D01*
X70723001Y-140381001D01*
X70791122Y-140401003D01*
X70837615Y-140454659D01*
X70849001Y-140507001D01*
X70849001Y-145843001D01*
X70828999Y-145911122D01*
X70775343Y-145957615D01*
X70723001Y-145969001D01*
X69126503Y-145969001D01*
X69112521Y-145973107D01*
X69110931Y-145983353D01*
X69111382Y-145985476D01*
X69174744Y-146191436D01*
X69178965Y-146201781D01*
X69277799Y-146393268D01*
X69283784Y-146402699D01*
X69414969Y-146573664D01*
X69422522Y-146581877D01*
X69581911Y-146726910D01*
X69590811Y-146733665D01*
X69773344Y-146848167D01*
X69783314Y-146853248D01*
X69821518Y-146868606D01*
X69877262Y-146912573D01*
X69900387Y-146979698D01*
X69883550Y-147048669D01*
X69828765Y-147099239D01*
X69781392Y-147121835D01*
X69707650Y-147157008D01*
X69703089Y-147160285D01*
X69703088Y-147160286D01*
X69597253Y-147236337D01*
X69523475Y-147289352D01*
X69450447Y-147364711D01*
X69383954Y-147433326D01*
X69365646Y-147452218D01*
X69362519Y-147456872D01*
X69242280Y-147635806D01*
X69242277Y-147635811D01*
X69239154Y-147640459D01*
X69147994Y-147848125D01*
X69146684Y-147853582D01*
X69096361Y-148063193D01*
X69096360Y-148063199D01*
X69095051Y-148068652D01*
X69081995Y-148295070D01*
X69109242Y-148520220D01*
X69110892Y-148525582D01*
X69110892Y-148525584D01*
X69136683Y-148609418D01*
X69175928Y-148736988D01*
X69279947Y-148938520D01*
X69418010Y-149118448D01*
X69508851Y-149201107D01*
X69581606Y-149267309D01*
X69581609Y-149267311D01*
X69585753Y-149271082D01*
X69590504Y-149274063D01*
X69590505Y-149274063D01*
X69773119Y-149388617D01*
X69773123Y-149388619D01*
X69777875Y-149391600D01*
X69821538Y-149409152D01*
X69877280Y-149453117D01*
X69900405Y-149520242D01*
X69883568Y-149589213D01*
X69828784Y-149639784D01*
X69712960Y-149695029D01*
X69703353Y-149700711D01*
X69528357Y-149826460D01*
X69519901Y-149833759D01*
X69369945Y-149988501D01*
X69362903Y-149997198D01*
X69242725Y-150176041D01*
X69237336Y-150185844D01*
X69150727Y-150383144D01*
X69147161Y-150393739D01*
X69116035Y-150523386D01*
X69116740Y-150537471D01*
X69125619Y-150541001D01*
X70723001Y-150541001D01*
X70791122Y-150561003D01*
X70837615Y-150614659D01*
X70849001Y-150667001D01*
X70849001Y-153463001D01*
X70828999Y-153531122D01*
X70775343Y-153577615D01*
X70723001Y-153589001D01*
X69126503Y-153589001D01*
X69112521Y-153593107D01*
X69110931Y-153603353D01*
X69111382Y-153605476D01*
X69174744Y-153811436D01*
X69178965Y-153821781D01*
X69277799Y-154013268D01*
X69283784Y-154022699D01*
X69414969Y-154193664D01*
X69422522Y-154201877D01*
X69581911Y-154346910D01*
X69590811Y-154353665D01*
X69773344Y-154468167D01*
X69783314Y-154473248D01*
X69821518Y-154488606D01*
X69877262Y-154532573D01*
X69900387Y-154599698D01*
X69883550Y-154668669D01*
X69828765Y-154719239D01*
X69781392Y-154741835D01*
X69707650Y-154777008D01*
X69703089Y-154780285D01*
X69703088Y-154780286D01*
X69597253Y-154856337D01*
X69523475Y-154909352D01*
X69450447Y-154984711D01*
X69383954Y-155053326D01*
X69365646Y-155072218D01*
X69362519Y-155076872D01*
X69242280Y-155255806D01*
X69242277Y-155255811D01*
X69239154Y-155260459D01*
X69147994Y-155468125D01*
X69146684Y-155473582D01*
X69096361Y-155683193D01*
X69096360Y-155683199D01*
X69095051Y-155688652D01*
X69081995Y-155915070D01*
X69109242Y-156140220D01*
X69110892Y-156145582D01*
X69110892Y-156145584D01*
X69136683Y-156229418D01*
X69175928Y-156356988D01*
X69279947Y-156558520D01*
X69418010Y-156738448D01*
X69508851Y-156821107D01*
X69581606Y-156887309D01*
X69581609Y-156887311D01*
X69585753Y-156891082D01*
X69590504Y-156894063D01*
X69590505Y-156894063D01*
X69773119Y-157008617D01*
X69773123Y-157008619D01*
X69777875Y-157011600D01*
X69821538Y-157029152D01*
X69877280Y-157073117D01*
X69900405Y-157140242D01*
X69883568Y-157209213D01*
X69828784Y-157259784D01*
X69712960Y-157315029D01*
X69703353Y-157320711D01*
X69528357Y-157446460D01*
X69519901Y-157453759D01*
X69369945Y-157608501D01*
X69362903Y-157617198D01*
X69242725Y-157796041D01*
X69237336Y-157805844D01*
X69150727Y-158003144D01*
X69147161Y-158013739D01*
X69116035Y-158143386D01*
X69116740Y-158157471D01*
X69125619Y-158161001D01*
X70723001Y-158161001D01*
X70791122Y-158181003D01*
X70837615Y-158234659D01*
X70849001Y-158287001D01*
X70849001Y-161083001D01*
X70828999Y-161151122D01*
X70775343Y-161197615D01*
X70723001Y-161209001D01*
X69126503Y-161209001D01*
X69112521Y-161213107D01*
X69110931Y-161223353D01*
X69111382Y-161225476D01*
X69174744Y-161431436D01*
X69178965Y-161441781D01*
X69277799Y-161633268D01*
X69283784Y-161642699D01*
X69414969Y-161813664D01*
X69422522Y-161821877D01*
X69581911Y-161966910D01*
X69590811Y-161973665D01*
X69773344Y-162088167D01*
X69783314Y-162093248D01*
X69821518Y-162108606D01*
X69877262Y-162152573D01*
X69900387Y-162219698D01*
X69883550Y-162288669D01*
X69828765Y-162339239D01*
X69781392Y-162361835D01*
X69707650Y-162397008D01*
X69703089Y-162400285D01*
X69703088Y-162400286D01*
X69597253Y-162476337D01*
X69523475Y-162529352D01*
X69450447Y-162604711D01*
X69383954Y-162673326D01*
X69365646Y-162692218D01*
X69362519Y-162696872D01*
X69242280Y-162875806D01*
X69242277Y-162875811D01*
X69239154Y-162880459D01*
X69147994Y-163088125D01*
X69146684Y-163093582D01*
X69096361Y-163303193D01*
X69096360Y-163303199D01*
X69095051Y-163308652D01*
X69081995Y-163535070D01*
X69109242Y-163760220D01*
X69110892Y-163765582D01*
X69110892Y-163765584D01*
X69136683Y-163849418D01*
X69175928Y-163976988D01*
X69279947Y-164178520D01*
X69418010Y-164358448D01*
X69508851Y-164441107D01*
X69581606Y-164507309D01*
X69581609Y-164507311D01*
X69585753Y-164511082D01*
X69590504Y-164514063D01*
X69590505Y-164514063D01*
X69773119Y-164628617D01*
X69773123Y-164628619D01*
X69777875Y-164631600D01*
X69820907Y-164648899D01*
X69876650Y-164692865D01*
X69899775Y-164759990D01*
X69882938Y-164828961D01*
X69828153Y-164879531D01*
X69707650Y-164937008D01*
X69703089Y-164940285D01*
X69703088Y-164940286D01*
X69537993Y-165058920D01*
X69523475Y-165069352D01*
X69450447Y-165144711D01*
X69369954Y-165227773D01*
X69365646Y-165232218D01*
X69362519Y-165236872D01*
X69242280Y-165415806D01*
X69242277Y-165415811D01*
X69239154Y-165420459D01*
X69236901Y-165425591D01*
X69236899Y-165425595D01*
X69214377Y-165476902D01*
X69147994Y-165628125D01*
X69146684Y-165633582D01*
X69096361Y-165843193D01*
X69096360Y-165843199D01*
X69095051Y-165848652D01*
X69081995Y-166075070D01*
X69109242Y-166300220D01*
X69110892Y-166305582D01*
X69110892Y-166305584D01*
X69136683Y-166389418D01*
X69175928Y-166516988D01*
X69279947Y-166718520D01*
X69418010Y-166898448D01*
X69508851Y-166981107D01*
X69581606Y-167047309D01*
X69581609Y-167047311D01*
X69585753Y-167051082D01*
X69590504Y-167054063D01*
X69590505Y-167054063D01*
X69773119Y-167168617D01*
X69773123Y-167168619D01*
X69777875Y-167171600D01*
X69821538Y-167189152D01*
X69877280Y-167233117D01*
X69900405Y-167300242D01*
X69883568Y-167369213D01*
X69828784Y-167419784D01*
X69712960Y-167475029D01*
X69703353Y-167480711D01*
X69528357Y-167606460D01*
X69519901Y-167613759D01*
X69369945Y-167768501D01*
X69362903Y-167777198D01*
X69242725Y-167956041D01*
X69237336Y-167965844D01*
X69150727Y-168163144D01*
X69147161Y-168173739D01*
X69116035Y-168303386D01*
X69116740Y-168317471D01*
X69125619Y-168321001D01*
X70723001Y-168321001D01*
X70791122Y-168341003D01*
X70837615Y-168394659D01*
X70849001Y-168447001D01*
X70849001Y-171243001D01*
X70828999Y-171311122D01*
X70775343Y-171357615D01*
X70723001Y-171369001D01*
X69126503Y-171369001D01*
X69112521Y-171373107D01*
X69110931Y-171383353D01*
X69111382Y-171385476D01*
X69174744Y-171591436D01*
X69178965Y-171601781D01*
X69277799Y-171793268D01*
X69283784Y-171802699D01*
X69414969Y-171973664D01*
X69422522Y-171981877D01*
X69581911Y-172126910D01*
X69590811Y-172133665D01*
X69773344Y-172248167D01*
X69783314Y-172253248D01*
X69821518Y-172268606D01*
X69877262Y-172312573D01*
X69900387Y-172379698D01*
X69883550Y-172448669D01*
X69828765Y-172499239D01*
X69781392Y-172521835D01*
X69707650Y-172557008D01*
X69703089Y-172560285D01*
X69703088Y-172560286D01*
X69597253Y-172636337D01*
X69523475Y-172689352D01*
X69450447Y-172764711D01*
X69383954Y-172833326D01*
X69365646Y-172852218D01*
X69362519Y-172856872D01*
X69242280Y-173035806D01*
X69242277Y-173035811D01*
X69239154Y-173040459D01*
X69147994Y-173248125D01*
X69146684Y-173253582D01*
X69096361Y-173463193D01*
X69096360Y-173463199D01*
X69095051Y-173468652D01*
X69081995Y-173695070D01*
X69109242Y-173920220D01*
X69110892Y-173925582D01*
X69110892Y-173925584D01*
X69136683Y-174009418D01*
X69175928Y-174136988D01*
X69279947Y-174338520D01*
X69418010Y-174518448D01*
X69508851Y-174601107D01*
X69581606Y-174667309D01*
X69581609Y-174667311D01*
X69585753Y-174671082D01*
X69590504Y-174674063D01*
X69590505Y-174674063D01*
X69773119Y-174788617D01*
X69773123Y-174788619D01*
X69777875Y-174791600D01*
X69820907Y-174808899D01*
X69876650Y-174852865D01*
X69899775Y-174919990D01*
X69882938Y-174988961D01*
X69828153Y-175039531D01*
X69707650Y-175097008D01*
X69703089Y-175100285D01*
X69703088Y-175100286D01*
X69597253Y-175176337D01*
X69523475Y-175229352D01*
X69450447Y-175304711D01*
X69383954Y-175373326D01*
X69365646Y-175392218D01*
X69362519Y-175396872D01*
X69242280Y-175575806D01*
X69242277Y-175575811D01*
X69239154Y-175580459D01*
X69147994Y-175788125D01*
X69146684Y-175793582D01*
X69096361Y-176003193D01*
X69096360Y-176003199D01*
X69095051Y-176008652D01*
X69081995Y-176235070D01*
X69109242Y-176460220D01*
X69110892Y-176465582D01*
X69110892Y-176465584D01*
X69136683Y-176549418D01*
X69175928Y-176676988D01*
X69279947Y-176878520D01*
X69418010Y-177058448D01*
X69508851Y-177141107D01*
X69581606Y-177207309D01*
X69581609Y-177207311D01*
X69585753Y-177211082D01*
X69590504Y-177214063D01*
X69590505Y-177214063D01*
X69773119Y-177328617D01*
X69773123Y-177328619D01*
X69777875Y-177331600D01*
X69820907Y-177348899D01*
X69876650Y-177392865D01*
X69899775Y-177459990D01*
X69882938Y-177528961D01*
X69828153Y-177579531D01*
X69707650Y-177637008D01*
X69703089Y-177640285D01*
X69703088Y-177640286D01*
X69597807Y-177715939D01*
X69523475Y-177769352D01*
X69365646Y-177932218D01*
X69362519Y-177936872D01*
X69242280Y-178115806D01*
X69242277Y-178115811D01*
X69239154Y-178120459D01*
X69147994Y-178328125D01*
X69146684Y-178333582D01*
X69096361Y-178543193D01*
X69096360Y-178543199D01*
X69095051Y-178548652D01*
X69081995Y-178775070D01*
X69109242Y-179000220D01*
X69175928Y-179216988D01*
X69279947Y-179418520D01*
X69418010Y-179598448D01*
X69445839Y-179623770D01*
X69581606Y-179747309D01*
X69581609Y-179747311D01*
X69585753Y-179751082D01*
X69590504Y-179754063D01*
X69590505Y-179754063D01*
X69773119Y-179868617D01*
X69773123Y-179868619D01*
X69777875Y-179871600D01*
X69820907Y-179888899D01*
X69876650Y-179932865D01*
X69899775Y-179999990D01*
X69882938Y-180068961D01*
X69828153Y-180119531D01*
X69707650Y-180177008D01*
X69703089Y-180180285D01*
X69703088Y-180180286D01*
X69597807Y-180255939D01*
X69523475Y-180309352D01*
X69365646Y-180472218D01*
X69362519Y-180476872D01*
X69242280Y-180655806D01*
X69242277Y-180655811D01*
X69239154Y-180660459D01*
X69147994Y-180868125D01*
X69146684Y-180873582D01*
X69096361Y-181083193D01*
X69096360Y-181083199D01*
X69095051Y-181088652D01*
X69081995Y-181315070D01*
X64508000Y-181315070D01*
X64508000Y-168843353D01*
X69110931Y-168843353D01*
X69111382Y-168845476D01*
X69174744Y-169051436D01*
X69178965Y-169061781D01*
X69277799Y-169253268D01*
X69283784Y-169262699D01*
X69414969Y-169433664D01*
X69422522Y-169441877D01*
X69581911Y-169586910D01*
X69590811Y-169593665D01*
X69773344Y-169708167D01*
X69783308Y-169713245D01*
X69822148Y-169728858D01*
X69877892Y-169772825D01*
X69901018Y-169839949D01*
X69884182Y-169908921D01*
X69829396Y-169959492D01*
X69712964Y-170015027D01*
X69703353Y-170020711D01*
X69528357Y-170146460D01*
X69519901Y-170153759D01*
X69369945Y-170308501D01*
X69362903Y-170317198D01*
X69242725Y-170496041D01*
X69237336Y-170505844D01*
X69150727Y-170703144D01*
X69147161Y-170713739D01*
X69116035Y-170843386D01*
X69116740Y-170857471D01*
X69125619Y-170861001D01*
X70322886Y-170861001D01*
X70338125Y-170856526D01*
X70339330Y-170855136D01*
X70341001Y-170847453D01*
X70341001Y-168847116D01*
X70336526Y-168831877D01*
X70335136Y-168830672D01*
X70327453Y-168829001D01*
X69126503Y-168829001D01*
X69112521Y-168833107D01*
X69110931Y-168843353D01*
X64508000Y-168843353D01*
X64508000Y-158683353D01*
X69110931Y-158683353D01*
X69111382Y-158685476D01*
X69174744Y-158891436D01*
X69178965Y-158901781D01*
X69277799Y-159093268D01*
X69283784Y-159102699D01*
X69414969Y-159273664D01*
X69422522Y-159281877D01*
X69581911Y-159426910D01*
X69590811Y-159433665D01*
X69773344Y-159548167D01*
X69783308Y-159553245D01*
X69822148Y-159568858D01*
X69877892Y-159612825D01*
X69901018Y-159679949D01*
X69884182Y-159748921D01*
X69829396Y-159799492D01*
X69712964Y-159855027D01*
X69703353Y-159860711D01*
X69528357Y-159986460D01*
X69519901Y-159993759D01*
X69369945Y-160148501D01*
X69362903Y-160157198D01*
X69242725Y-160336041D01*
X69237336Y-160345844D01*
X69150727Y-160543144D01*
X69147161Y-160553739D01*
X69116035Y-160683386D01*
X69116740Y-160697471D01*
X69125619Y-160701001D01*
X70322886Y-160701001D01*
X70338125Y-160696526D01*
X70339330Y-160695136D01*
X70341001Y-160687453D01*
X70341001Y-158687116D01*
X70336526Y-158671877D01*
X70335136Y-158670672D01*
X70327453Y-158669001D01*
X69126503Y-158669001D01*
X69112521Y-158673107D01*
X69110931Y-158683353D01*
X64508000Y-158683353D01*
X64508000Y-151063353D01*
X69110931Y-151063353D01*
X69111382Y-151065476D01*
X69174744Y-151271436D01*
X69178965Y-151281781D01*
X69277799Y-151473268D01*
X69283784Y-151482699D01*
X69414969Y-151653664D01*
X69422522Y-151661877D01*
X69581911Y-151806910D01*
X69590811Y-151813665D01*
X69773344Y-151928167D01*
X69783308Y-151933245D01*
X69822148Y-151948858D01*
X69877892Y-151992825D01*
X69901018Y-152059949D01*
X69884182Y-152128921D01*
X69829396Y-152179492D01*
X69712964Y-152235027D01*
X69703353Y-152240711D01*
X69528357Y-152366460D01*
X69519901Y-152373759D01*
X69369945Y-152528501D01*
X69362903Y-152537198D01*
X69242725Y-152716041D01*
X69237336Y-152725844D01*
X69150727Y-152923144D01*
X69147161Y-152933739D01*
X69116035Y-153063386D01*
X69116740Y-153077471D01*
X69125619Y-153081001D01*
X70322886Y-153081001D01*
X70338125Y-153076526D01*
X70339330Y-153075136D01*
X70341001Y-153067453D01*
X70341001Y-151067116D01*
X70336526Y-151051877D01*
X70335136Y-151050672D01*
X70327453Y-151049001D01*
X69126503Y-151049001D01*
X69112521Y-151053107D01*
X69110931Y-151063353D01*
X64508000Y-151063353D01*
X64508000Y-143443353D01*
X69110931Y-143443353D01*
X69111382Y-143445476D01*
X69174744Y-143651436D01*
X69178965Y-143661781D01*
X69277799Y-143853268D01*
X69283784Y-143862699D01*
X69414969Y-144033664D01*
X69422522Y-144041877D01*
X69581911Y-144186910D01*
X69590811Y-144193665D01*
X69773344Y-144308167D01*
X69783308Y-144313245D01*
X69822148Y-144328858D01*
X69877892Y-144372825D01*
X69901018Y-144439949D01*
X69884182Y-144508921D01*
X69829396Y-144559492D01*
X69712964Y-144615027D01*
X69703353Y-144620711D01*
X69528357Y-144746460D01*
X69519901Y-144753759D01*
X69369945Y-144908501D01*
X69362903Y-144917198D01*
X69242725Y-145096041D01*
X69237336Y-145105844D01*
X69150727Y-145303144D01*
X69147161Y-145313739D01*
X69116035Y-145443386D01*
X69116740Y-145457471D01*
X69125619Y-145461001D01*
X70322886Y-145461001D01*
X70338125Y-145456526D01*
X70339330Y-145455136D01*
X70341001Y-145447453D01*
X70341001Y-143447116D01*
X70336526Y-143431877D01*
X70335136Y-143430672D01*
X70327453Y-143429001D01*
X69126503Y-143429001D01*
X69112521Y-143433107D01*
X69110931Y-143443353D01*
X64508000Y-143443353D01*
X64508000Y-140903353D01*
X69110931Y-140903353D01*
X69111382Y-140905476D01*
X69174744Y-141111436D01*
X69178965Y-141121781D01*
X69277799Y-141313268D01*
X69283784Y-141322699D01*
X69414969Y-141493664D01*
X69422522Y-141501877D01*
X69581911Y-141646910D01*
X69590811Y-141653665D01*
X69773344Y-141768167D01*
X69783308Y-141773245D01*
X69822148Y-141788858D01*
X69877892Y-141832825D01*
X69901018Y-141899949D01*
X69884182Y-141968921D01*
X69829396Y-142019492D01*
X69712964Y-142075027D01*
X69703353Y-142080711D01*
X69528357Y-142206460D01*
X69519901Y-142213759D01*
X69369945Y-142368501D01*
X69362903Y-142377198D01*
X69242725Y-142556041D01*
X69237336Y-142565844D01*
X69150727Y-142763144D01*
X69147161Y-142773739D01*
X69116035Y-142903386D01*
X69116740Y-142917471D01*
X69125619Y-142921001D01*
X70322886Y-142921001D01*
X70338125Y-142916526D01*
X70339330Y-142915136D01*
X70341001Y-142907453D01*
X70341001Y-140907116D01*
X70336526Y-140891877D01*
X70335136Y-140890672D01*
X70327453Y-140889001D01*
X69126503Y-140889001D01*
X69112521Y-140893107D01*
X69110931Y-140903353D01*
X64508000Y-140903353D01*
X64508000Y-134238640D01*
X126186463Y-134238640D01*
X126204163Y-134419160D01*
X126261418Y-134591273D01*
X126265065Y-134597295D01*
X126265066Y-134597297D01*
X126275978Y-134615314D01*
X126355380Y-134746424D01*
X126481382Y-134876902D01*
X126633159Y-134976222D01*
X126639763Y-134978678D01*
X126639765Y-134978679D01*
X126796558Y-135036990D01*
X126796560Y-135036990D01*
X126803168Y-135039448D01*
X126886995Y-135050633D01*
X126975980Y-135062507D01*
X126975984Y-135062507D01*
X126982961Y-135063438D01*
X126989972Y-135062800D01*
X126989976Y-135062800D01*
X127132459Y-135049832D01*
X127163600Y-135046998D01*
X127170302Y-135044820D01*
X127170304Y-135044820D01*
X127329409Y-134993124D01*
X127329412Y-134993123D01*
X127336108Y-134990947D01*
X127491912Y-134898069D01*
X127623266Y-134772982D01*
X127723643Y-134621902D01*
X127788055Y-134452338D01*
X127789035Y-134445366D01*
X127812748Y-134276639D01*
X127812748Y-134276636D01*
X127813299Y-134272717D01*
X127813616Y-134250000D01*
X127793397Y-134069745D01*
X127791080Y-134063091D01*
X127736064Y-133905106D01*
X127736062Y-133905103D01*
X127733745Y-133898448D01*
X127637626Y-133744624D01*
X127623941Y-133730843D01*
X127514778Y-133620915D01*
X127514774Y-133620912D01*
X127509815Y-133615918D01*
X127498697Y-133608862D01*
X127450538Y-133578300D01*
X127356666Y-133518727D01*
X127327463Y-133508328D01*
X127192425Y-133460243D01*
X127192420Y-133460242D01*
X127185790Y-133457881D01*
X127178802Y-133457048D01*
X127178799Y-133457047D01*
X127055698Y-133442368D01*
X127005680Y-133436404D01*
X126998677Y-133437140D01*
X126998676Y-133437140D01*
X126832288Y-133454628D01*
X126832286Y-133454629D01*
X126825288Y-133455364D01*
X126653579Y-133513818D01*
X126647575Y-133517512D01*
X126505095Y-133605166D01*
X126505092Y-133605168D01*
X126499088Y-133608862D01*
X126494053Y-133613793D01*
X126494050Y-133613795D01*
X126374525Y-133730843D01*
X126369493Y-133735771D01*
X126271235Y-133888238D01*
X126268826Y-133894858D01*
X126268824Y-133894861D01*
X126211606Y-134052066D01*
X126209197Y-134058685D01*
X126186463Y-134238640D01*
X64508000Y-134238640D01*
X64508000Y-128988640D01*
X107436463Y-128988640D01*
X107454163Y-129169160D01*
X107511418Y-129341273D01*
X107515065Y-129347295D01*
X107515066Y-129347297D01*
X107525978Y-129365314D01*
X107605380Y-129496424D01*
X107731382Y-129626902D01*
X107883159Y-129726222D01*
X107889763Y-129728678D01*
X107889765Y-129728679D01*
X108046558Y-129786990D01*
X108046560Y-129786990D01*
X108053168Y-129789448D01*
X108136995Y-129800633D01*
X108225980Y-129812507D01*
X108225984Y-129812507D01*
X108232961Y-129813438D01*
X108239972Y-129812800D01*
X108239976Y-129812800D01*
X108382459Y-129799832D01*
X108413600Y-129796998D01*
X108420302Y-129794820D01*
X108420304Y-129794820D01*
X108579409Y-129743124D01*
X108579412Y-129743123D01*
X108586108Y-129740947D01*
X108741912Y-129648069D01*
X108873266Y-129522982D01*
X108973643Y-129371902D01*
X109022345Y-129243694D01*
X109035555Y-129208920D01*
X109035556Y-129208918D01*
X109038055Y-129202338D01*
X109039035Y-129195366D01*
X109062748Y-129026639D01*
X109062748Y-129026636D01*
X109063299Y-129022717D01*
X109063616Y-129000000D01*
X109043397Y-128819745D01*
X109041080Y-128813091D01*
X108986064Y-128655106D01*
X108986062Y-128655103D01*
X108983745Y-128648448D01*
X108887626Y-128494624D01*
X108850793Y-128457533D01*
X108813059Y-128419534D01*
X138936463Y-128419534D01*
X138954163Y-128600054D01*
X139011418Y-128772167D01*
X139015065Y-128778189D01*
X139015066Y-128778191D01*
X139044471Y-128826744D01*
X139105380Y-128927318D01*
X139231382Y-129057796D01*
X139383159Y-129157116D01*
X139389763Y-129159572D01*
X139389765Y-129159573D01*
X139546558Y-129217884D01*
X139546560Y-129217884D01*
X139553168Y-129220342D01*
X139636995Y-129231527D01*
X139725980Y-129243401D01*
X139725984Y-129243401D01*
X139732961Y-129244332D01*
X139739972Y-129243694D01*
X139739976Y-129243694D01*
X139882459Y-129230726D01*
X139913600Y-129227892D01*
X139920302Y-129225714D01*
X139920304Y-129225714D01*
X140079409Y-129174018D01*
X140079412Y-129174017D01*
X140086108Y-129171841D01*
X140241912Y-129078963D01*
X140373266Y-128953876D01*
X140473643Y-128802796D01*
X140538055Y-128633232D01*
X140539035Y-128626260D01*
X140562748Y-128457533D01*
X140562748Y-128457530D01*
X140563299Y-128453611D01*
X140563616Y-128430894D01*
X140543397Y-128250639D01*
X140540022Y-128240947D01*
X140486064Y-128086000D01*
X140486062Y-128085997D01*
X140483745Y-128079342D01*
X140387626Y-127925518D01*
X140303967Y-127841273D01*
X140264778Y-127801809D01*
X140264774Y-127801806D01*
X140259815Y-127796812D01*
X140248697Y-127789756D01*
X140200538Y-127759194D01*
X140106666Y-127699621D01*
X140077463Y-127689222D01*
X139942425Y-127641137D01*
X139942420Y-127641136D01*
X139935790Y-127638775D01*
X139928802Y-127637942D01*
X139928799Y-127637941D01*
X139805698Y-127623262D01*
X139755680Y-127617298D01*
X139748677Y-127618034D01*
X139748676Y-127618034D01*
X139582288Y-127635522D01*
X139582286Y-127635523D01*
X139575288Y-127636258D01*
X139403579Y-127694712D01*
X139341109Y-127733144D01*
X139255095Y-127786060D01*
X139255092Y-127786062D01*
X139249088Y-127789756D01*
X139244053Y-127794687D01*
X139244050Y-127794689D01*
X139165203Y-127871902D01*
X139119493Y-127916665D01*
X139021235Y-128069132D01*
X139018826Y-128075752D01*
X139018824Y-128075755D01*
X138963164Y-128228679D01*
X138959197Y-128239579D01*
X138936463Y-128419534D01*
X108813059Y-128419534D01*
X108764778Y-128370915D01*
X108764774Y-128370912D01*
X108759815Y-128365918D01*
X108748697Y-128358862D01*
X108647782Y-128294820D01*
X108606666Y-128268727D01*
X108544439Y-128246569D01*
X108442425Y-128210243D01*
X108442420Y-128210242D01*
X108435790Y-128207881D01*
X108428802Y-128207048D01*
X108428799Y-128207047D01*
X108305698Y-128192368D01*
X108255680Y-128186404D01*
X108248677Y-128187140D01*
X108248676Y-128187140D01*
X108082288Y-128204628D01*
X108082286Y-128204629D01*
X108075288Y-128205364D01*
X107903579Y-128263818D01*
X107897575Y-128267512D01*
X107755095Y-128355166D01*
X107755092Y-128355168D01*
X107749088Y-128358862D01*
X107744053Y-128363793D01*
X107744050Y-128363795D01*
X107624525Y-128480843D01*
X107619493Y-128485771D01*
X107521235Y-128638238D01*
X107518826Y-128644858D01*
X107518824Y-128644861D01*
X107470296Y-128778191D01*
X107459197Y-128808685D01*
X107436463Y-128988640D01*
X64508000Y-128988640D01*
X64508000Y-127488640D01*
X73686463Y-127488640D01*
X73704163Y-127669160D01*
X73761418Y-127841273D01*
X73765065Y-127847295D01*
X73765066Y-127847297D01*
X73807077Y-127916665D01*
X73855380Y-127996424D01*
X73981382Y-128126902D01*
X73987278Y-128130760D01*
X74108741Y-128210243D01*
X74133159Y-128226222D01*
X74139763Y-128228678D01*
X74139765Y-128228679D01*
X74296558Y-128286990D01*
X74296560Y-128286990D01*
X74303168Y-128289448D01*
X74386995Y-128300633D01*
X74475980Y-128312507D01*
X74475984Y-128312507D01*
X74482961Y-128313438D01*
X74489972Y-128312800D01*
X74489976Y-128312800D01*
X74632459Y-128299832D01*
X74663600Y-128296998D01*
X74670302Y-128294820D01*
X74670304Y-128294820D01*
X74829409Y-128243124D01*
X74829412Y-128243123D01*
X74836108Y-128240947D01*
X74991912Y-128148069D01*
X75123266Y-128022982D01*
X75223643Y-127871902D01*
X75288055Y-127702338D01*
X75289446Y-127692441D01*
X75312748Y-127526639D01*
X75312748Y-127526636D01*
X75313299Y-127522717D01*
X75313616Y-127500000D01*
X75293397Y-127319745D01*
X75291080Y-127313091D01*
X75236064Y-127155106D01*
X75236062Y-127155103D01*
X75233745Y-127148448D01*
X75137626Y-126994624D01*
X75123941Y-126980843D01*
X75014778Y-126870915D01*
X75014774Y-126870912D01*
X75009815Y-126865918D01*
X74998697Y-126858862D01*
X74950538Y-126828300D01*
X74856666Y-126768727D01*
X74827463Y-126758328D01*
X74692425Y-126710243D01*
X74692420Y-126710242D01*
X74685790Y-126707881D01*
X74678802Y-126707048D01*
X74678799Y-126707047D01*
X74555698Y-126692368D01*
X74505680Y-126686404D01*
X74498677Y-126687140D01*
X74498676Y-126687140D01*
X74332288Y-126704628D01*
X74332286Y-126704629D01*
X74325288Y-126705364D01*
X74153579Y-126763818D01*
X74147575Y-126767512D01*
X74005095Y-126855166D01*
X74005092Y-126855168D01*
X73999088Y-126858862D01*
X73994053Y-126863793D01*
X73994050Y-126863795D01*
X73874525Y-126980843D01*
X73869493Y-126985771D01*
X73771235Y-127138238D01*
X73768826Y-127144858D01*
X73768824Y-127144861D01*
X73711606Y-127302066D01*
X73709197Y-127308685D01*
X73686463Y-127488640D01*
X64508000Y-127488640D01*
X64508000Y-125738640D01*
X83186463Y-125738640D01*
X83204163Y-125919160D01*
X83261418Y-126091273D01*
X83265065Y-126097295D01*
X83265066Y-126097297D01*
X83275978Y-126115314D01*
X83355380Y-126246424D01*
X83481382Y-126376902D01*
X83633159Y-126476222D01*
X83639763Y-126478678D01*
X83639765Y-126478679D01*
X83796558Y-126536990D01*
X83796560Y-126536990D01*
X83803168Y-126539448D01*
X83886995Y-126550633D01*
X83975980Y-126562507D01*
X83975984Y-126562507D01*
X83982961Y-126563438D01*
X83989972Y-126562800D01*
X83989976Y-126562800D01*
X84132459Y-126549832D01*
X84163600Y-126546998D01*
X84170302Y-126544820D01*
X84170304Y-126544820D01*
X84329409Y-126493124D01*
X84329412Y-126493123D01*
X84336108Y-126490947D01*
X84491912Y-126398069D01*
X84623266Y-126272982D01*
X84723643Y-126121902D01*
X84788055Y-125952338D01*
X84789035Y-125945366D01*
X84812748Y-125776639D01*
X84812748Y-125776636D01*
X84813299Y-125772717D01*
X84813616Y-125750000D01*
X84812342Y-125738640D01*
X94436463Y-125738640D01*
X94454163Y-125919160D01*
X94511418Y-126091273D01*
X94515065Y-126097295D01*
X94515066Y-126097297D01*
X94525978Y-126115314D01*
X94605380Y-126246424D01*
X94731382Y-126376902D01*
X94883159Y-126476222D01*
X94889763Y-126478678D01*
X94889765Y-126478679D01*
X95046558Y-126536990D01*
X95046560Y-126536990D01*
X95053168Y-126539448D01*
X95136995Y-126550633D01*
X95225980Y-126562507D01*
X95225984Y-126562507D01*
X95232961Y-126563438D01*
X95239972Y-126562800D01*
X95239976Y-126562800D01*
X95382459Y-126549832D01*
X95413600Y-126546998D01*
X95420302Y-126544820D01*
X95420304Y-126544820D01*
X95579409Y-126493124D01*
X95579412Y-126493123D01*
X95586108Y-126490947D01*
X95741912Y-126398069D01*
X95873266Y-126272982D01*
X95973643Y-126121902D01*
X96038055Y-125952338D01*
X96039035Y-125945366D01*
X96062748Y-125776639D01*
X96062748Y-125776636D01*
X96063299Y-125772717D01*
X96063616Y-125750000D01*
X96043397Y-125569745D01*
X96041080Y-125563091D01*
X95986064Y-125405106D01*
X95986062Y-125405103D01*
X95983745Y-125398448D01*
X95887626Y-125244624D01*
X95873941Y-125230843D01*
X95764778Y-125120915D01*
X95764774Y-125120912D01*
X95759815Y-125115918D01*
X95748697Y-125108862D01*
X95700538Y-125078300D01*
X95606666Y-125018727D01*
X95577463Y-125008328D01*
X95442425Y-124960243D01*
X95442420Y-124960242D01*
X95435790Y-124957881D01*
X95428802Y-124957048D01*
X95428799Y-124957047D01*
X95305698Y-124942368D01*
X95255680Y-124936404D01*
X95248677Y-124937140D01*
X95248676Y-124937140D01*
X95082288Y-124954628D01*
X95082286Y-124954629D01*
X95075288Y-124955364D01*
X94903579Y-125013818D01*
X94897575Y-125017512D01*
X94755095Y-125105166D01*
X94755092Y-125105168D01*
X94749088Y-125108862D01*
X94744053Y-125113793D01*
X94744050Y-125113795D01*
X94624525Y-125230843D01*
X94619493Y-125235771D01*
X94521235Y-125388238D01*
X94518826Y-125394858D01*
X94518824Y-125394861D01*
X94461606Y-125552066D01*
X94459197Y-125558685D01*
X94436463Y-125738640D01*
X84812342Y-125738640D01*
X84793397Y-125569745D01*
X84791080Y-125563091D01*
X84736064Y-125405106D01*
X84736062Y-125405103D01*
X84733745Y-125398448D01*
X84637626Y-125244624D01*
X84623941Y-125230843D01*
X84514778Y-125120915D01*
X84514774Y-125120912D01*
X84509815Y-125115918D01*
X84498697Y-125108862D01*
X84450538Y-125078300D01*
X84356666Y-125018727D01*
X84327463Y-125008328D01*
X84192425Y-124960243D01*
X84192420Y-124960242D01*
X84185790Y-124957881D01*
X84178802Y-124957048D01*
X84178799Y-124957047D01*
X84055698Y-124942368D01*
X84005680Y-124936404D01*
X83998677Y-124937140D01*
X83998676Y-124937140D01*
X83832288Y-124954628D01*
X83832286Y-124954629D01*
X83825288Y-124955364D01*
X83653579Y-125013818D01*
X83647575Y-125017512D01*
X83505095Y-125105166D01*
X83505092Y-125105168D01*
X83499088Y-125108862D01*
X83494053Y-125113793D01*
X83494050Y-125113795D01*
X83374525Y-125230843D01*
X83369493Y-125235771D01*
X83271235Y-125388238D01*
X83268826Y-125394858D01*
X83268824Y-125394861D01*
X83211606Y-125552066D01*
X83209197Y-125558685D01*
X83186463Y-125738640D01*
X64508000Y-125738640D01*
X64508000Y-120238640D01*
X138436463Y-120238640D01*
X138454163Y-120419160D01*
X138511418Y-120591273D01*
X138515065Y-120597295D01*
X138515066Y-120597297D01*
X138525978Y-120615314D01*
X138605380Y-120746424D01*
X138731382Y-120876902D01*
X138883159Y-120976222D01*
X138889763Y-120978678D01*
X138889765Y-120978679D01*
X139046558Y-121036990D01*
X139046560Y-121036990D01*
X139053168Y-121039448D01*
X139136995Y-121050633D01*
X139225980Y-121062507D01*
X139225984Y-121062507D01*
X139232961Y-121063438D01*
X139239972Y-121062800D01*
X139239976Y-121062800D01*
X139382459Y-121049832D01*
X139413600Y-121046998D01*
X139420302Y-121044820D01*
X139420304Y-121044820D01*
X139579409Y-120993124D01*
X139579412Y-120993123D01*
X139586108Y-120990947D01*
X139741912Y-120898069D01*
X139873266Y-120772982D01*
X139973643Y-120621902D01*
X140038055Y-120452338D01*
X140039035Y-120445366D01*
X140062748Y-120276639D01*
X140062748Y-120276636D01*
X140063299Y-120272717D01*
X140063616Y-120250000D01*
X140043397Y-120069745D01*
X140041080Y-120063091D01*
X139986064Y-119905106D01*
X139986062Y-119905103D01*
X139983745Y-119898448D01*
X139887626Y-119744624D01*
X139873941Y-119730843D01*
X139764778Y-119620915D01*
X139764774Y-119620912D01*
X139759815Y-119615918D01*
X139748697Y-119608862D01*
X139647782Y-119544820D01*
X139606666Y-119518727D01*
X139577463Y-119508328D01*
X139442425Y-119460243D01*
X139442420Y-119460242D01*
X139435790Y-119457881D01*
X139428802Y-119457048D01*
X139428799Y-119457047D01*
X139305698Y-119442368D01*
X139255680Y-119436404D01*
X139248677Y-119437140D01*
X139248676Y-119437140D01*
X139082288Y-119454628D01*
X139082286Y-119454629D01*
X139075288Y-119455364D01*
X138903579Y-119513818D01*
X138897575Y-119517512D01*
X138755095Y-119605166D01*
X138755092Y-119605168D01*
X138749088Y-119608862D01*
X138744053Y-119613793D01*
X138744050Y-119613795D01*
X138624525Y-119730843D01*
X138619493Y-119735771D01*
X138521235Y-119888238D01*
X138518826Y-119894858D01*
X138518824Y-119894861D01*
X138461606Y-120052066D01*
X138459197Y-120058685D01*
X138436463Y-120238640D01*
X64508000Y-120238640D01*
X64508000Y-118738640D01*
X71547671Y-118738640D01*
X71565371Y-118919160D01*
X71622626Y-119091273D01*
X71626273Y-119097295D01*
X71626274Y-119097297D01*
X71637186Y-119115314D01*
X71716588Y-119246424D01*
X71842590Y-119376902D01*
X71848486Y-119380760D01*
X71969949Y-119460243D01*
X71994367Y-119476222D01*
X72000971Y-119478678D01*
X72000973Y-119478679D01*
X72157766Y-119536990D01*
X72157768Y-119536990D01*
X72164376Y-119539448D01*
X72248203Y-119550633D01*
X72337188Y-119562507D01*
X72337192Y-119562507D01*
X72344169Y-119563438D01*
X72351180Y-119562800D01*
X72351184Y-119562800D01*
X72493667Y-119549832D01*
X72524808Y-119546998D01*
X72531510Y-119544820D01*
X72531512Y-119544820D01*
X72690617Y-119493124D01*
X72690620Y-119493123D01*
X72697316Y-119490947D01*
X72853120Y-119398069D01*
X72984474Y-119272982D01*
X73084851Y-119121902D01*
X73149263Y-118952338D01*
X73150243Y-118945366D01*
X73173956Y-118776639D01*
X73173956Y-118776636D01*
X73174507Y-118772717D01*
X73174824Y-118750000D01*
X73173550Y-118738640D01*
X82186463Y-118738640D01*
X82204163Y-118919160D01*
X82261418Y-119091273D01*
X82265065Y-119097295D01*
X82265066Y-119097297D01*
X82275978Y-119115314D01*
X82355380Y-119246424D01*
X82481382Y-119376902D01*
X82487278Y-119380760D01*
X82608741Y-119460243D01*
X82633159Y-119476222D01*
X82639763Y-119478678D01*
X82639765Y-119478679D01*
X82796558Y-119536990D01*
X82796560Y-119536990D01*
X82803168Y-119539448D01*
X82886995Y-119550633D01*
X82975980Y-119562507D01*
X82975984Y-119562507D01*
X82982961Y-119563438D01*
X82989972Y-119562800D01*
X82989976Y-119562800D01*
X83132459Y-119549832D01*
X83163600Y-119546998D01*
X83170302Y-119544820D01*
X83170304Y-119544820D01*
X83329409Y-119493124D01*
X83329412Y-119493123D01*
X83336108Y-119490947D01*
X83491912Y-119398069D01*
X83623266Y-119272982D01*
X83723643Y-119121902D01*
X83788055Y-118952338D01*
X83789035Y-118945366D01*
X83812748Y-118776639D01*
X83812748Y-118776636D01*
X83813299Y-118772717D01*
X83813616Y-118750000D01*
X83812342Y-118738640D01*
X93186463Y-118738640D01*
X93204163Y-118919160D01*
X93261418Y-119091273D01*
X93265065Y-119097295D01*
X93265066Y-119097297D01*
X93275978Y-119115314D01*
X93355380Y-119246424D01*
X93481382Y-119376902D01*
X93487278Y-119380760D01*
X93608741Y-119460243D01*
X93633159Y-119476222D01*
X93639763Y-119478678D01*
X93639765Y-119478679D01*
X93796558Y-119536990D01*
X93796560Y-119536990D01*
X93803168Y-119539448D01*
X93886995Y-119550633D01*
X93975980Y-119562507D01*
X93975984Y-119562507D01*
X93982961Y-119563438D01*
X93989972Y-119562800D01*
X93989976Y-119562800D01*
X94132459Y-119549832D01*
X94163600Y-119546998D01*
X94170302Y-119544820D01*
X94170304Y-119544820D01*
X94329409Y-119493124D01*
X94329412Y-119493123D01*
X94336108Y-119490947D01*
X94491912Y-119398069D01*
X94623266Y-119272982D01*
X94723643Y-119121902D01*
X94788055Y-118952338D01*
X94789035Y-118945366D01*
X94812748Y-118776639D01*
X94812748Y-118776636D01*
X94813299Y-118772717D01*
X94813616Y-118750000D01*
X94793397Y-118569745D01*
X94791080Y-118563091D01*
X94736064Y-118405106D01*
X94736062Y-118405103D01*
X94733745Y-118398448D01*
X94637626Y-118244624D01*
X94623941Y-118230843D01*
X94514778Y-118120915D01*
X94514774Y-118120912D01*
X94509815Y-118115918D01*
X94498697Y-118108862D01*
X94450538Y-118078300D01*
X94356666Y-118018727D01*
X94327463Y-118008328D01*
X94192425Y-117960243D01*
X94192420Y-117960242D01*
X94185790Y-117957881D01*
X94178802Y-117957048D01*
X94178799Y-117957047D01*
X94055698Y-117942368D01*
X94005680Y-117936404D01*
X93998677Y-117937140D01*
X93998676Y-117937140D01*
X93832288Y-117954628D01*
X93832286Y-117954629D01*
X93825288Y-117955364D01*
X93653579Y-118013818D01*
X93647575Y-118017512D01*
X93505095Y-118105166D01*
X93505092Y-118105168D01*
X93499088Y-118108862D01*
X93494053Y-118113793D01*
X93494050Y-118113795D01*
X93374525Y-118230843D01*
X93369493Y-118235771D01*
X93271235Y-118388238D01*
X93268826Y-118394858D01*
X93268824Y-118394861D01*
X93211606Y-118552066D01*
X93209197Y-118558685D01*
X93186463Y-118738640D01*
X83812342Y-118738640D01*
X83793397Y-118569745D01*
X83791080Y-118563091D01*
X83736064Y-118405106D01*
X83736062Y-118405103D01*
X83733745Y-118398448D01*
X83637626Y-118244624D01*
X83623941Y-118230843D01*
X83514778Y-118120915D01*
X83514774Y-118120912D01*
X83509815Y-118115918D01*
X83498697Y-118108862D01*
X83450538Y-118078300D01*
X83356666Y-118018727D01*
X83327463Y-118008328D01*
X83192425Y-117960243D01*
X83192420Y-117960242D01*
X83185790Y-117957881D01*
X83178802Y-117957048D01*
X83178799Y-117957047D01*
X83055698Y-117942368D01*
X83005680Y-117936404D01*
X82998677Y-117937140D01*
X82998676Y-117937140D01*
X82832288Y-117954628D01*
X82832286Y-117954629D01*
X82825288Y-117955364D01*
X82653579Y-118013818D01*
X82647575Y-118017512D01*
X82505095Y-118105166D01*
X82505092Y-118105168D01*
X82499088Y-118108862D01*
X82494053Y-118113793D01*
X82494050Y-118113795D01*
X82374525Y-118230843D01*
X82369493Y-118235771D01*
X82271235Y-118388238D01*
X82268826Y-118394858D01*
X82268824Y-118394861D01*
X82211606Y-118552066D01*
X82209197Y-118558685D01*
X82186463Y-118738640D01*
X73173550Y-118738640D01*
X73154605Y-118569745D01*
X73152288Y-118563091D01*
X73097272Y-118405106D01*
X73097270Y-118405103D01*
X73094953Y-118398448D01*
X72998834Y-118244624D01*
X72985149Y-118230843D01*
X72875986Y-118120915D01*
X72875982Y-118120912D01*
X72871023Y-118115918D01*
X72859905Y-118108862D01*
X72811746Y-118078300D01*
X72717874Y-118018727D01*
X72688671Y-118008328D01*
X72553633Y-117960243D01*
X72553628Y-117960242D01*
X72546998Y-117957881D01*
X72540010Y-117957048D01*
X72540007Y-117957047D01*
X72416906Y-117942368D01*
X72366888Y-117936404D01*
X72359885Y-117937140D01*
X72359884Y-117937140D01*
X72193496Y-117954628D01*
X72193494Y-117954629D01*
X72186496Y-117955364D01*
X72014787Y-118013818D01*
X72008783Y-118017512D01*
X71866303Y-118105166D01*
X71866300Y-118105168D01*
X71860296Y-118108862D01*
X71855261Y-118113793D01*
X71855258Y-118113795D01*
X71735733Y-118230843D01*
X71730701Y-118235771D01*
X71632443Y-118388238D01*
X71630034Y-118394858D01*
X71630032Y-118394861D01*
X71572814Y-118552066D01*
X71570405Y-118558685D01*
X71547671Y-118738640D01*
X64508000Y-118738640D01*
X64508000Y-114298134D01*
X70491500Y-114298134D01*
X70498255Y-114360316D01*
X70549385Y-114496705D01*
X70636739Y-114613261D01*
X70753295Y-114700615D01*
X70889684Y-114751745D01*
X70951866Y-114758500D01*
X74048134Y-114758500D01*
X74110316Y-114751745D01*
X74246705Y-114700615D01*
X74363261Y-114613261D01*
X74450615Y-114496705D01*
X74501745Y-114360316D01*
X74508500Y-114298134D01*
X74508500Y-112728918D01*
X75566917Y-112728918D01*
X75582682Y-113002320D01*
X75583507Y-113006525D01*
X75583508Y-113006533D01*
X75604698Y-113114539D01*
X75635405Y-113271053D01*
X75636792Y-113275103D01*
X75636793Y-113275108D01*
X75657605Y-113335895D01*
X75724112Y-113530144D01*
X75847160Y-113774799D01*
X75849586Y-113778328D01*
X75849589Y-113778334D01*
X75978741Y-113966250D01*
X76002274Y-114000490D01*
X76186582Y-114203043D01*
X76189877Y-114205798D01*
X76189878Y-114205799D01*
X76194257Y-114209460D01*
X76396675Y-114378707D01*
X76400316Y-114380991D01*
X76625024Y-114521951D01*
X76625028Y-114521953D01*
X76628664Y-114524234D01*
X76704652Y-114558544D01*
X76874345Y-114635164D01*
X76874349Y-114635166D01*
X76878257Y-114636930D01*
X76894735Y-114641811D01*
X77136723Y-114713491D01*
X77136727Y-114713492D01*
X77140836Y-114714709D01*
X77145070Y-114715357D01*
X77145075Y-114715358D01*
X77407298Y-114755483D01*
X77407300Y-114755483D01*
X77411540Y-114756132D01*
X77550912Y-114758322D01*
X77681071Y-114760367D01*
X77681077Y-114760367D01*
X77685362Y-114760434D01*
X77957235Y-114727534D01*
X78222127Y-114658041D01*
X78226087Y-114656401D01*
X78226092Y-114656399D01*
X78462333Y-114558544D01*
X78475136Y-114553241D01*
X78711582Y-114415073D01*
X78856051Y-114301795D01*
X81491500Y-114301795D01*
X81498255Y-114363977D01*
X81549385Y-114500366D01*
X81636739Y-114616922D01*
X81753295Y-114704276D01*
X81889684Y-114755406D01*
X81951866Y-114762161D01*
X85048134Y-114762161D01*
X85110316Y-114755406D01*
X85246705Y-114704276D01*
X85363261Y-114616922D01*
X85450615Y-114500366D01*
X85501745Y-114363977D01*
X85508500Y-114301795D01*
X85508500Y-112732579D01*
X86566917Y-112732579D01*
X86582682Y-113005981D01*
X86583507Y-113010186D01*
X86583508Y-113010194D01*
X86595787Y-113072778D01*
X86635405Y-113274714D01*
X86636792Y-113278764D01*
X86636793Y-113278769D01*
X86656302Y-113335750D01*
X86724112Y-113533805D01*
X86751217Y-113587697D01*
X86843264Y-113770713D01*
X86847160Y-113778460D01*
X86849586Y-113781989D01*
X86849589Y-113781995D01*
X86980993Y-113973187D01*
X87002274Y-114004151D01*
X87186582Y-114206704D01*
X87396675Y-114382368D01*
X87400316Y-114384652D01*
X87625024Y-114525612D01*
X87625028Y-114525614D01*
X87628664Y-114527895D01*
X87696544Y-114558544D01*
X87874345Y-114638825D01*
X87874349Y-114638827D01*
X87878257Y-114640591D01*
X87882377Y-114641811D01*
X87882376Y-114641811D01*
X88136723Y-114717152D01*
X88136727Y-114717153D01*
X88140836Y-114718370D01*
X88145070Y-114719018D01*
X88145075Y-114719019D01*
X88407298Y-114759144D01*
X88407300Y-114759144D01*
X88411540Y-114759793D01*
X88550912Y-114761983D01*
X88681071Y-114764028D01*
X88681077Y-114764028D01*
X88685362Y-114764095D01*
X88957235Y-114731195D01*
X89222127Y-114661702D01*
X89226087Y-114660062D01*
X89226092Y-114660060D01*
X89356408Y-114606081D01*
X89475136Y-114556902D01*
X89711582Y-114418734D01*
X89860720Y-114301795D01*
X92491500Y-114301795D01*
X92498255Y-114363977D01*
X92549385Y-114500366D01*
X92636739Y-114616922D01*
X92753295Y-114704276D01*
X92889684Y-114755406D01*
X92951866Y-114762161D01*
X96048134Y-114762161D01*
X96110316Y-114755406D01*
X96246705Y-114704276D01*
X96363261Y-114616922D01*
X96450615Y-114500366D01*
X96501745Y-114363977D01*
X96508500Y-114301795D01*
X96508500Y-112732579D01*
X97566917Y-112732579D01*
X97582682Y-113005981D01*
X97583507Y-113010186D01*
X97583508Y-113010194D01*
X97595787Y-113072778D01*
X97635405Y-113274714D01*
X97636792Y-113278764D01*
X97636793Y-113278769D01*
X97656302Y-113335750D01*
X97724112Y-113533805D01*
X97751217Y-113587697D01*
X97843264Y-113770713D01*
X97847160Y-113778460D01*
X97849586Y-113781989D01*
X97849589Y-113781995D01*
X97980993Y-113973187D01*
X98002274Y-114004151D01*
X98186582Y-114206704D01*
X98396675Y-114382368D01*
X98400316Y-114384652D01*
X98625024Y-114525612D01*
X98625028Y-114525614D01*
X98628664Y-114527895D01*
X98696544Y-114558544D01*
X98874345Y-114638825D01*
X98874349Y-114638827D01*
X98878257Y-114640591D01*
X98882377Y-114641811D01*
X98882376Y-114641811D01*
X99136723Y-114717152D01*
X99136727Y-114717153D01*
X99140836Y-114718370D01*
X99145070Y-114719018D01*
X99145075Y-114719019D01*
X99407298Y-114759144D01*
X99407300Y-114759144D01*
X99411540Y-114759793D01*
X99550912Y-114761983D01*
X99681071Y-114764028D01*
X99681077Y-114764028D01*
X99685362Y-114764095D01*
X99957235Y-114731195D01*
X100222127Y-114661702D01*
X100226087Y-114660062D01*
X100226092Y-114660060D01*
X100356408Y-114606081D01*
X100475136Y-114556902D01*
X100711582Y-114418734D01*
X100865389Y-114298134D01*
X103495222Y-114298134D01*
X103501977Y-114360316D01*
X103553107Y-114496705D01*
X103640461Y-114613261D01*
X103757017Y-114700615D01*
X103893406Y-114751745D01*
X103955588Y-114758500D01*
X107051856Y-114758500D01*
X107114038Y-114751745D01*
X107250427Y-114700615D01*
X107366983Y-114613261D01*
X107454337Y-114496705D01*
X107505467Y-114360316D01*
X107507712Y-114339654D01*
X109359340Y-114339654D01*
X109366395Y-114349627D01*
X109397401Y-114375551D01*
X109404320Y-114380579D01*
X109628994Y-114521515D01*
X109636529Y-114525556D01*
X109878242Y-114634694D01*
X109886273Y-114637680D01*
X110140554Y-114713002D01*
X110148906Y-114714869D01*
X110411062Y-114754984D01*
X110419596Y-114755700D01*
X110684767Y-114759867D01*
X110693318Y-114759418D01*
X110956605Y-114727557D01*
X110965006Y-114725955D01*
X111221546Y-114658653D01*
X111229648Y-114655926D01*
X111474671Y-114554434D01*
X111482339Y-114550628D01*
X111711320Y-114416822D01*
X111718401Y-114412009D01*
X111798377Y-114349301D01*
X111806847Y-114337442D01*
X111800330Y-114325818D01*
X110596534Y-113122022D01*
X110582590Y-113114408D01*
X110580757Y-113114539D01*
X110574142Y-113118790D01*
X109366632Y-114326300D01*
X109359340Y-114339654D01*
X107507712Y-114339654D01*
X107512222Y-114298134D01*
X107512222Y-112733204D01*
X108571387Y-112733204D01*
X108586654Y-112997969D01*
X108587727Y-113006470D01*
X108638787Y-113266722D01*
X108640998Y-113274974D01*
X108726906Y-113525894D01*
X108730221Y-113533779D01*
X108849386Y-113770713D01*
X108853742Y-113778079D01*
X108983069Y-113966250D01*
X108993323Y-113974594D01*
X109007064Y-113967448D01*
X110211700Y-112762812D01*
X110218078Y-112751132D01*
X110948130Y-112751132D01*
X110948261Y-112752965D01*
X110952512Y-112759580D01*
X112159452Y-113966520D01*
X112171661Y-113973187D01*
X112183161Y-113964497D01*
X112280553Y-113831913D01*
X112285140Y-113824685D01*
X112411684Y-113591621D01*
X112415252Y-113583827D01*
X112508993Y-113335750D01*
X112511470Y-113327544D01*
X112570676Y-113069038D01*
X112572016Y-113060577D01*
X112595753Y-112794616D01*
X112595999Y-112789677D01*
X112596388Y-112752485D01*
X112596245Y-112747519D01*
X112594977Y-112728918D01*
X113650639Y-112728918D01*
X113666404Y-113002320D01*
X113667229Y-113006525D01*
X113667230Y-113006533D01*
X113688420Y-113114539D01*
X113719127Y-113271053D01*
X113720514Y-113275103D01*
X113720515Y-113275108D01*
X113741327Y-113335895D01*
X113807834Y-113530144D01*
X113930882Y-113774799D01*
X113933308Y-113778328D01*
X113933311Y-113778334D01*
X114062463Y-113966250D01*
X114085996Y-114000490D01*
X114270304Y-114203043D01*
X114273599Y-114205798D01*
X114273600Y-114205799D01*
X114277979Y-114209460D01*
X114480397Y-114378707D01*
X114484038Y-114380991D01*
X114708746Y-114521951D01*
X114708750Y-114521953D01*
X114712386Y-114524234D01*
X114788374Y-114558544D01*
X114958067Y-114635164D01*
X114958071Y-114635166D01*
X114961979Y-114636930D01*
X114978457Y-114641811D01*
X115220445Y-114713491D01*
X115220449Y-114713492D01*
X115224558Y-114714709D01*
X115228792Y-114715357D01*
X115228797Y-114715358D01*
X115491020Y-114755483D01*
X115491022Y-114755483D01*
X115495262Y-114756132D01*
X115634634Y-114758322D01*
X115764793Y-114760367D01*
X115764799Y-114760367D01*
X115769084Y-114760434D01*
X116040957Y-114727534D01*
X116305849Y-114658041D01*
X116309809Y-114656401D01*
X116309814Y-114656399D01*
X116546055Y-114558544D01*
X116558858Y-114553241D01*
X116795304Y-114415073D01*
X116944442Y-114298134D01*
X119741500Y-114298134D01*
X119748255Y-114360316D01*
X119799385Y-114496705D01*
X119886739Y-114613261D01*
X120003295Y-114700615D01*
X120139684Y-114751745D01*
X120201866Y-114758500D01*
X123298134Y-114758500D01*
X123360316Y-114751745D01*
X123496705Y-114700615D01*
X123613261Y-114613261D01*
X123700615Y-114496705D01*
X123751745Y-114360316D01*
X123758500Y-114298134D01*
X123758500Y-112728918D01*
X124816917Y-112728918D01*
X124832682Y-113002320D01*
X124833507Y-113006525D01*
X124833508Y-113006533D01*
X124854698Y-113114539D01*
X124885405Y-113271053D01*
X124886792Y-113275103D01*
X124886793Y-113275108D01*
X124907605Y-113335895D01*
X124974112Y-113530144D01*
X125097160Y-113774799D01*
X125099586Y-113778328D01*
X125099589Y-113778334D01*
X125228741Y-113966250D01*
X125252274Y-114000490D01*
X125436582Y-114203043D01*
X125439877Y-114205798D01*
X125439878Y-114205799D01*
X125444257Y-114209460D01*
X125646675Y-114378707D01*
X125650316Y-114380991D01*
X125875024Y-114521951D01*
X125875028Y-114521953D01*
X125878664Y-114524234D01*
X125954652Y-114558544D01*
X126124345Y-114635164D01*
X126124349Y-114635166D01*
X126128257Y-114636930D01*
X126144735Y-114641811D01*
X126386723Y-114713491D01*
X126386727Y-114713492D01*
X126390836Y-114714709D01*
X126395070Y-114715357D01*
X126395075Y-114715358D01*
X126657298Y-114755483D01*
X126657300Y-114755483D01*
X126661540Y-114756132D01*
X126800912Y-114758322D01*
X126931071Y-114760367D01*
X126931077Y-114760367D01*
X126935362Y-114760434D01*
X127207235Y-114727534D01*
X127472127Y-114658041D01*
X127476087Y-114656401D01*
X127476092Y-114656399D01*
X127712333Y-114558544D01*
X127725136Y-114553241D01*
X127961582Y-114415073D01*
X128115139Y-114294669D01*
X130992001Y-114294669D01*
X130992371Y-114301490D01*
X130997895Y-114352352D01*
X131001521Y-114367604D01*
X131046676Y-114488054D01*
X131055214Y-114503649D01*
X131131715Y-114605724D01*
X131144276Y-114618285D01*
X131246351Y-114694786D01*
X131261946Y-114703324D01*
X131382394Y-114748478D01*
X131397649Y-114752105D01*
X131448514Y-114757631D01*
X131455328Y-114758000D01*
X132727885Y-114758000D01*
X132743124Y-114753525D01*
X132744329Y-114752135D01*
X132746000Y-114744452D01*
X132746000Y-114739884D01*
X133254000Y-114739884D01*
X133258475Y-114755123D01*
X133259865Y-114756328D01*
X133267548Y-114757999D01*
X134544669Y-114757999D01*
X134551490Y-114757629D01*
X134602352Y-114752105D01*
X134617604Y-114748479D01*
X134738054Y-114703324D01*
X134753649Y-114694786D01*
X134855724Y-114618285D01*
X134868285Y-114605724D01*
X134944786Y-114503649D01*
X134953324Y-114488054D01*
X134998478Y-114367606D01*
X135002105Y-114352351D01*
X135007631Y-114301486D01*
X135008000Y-114294672D01*
X135008000Y-113022115D01*
X135003525Y-113006876D01*
X135002135Y-113005671D01*
X134994452Y-113004000D01*
X133272115Y-113004000D01*
X133256876Y-113008475D01*
X133255671Y-113009865D01*
X133254000Y-113017548D01*
X133254000Y-114739884D01*
X132746000Y-114739884D01*
X132746000Y-113022115D01*
X132741525Y-113006876D01*
X132740135Y-113005671D01*
X132732452Y-113004000D01*
X131010116Y-113004000D01*
X130994877Y-113008475D01*
X130993672Y-113009865D01*
X130992001Y-113017548D01*
X130992001Y-114294669D01*
X128115139Y-114294669D01*
X128177089Y-114246094D01*
X128218339Y-114203528D01*
X128364686Y-114052509D01*
X128367669Y-114049431D01*
X128370202Y-114045983D01*
X128370206Y-114045978D01*
X128527257Y-113832178D01*
X128529795Y-113828723D01*
X128531841Y-113824955D01*
X128658418Y-113591830D01*
X128658419Y-113591828D01*
X128660468Y-113588054D01*
X128708869Y-113459965D01*
X128755751Y-113335895D01*
X128755752Y-113335891D01*
X128757269Y-113331877D01*
X128807076Y-113114408D01*
X128817449Y-113069117D01*
X128817450Y-113069113D01*
X128818407Y-113064933D01*
X128822229Y-113022115D01*
X128842531Y-112794627D01*
X128842532Y-112794616D01*
X128842751Y-112792161D01*
X128843193Y-112750000D01*
X128842048Y-112733198D01*
X128841756Y-112728918D01*
X136066917Y-112728918D01*
X136082682Y-113002320D01*
X136083507Y-113006525D01*
X136083508Y-113006533D01*
X136104698Y-113114539D01*
X136135405Y-113271053D01*
X136136792Y-113275103D01*
X136136793Y-113275108D01*
X136157605Y-113335895D01*
X136224112Y-113530144D01*
X136347160Y-113774799D01*
X136349586Y-113778328D01*
X136349589Y-113778334D01*
X136478741Y-113966250D01*
X136502274Y-114000490D01*
X136686582Y-114203043D01*
X136689877Y-114205798D01*
X136689878Y-114205799D01*
X136694257Y-114209460D01*
X136896675Y-114378707D01*
X136900316Y-114380991D01*
X137125024Y-114521951D01*
X137125028Y-114521953D01*
X137128664Y-114524234D01*
X137204652Y-114558544D01*
X137374345Y-114635164D01*
X137374349Y-114635166D01*
X137378257Y-114636930D01*
X137394735Y-114641811D01*
X137636723Y-114713491D01*
X137636727Y-114713492D01*
X137640836Y-114714709D01*
X137645070Y-114715357D01*
X137645075Y-114715358D01*
X137907298Y-114755483D01*
X137907300Y-114755483D01*
X137911540Y-114756132D01*
X138050912Y-114758322D01*
X138181071Y-114760367D01*
X138181077Y-114760367D01*
X138185362Y-114760434D01*
X138457235Y-114727534D01*
X138722127Y-114658041D01*
X138726087Y-114656401D01*
X138726092Y-114656399D01*
X138962333Y-114558544D01*
X138975136Y-114553241D01*
X139211582Y-114415073D01*
X139427089Y-114246094D01*
X139468339Y-114203528D01*
X139614686Y-114052509D01*
X139617669Y-114049431D01*
X139620202Y-114045983D01*
X139620206Y-114045978D01*
X139777257Y-113832178D01*
X139779795Y-113828723D01*
X139781841Y-113824955D01*
X139908418Y-113591830D01*
X139908419Y-113591828D01*
X139910468Y-113588054D01*
X139958869Y-113459965D01*
X140005751Y-113335895D01*
X140005752Y-113335891D01*
X140007269Y-113331877D01*
X140057076Y-113114408D01*
X140067449Y-113069117D01*
X140067450Y-113069113D01*
X140068407Y-113064933D01*
X140072229Y-113022115D01*
X140092531Y-112794627D01*
X140092532Y-112794616D01*
X140092751Y-112792161D01*
X140093193Y-112750000D01*
X140092048Y-112733198D01*
X140074859Y-112481055D01*
X140074858Y-112481049D01*
X140074567Y-112476778D01*
X140019032Y-112208612D01*
X139927617Y-111950465D01*
X139802013Y-111707112D01*
X139794613Y-111696582D01*
X139647008Y-111486562D01*
X139644545Y-111483057D01*
X139458125Y-111282445D01*
X139454810Y-111279731D01*
X139454806Y-111279728D01*
X139288178Y-111143345D01*
X139246205Y-111108990D01*
X139012704Y-110965901D01*
X139008768Y-110964173D01*
X138765873Y-110857549D01*
X138765869Y-110857548D01*
X138761945Y-110855825D01*
X138498566Y-110780800D01*
X138494324Y-110780196D01*
X138494318Y-110780195D01*
X138289387Y-110751029D01*
X138227443Y-110742213D01*
X138083589Y-110741460D01*
X137957877Y-110740802D01*
X137957871Y-110740802D01*
X137953591Y-110740780D01*
X137949347Y-110741339D01*
X137949343Y-110741339D01*
X137847933Y-110754690D01*
X137682078Y-110776525D01*
X137677938Y-110777658D01*
X137677936Y-110777658D01*
X137648766Y-110785638D01*
X137417928Y-110848788D01*
X137413980Y-110850472D01*
X137169982Y-110954546D01*
X137169978Y-110954548D01*
X137166030Y-110956232D01*
X137140008Y-110971806D01*
X136934725Y-111094664D01*
X136934721Y-111094667D01*
X136931043Y-111096868D01*
X136717318Y-111268094D01*
X136528808Y-111466742D01*
X136369002Y-111689136D01*
X136240857Y-111931161D01*
X136239385Y-111935184D01*
X136239383Y-111935188D01*
X136232453Y-111954126D01*
X136146743Y-112188337D01*
X136088404Y-112455907D01*
X136066917Y-112728918D01*
X128841756Y-112728918D01*
X128824859Y-112481055D01*
X128824858Y-112481049D01*
X128824642Y-112477885D01*
X130992000Y-112477885D01*
X130996475Y-112493124D01*
X130997865Y-112494329D01*
X131005548Y-112496000D01*
X132727885Y-112496000D01*
X132743124Y-112491525D01*
X132744329Y-112490135D01*
X132746000Y-112482452D01*
X132746000Y-112477885D01*
X133254000Y-112477885D01*
X133258475Y-112493124D01*
X133259865Y-112494329D01*
X133267548Y-112496000D01*
X134989884Y-112496000D01*
X135005123Y-112491525D01*
X135006328Y-112490135D01*
X135007999Y-112482452D01*
X135007999Y-111205331D01*
X135007629Y-111198510D01*
X135002105Y-111147648D01*
X134998479Y-111132396D01*
X134953324Y-111011946D01*
X134944786Y-110996351D01*
X134868285Y-110894276D01*
X134855724Y-110881715D01*
X134753649Y-110805214D01*
X134738054Y-110796676D01*
X134617606Y-110751522D01*
X134602351Y-110747895D01*
X134551486Y-110742369D01*
X134544672Y-110742000D01*
X133272115Y-110742000D01*
X133256876Y-110746475D01*
X133255671Y-110747865D01*
X133254000Y-110755548D01*
X133254000Y-112477885D01*
X132746000Y-112477885D01*
X132746000Y-110760116D01*
X132741525Y-110744877D01*
X132740135Y-110743672D01*
X132732452Y-110742001D01*
X131455331Y-110742001D01*
X131448510Y-110742371D01*
X131397648Y-110747895D01*
X131382396Y-110751521D01*
X131261946Y-110796676D01*
X131246351Y-110805214D01*
X131144276Y-110881715D01*
X131131715Y-110894276D01*
X131055214Y-110996351D01*
X131046676Y-111011946D01*
X131001522Y-111132394D01*
X130997895Y-111147649D01*
X130992369Y-111198514D01*
X130992000Y-111205328D01*
X130992000Y-112477885D01*
X128824642Y-112477885D01*
X128824567Y-112476778D01*
X128769032Y-112208612D01*
X128677617Y-111950465D01*
X128552013Y-111707112D01*
X128544613Y-111696582D01*
X128397008Y-111486562D01*
X128394545Y-111483057D01*
X128208125Y-111282445D01*
X128204810Y-111279731D01*
X128204806Y-111279728D01*
X128038178Y-111143345D01*
X127996205Y-111108990D01*
X127762704Y-110965901D01*
X127758768Y-110964173D01*
X127515873Y-110857549D01*
X127515869Y-110857548D01*
X127511945Y-110855825D01*
X127248566Y-110780800D01*
X127244324Y-110780196D01*
X127244318Y-110780195D01*
X127039387Y-110751029D01*
X126977443Y-110742213D01*
X126833589Y-110741460D01*
X126707877Y-110740802D01*
X126707871Y-110740802D01*
X126703591Y-110740780D01*
X126699347Y-110741339D01*
X126699343Y-110741339D01*
X126597933Y-110754690D01*
X126432078Y-110776525D01*
X126427938Y-110777658D01*
X126427936Y-110777658D01*
X126398766Y-110785638D01*
X126167928Y-110848788D01*
X126163980Y-110850472D01*
X125919982Y-110954546D01*
X125919978Y-110954548D01*
X125916030Y-110956232D01*
X125890008Y-110971806D01*
X125684725Y-111094664D01*
X125684721Y-111094667D01*
X125681043Y-111096868D01*
X125467318Y-111268094D01*
X125278808Y-111466742D01*
X125119002Y-111689136D01*
X124990857Y-111931161D01*
X124989385Y-111935184D01*
X124989383Y-111935188D01*
X124982453Y-111954126D01*
X124896743Y-112188337D01*
X124838404Y-112455907D01*
X124816917Y-112728918D01*
X123758500Y-112728918D01*
X123758500Y-111201866D01*
X123751745Y-111139684D01*
X123700615Y-111003295D01*
X123613261Y-110886739D01*
X123496705Y-110799385D01*
X123360316Y-110748255D01*
X123298134Y-110741500D01*
X120201866Y-110741500D01*
X120139684Y-110748255D01*
X120003295Y-110799385D01*
X119886739Y-110886739D01*
X119799385Y-111003295D01*
X119748255Y-111139684D01*
X119741500Y-111201866D01*
X119741500Y-114298134D01*
X116944442Y-114298134D01*
X117010811Y-114246094D01*
X117052061Y-114203528D01*
X117198408Y-114052509D01*
X117201391Y-114049431D01*
X117203924Y-114045983D01*
X117203928Y-114045978D01*
X117360979Y-113832178D01*
X117363517Y-113828723D01*
X117365563Y-113824955D01*
X117492140Y-113591830D01*
X117492141Y-113591828D01*
X117494190Y-113588054D01*
X117542591Y-113459965D01*
X117589473Y-113335895D01*
X117589474Y-113335891D01*
X117590991Y-113331877D01*
X117640798Y-113114408D01*
X117651171Y-113069117D01*
X117651172Y-113069113D01*
X117652129Y-113064933D01*
X117655951Y-113022115D01*
X117676253Y-112794627D01*
X117676254Y-112794616D01*
X117676473Y-112792161D01*
X117676915Y-112750000D01*
X117675770Y-112733198D01*
X117658581Y-112481055D01*
X117658580Y-112481049D01*
X117658289Y-112476778D01*
X117602754Y-112208612D01*
X117511339Y-111950465D01*
X117385735Y-111707112D01*
X117378335Y-111696582D01*
X117230730Y-111486562D01*
X117228267Y-111483057D01*
X117041847Y-111282445D01*
X117038532Y-111279731D01*
X117038528Y-111279728D01*
X116871900Y-111143345D01*
X116829927Y-111108990D01*
X116596426Y-110965901D01*
X116592490Y-110964173D01*
X116349595Y-110857549D01*
X116349591Y-110857548D01*
X116345667Y-110855825D01*
X116082288Y-110780800D01*
X116078046Y-110780196D01*
X116078040Y-110780195D01*
X115873109Y-110751029D01*
X115811165Y-110742213D01*
X115667311Y-110741460D01*
X115541599Y-110740802D01*
X115541593Y-110740802D01*
X115537313Y-110740780D01*
X115533069Y-110741339D01*
X115533065Y-110741339D01*
X115431655Y-110754690D01*
X115265800Y-110776525D01*
X115261660Y-110777658D01*
X115261658Y-110777658D01*
X115232488Y-110785638D01*
X115001650Y-110848788D01*
X114997702Y-110850472D01*
X114753704Y-110954546D01*
X114753700Y-110954548D01*
X114749752Y-110956232D01*
X114723730Y-110971806D01*
X114518447Y-111094664D01*
X114518443Y-111094667D01*
X114514765Y-111096868D01*
X114301040Y-111268094D01*
X114112530Y-111466742D01*
X113952724Y-111689136D01*
X113824579Y-111931161D01*
X113823107Y-111935184D01*
X113823105Y-111935188D01*
X113816175Y-111954126D01*
X113730465Y-112188337D01*
X113672126Y-112455907D01*
X113650639Y-112728918D01*
X112594977Y-112728918D01*
X112578084Y-112481123D01*
X112576923Y-112472649D01*
X112523141Y-112212944D01*
X112520842Y-112204709D01*
X112432310Y-111954705D01*
X112428913Y-111946854D01*
X112307272Y-111711178D01*
X112302844Y-111703866D01*
X112183753Y-111534417D01*
X112173231Y-111526037D01*
X112159843Y-111533089D01*
X110955744Y-112737188D01*
X110948130Y-112751132D01*
X110218078Y-112751132D01*
X110219314Y-112748868D01*
X110219183Y-112747035D01*
X110214932Y-112740420D01*
X109007536Y-111533024D01*
X108995526Y-111526466D01*
X108983786Y-111535434D01*
X108875657Y-111685911D01*
X108871140Y-111693196D01*
X108747047Y-111927567D01*
X108743561Y-111935395D01*
X108652422Y-112184446D01*
X108650033Y-112192670D01*
X108593534Y-112451795D01*
X108592285Y-112460250D01*
X108571476Y-112724653D01*
X108571387Y-112733204D01*
X107512222Y-112733204D01*
X107512222Y-111201866D01*
X107507946Y-111162500D01*
X109360306Y-111162500D01*
X109366702Y-111173770D01*
X110570910Y-112377978D01*
X110584854Y-112385592D01*
X110586687Y-112385461D01*
X110593302Y-112381210D01*
X111800326Y-111174186D01*
X111807517Y-111161017D01*
X111800195Y-111150780D01*
X111752955Y-111112115D01*
X111745983Y-111107160D01*
X111519844Y-110968582D01*
X111512274Y-110964624D01*
X111269426Y-110858022D01*
X111261366Y-110855120D01*
X111006314Y-110782467D01*
X110997936Y-110780685D01*
X110735378Y-110743318D01*
X110726833Y-110742691D01*
X110461630Y-110741302D01*
X110453096Y-110741839D01*
X110190155Y-110776456D01*
X110181757Y-110778149D01*
X109925960Y-110848127D01*
X109917865Y-110850946D01*
X109673921Y-110954997D01*
X109666299Y-110958881D01*
X109438735Y-111095075D01*
X109431703Y-111099962D01*
X109368775Y-111150377D01*
X109360306Y-111162500D01*
X107507946Y-111162500D01*
X107505467Y-111139684D01*
X107454337Y-111003295D01*
X107366983Y-110886739D01*
X107250427Y-110799385D01*
X107114038Y-110748255D01*
X107051856Y-110741500D01*
X103955588Y-110741500D01*
X103893406Y-110748255D01*
X103757017Y-110799385D01*
X103640461Y-110886739D01*
X103553107Y-111003295D01*
X103501977Y-111139684D01*
X103495222Y-111201866D01*
X103495222Y-114298134D01*
X100865389Y-114298134D01*
X100927089Y-114249755D01*
X100933626Y-114243010D01*
X101114686Y-114056170D01*
X101117669Y-114053092D01*
X101120202Y-114049644D01*
X101120206Y-114049639D01*
X101277257Y-113835839D01*
X101279795Y-113832384D01*
X101307154Y-113781995D01*
X101408418Y-113595491D01*
X101408419Y-113595489D01*
X101410468Y-113591715D01*
X101507269Y-113335538D01*
X101532107Y-113227088D01*
X101567449Y-113072778D01*
X101567450Y-113072774D01*
X101568407Y-113068594D01*
X101569116Y-113060657D01*
X101592531Y-112798288D01*
X101592531Y-112798286D01*
X101592751Y-112795822D01*
X101593193Y-112753661D01*
X101593021Y-112751132D01*
X101574859Y-112484716D01*
X101574858Y-112484710D01*
X101574567Y-112480439D01*
X101554018Y-112381210D01*
X101519901Y-112216470D01*
X101519032Y-112212273D01*
X101427617Y-111954126D01*
X101302013Y-111710773D01*
X101292040Y-111696582D01*
X101147008Y-111490223D01*
X101144545Y-111486718D01*
X100958125Y-111286106D01*
X100954810Y-111283392D01*
X100954806Y-111283389D01*
X100807108Y-111162500D01*
X100746205Y-111112651D01*
X100573726Y-111006956D01*
X100516366Y-110971806D01*
X100516365Y-110971806D01*
X100512704Y-110969562D01*
X100508768Y-110967834D01*
X100265873Y-110861210D01*
X100265869Y-110861209D01*
X100261945Y-110859486D01*
X99998566Y-110784461D01*
X99994324Y-110783857D01*
X99994318Y-110783856D01*
X99789387Y-110754690D01*
X99727443Y-110745874D01*
X99583589Y-110745121D01*
X99457877Y-110744463D01*
X99457871Y-110744463D01*
X99453591Y-110744441D01*
X99449347Y-110745000D01*
X99449343Y-110745000D01*
X99334526Y-110760116D01*
X99182078Y-110780186D01*
X99177938Y-110781319D01*
X99177936Y-110781319D01*
X99123420Y-110796233D01*
X98917928Y-110852449D01*
X98913980Y-110854133D01*
X98669982Y-110958207D01*
X98669978Y-110958209D01*
X98666030Y-110959893D01*
X98646125Y-110971806D01*
X98434725Y-111098325D01*
X98434721Y-111098328D01*
X98431043Y-111100529D01*
X98217318Y-111271755D01*
X98028808Y-111470403D01*
X97869002Y-111692797D01*
X97740857Y-111934822D01*
X97739385Y-111938845D01*
X97739383Y-111938849D01*
X97732314Y-111958167D01*
X97646743Y-112191998D01*
X97588404Y-112459568D01*
X97566917Y-112732579D01*
X96508500Y-112732579D01*
X96508500Y-111205527D01*
X96501745Y-111143345D01*
X96450615Y-111006956D01*
X96363261Y-110890400D01*
X96246705Y-110803046D01*
X96110316Y-110751916D01*
X96048134Y-110745161D01*
X92951866Y-110745161D01*
X92889684Y-110751916D01*
X92753295Y-110803046D01*
X92636739Y-110890400D01*
X92549385Y-111006956D01*
X92498255Y-111143345D01*
X92491500Y-111205527D01*
X92491500Y-114301795D01*
X89860720Y-114301795D01*
X89927089Y-114249755D01*
X89933626Y-114243010D01*
X90114686Y-114056170D01*
X90117669Y-114053092D01*
X90120202Y-114049644D01*
X90120206Y-114049639D01*
X90277257Y-113835839D01*
X90279795Y-113832384D01*
X90307154Y-113781995D01*
X90408418Y-113595491D01*
X90408419Y-113595489D01*
X90410468Y-113591715D01*
X90507269Y-113335538D01*
X90532107Y-113227088D01*
X90567449Y-113072778D01*
X90567450Y-113072774D01*
X90568407Y-113068594D01*
X90569116Y-113060657D01*
X90592531Y-112798288D01*
X90592531Y-112798286D01*
X90592751Y-112795822D01*
X90593193Y-112753661D01*
X90593021Y-112751132D01*
X90574859Y-112484716D01*
X90574858Y-112484710D01*
X90574567Y-112480439D01*
X90554018Y-112381210D01*
X90519901Y-112216470D01*
X90519032Y-112212273D01*
X90427617Y-111954126D01*
X90302013Y-111710773D01*
X90292040Y-111696582D01*
X90147008Y-111490223D01*
X90144545Y-111486718D01*
X89958125Y-111286106D01*
X89954810Y-111283392D01*
X89954806Y-111283389D01*
X89807108Y-111162500D01*
X89746205Y-111112651D01*
X89573726Y-111006956D01*
X89516366Y-110971806D01*
X89516365Y-110971806D01*
X89512704Y-110969562D01*
X89508768Y-110967834D01*
X89265873Y-110861210D01*
X89265869Y-110861209D01*
X89261945Y-110859486D01*
X88998566Y-110784461D01*
X88994324Y-110783857D01*
X88994318Y-110783856D01*
X88789387Y-110754690D01*
X88727443Y-110745874D01*
X88583589Y-110745121D01*
X88457877Y-110744463D01*
X88457871Y-110744463D01*
X88453591Y-110744441D01*
X88449347Y-110745000D01*
X88449343Y-110745000D01*
X88334526Y-110760116D01*
X88182078Y-110780186D01*
X88177938Y-110781319D01*
X88177936Y-110781319D01*
X88123420Y-110796233D01*
X87917928Y-110852449D01*
X87913980Y-110854133D01*
X87669982Y-110958207D01*
X87669978Y-110958209D01*
X87666030Y-110959893D01*
X87646125Y-110971806D01*
X87434725Y-111098325D01*
X87434721Y-111098328D01*
X87431043Y-111100529D01*
X87217318Y-111271755D01*
X87028808Y-111470403D01*
X86869002Y-111692797D01*
X86740857Y-111934822D01*
X86739385Y-111938845D01*
X86739383Y-111938849D01*
X86732314Y-111958167D01*
X86646743Y-112191998D01*
X86588404Y-112459568D01*
X86566917Y-112732579D01*
X85508500Y-112732579D01*
X85508500Y-111205527D01*
X85501745Y-111143345D01*
X85450615Y-111006956D01*
X85363261Y-110890400D01*
X85246705Y-110803046D01*
X85110316Y-110751916D01*
X85048134Y-110745161D01*
X81951866Y-110745161D01*
X81889684Y-110751916D01*
X81753295Y-110803046D01*
X81636739Y-110890400D01*
X81549385Y-111006956D01*
X81498255Y-111143345D01*
X81491500Y-111205527D01*
X81491500Y-114301795D01*
X78856051Y-114301795D01*
X78927089Y-114246094D01*
X78968339Y-114203528D01*
X79114686Y-114052509D01*
X79117669Y-114049431D01*
X79120202Y-114045983D01*
X79120206Y-114045978D01*
X79277257Y-113832178D01*
X79279795Y-113828723D01*
X79281841Y-113824955D01*
X79408418Y-113591830D01*
X79408419Y-113591828D01*
X79410468Y-113588054D01*
X79458869Y-113459965D01*
X79505751Y-113335895D01*
X79505752Y-113335891D01*
X79507269Y-113331877D01*
X79557076Y-113114408D01*
X79567449Y-113069117D01*
X79567450Y-113069113D01*
X79568407Y-113064933D01*
X79572229Y-113022115D01*
X79592531Y-112794627D01*
X79592532Y-112794616D01*
X79592751Y-112792161D01*
X79593193Y-112750000D01*
X79592048Y-112733198D01*
X79574859Y-112481055D01*
X79574858Y-112481049D01*
X79574567Y-112476778D01*
X79519032Y-112208612D01*
X79427617Y-111950465D01*
X79302013Y-111707112D01*
X79294613Y-111696582D01*
X79147008Y-111486562D01*
X79144545Y-111483057D01*
X78958125Y-111282445D01*
X78954810Y-111279731D01*
X78954806Y-111279728D01*
X78788178Y-111143345D01*
X78746205Y-111108990D01*
X78512704Y-110965901D01*
X78508768Y-110964173D01*
X78265873Y-110857549D01*
X78265869Y-110857548D01*
X78261945Y-110855825D01*
X77998566Y-110780800D01*
X77994324Y-110780196D01*
X77994318Y-110780195D01*
X77789387Y-110751029D01*
X77727443Y-110742213D01*
X77583589Y-110741460D01*
X77457877Y-110740802D01*
X77457871Y-110740802D01*
X77453591Y-110740780D01*
X77449347Y-110741339D01*
X77449343Y-110741339D01*
X77347933Y-110754690D01*
X77182078Y-110776525D01*
X77177938Y-110777658D01*
X77177936Y-110777658D01*
X77148766Y-110785638D01*
X76917928Y-110848788D01*
X76913980Y-110850472D01*
X76669982Y-110954546D01*
X76669978Y-110954548D01*
X76666030Y-110956232D01*
X76640008Y-110971806D01*
X76434725Y-111094664D01*
X76434721Y-111094667D01*
X76431043Y-111096868D01*
X76217318Y-111268094D01*
X76028808Y-111466742D01*
X75869002Y-111689136D01*
X75740857Y-111931161D01*
X75739385Y-111935184D01*
X75739383Y-111935188D01*
X75732453Y-111954126D01*
X75646743Y-112188337D01*
X75588404Y-112455907D01*
X75566917Y-112728918D01*
X74508500Y-112728918D01*
X74508500Y-111201866D01*
X74501745Y-111139684D01*
X74450615Y-111003295D01*
X74363261Y-110886739D01*
X74246705Y-110799385D01*
X74110316Y-110748255D01*
X74048134Y-110741500D01*
X70951866Y-110741500D01*
X70889684Y-110748255D01*
X70753295Y-110799385D01*
X70636739Y-110886739D01*
X70549385Y-111003295D01*
X70498255Y-111139684D01*
X70491500Y-111201866D01*
X70491500Y-114298134D01*
X64508000Y-114298134D01*
X64508000Y-106634000D01*
X64528002Y-106565879D01*
X64581658Y-106519386D01*
X64634000Y-106508000D01*
X149366000Y-106508000D01*
X149434121Y-106528002D01*
G37*
G04 #@! TD.AperFunction*
M02*
